<svg width="176" height="175" viewBox="0 0 176 175" fill="none" xmlns="http://www.w3.org/2000/svg">
<g opacity="0.05">
<path d="M8.95263 4.35538C9.03763 10.1614 -0.0853958 10.1614 0.000604232 4.35437C-0.0843958 -1.45163 9.03863 -1.45162 8.95263 4.35538Z" fill="white"/>
<path d="M50.6587 4.35538C50.7447 10.1614 41.6216 10.1614 41.7076 4.35437C41.6226 -1.45163 50.7447 -1.45162 50.6587 4.35538Z" fill="white"/>
<path d="M92.3667 4.35538C92.4517 10.1614 83.3287 10.1614 83.4147 4.35437C83.3297 -1.45163 92.4527 -1.45162 92.3667 4.35538Z" fill="white"/>
<path d="M134.073 4.35538C134.158 10.1624 125.036 10.1614 125.122 4.35437C125.036 -1.45163 134.159 -1.45162 134.073 4.35538Z" fill="white"/>
<path d="M175.778 4.35538C175.863 10.1624 166.741 10.1624 166.827 4.35437C166.741 -1.45163 175.863 -1.45162 175.778 4.35538Z" fill="white"/>
<path d="M8.95263 45.9244C9.03763 51.7314 -0.0853958 51.7314 0.000604232 45.9244C-0.0843958 40.1184 9.03863 40.1184 8.95263 45.9244Z" fill="white"/>
<path d="M50.6587 45.9244C50.7437 51.7314 41.6216 51.7314 41.7076 45.9244C41.6226 40.1184 50.7447 40.1184 50.6587 45.9244Z" fill="white"/>
<path d="M92.3667 45.9244C92.4517 51.7314 83.3287 51.7314 83.4147 45.9244C83.3297 40.1184 92.4527 40.1184 92.3667 45.9244Z" fill="white"/>
<path d="M134.073 45.9244C134.158 51.7314 125.036 51.7314 125.122 45.9244C125.036 40.1184 134.159 40.1184 134.073 45.9244Z" fill="white"/>
<path d="M175.778 45.9244C175.863 51.7314 166.741 51.7314 166.827 45.9244C166.741 40.1184 175.863 40.1184 175.778 45.9244Z" fill="white"/>
<path d="M8.95263 87.4944C9.03763 93.3014 -0.0853958 93.3014 0.000604232 87.4944C-0.0843958 81.6874 9.03863 81.6874 8.95263 87.4944Z" fill="white"/>
<path d="M50.6587 87.4944C50.7437 93.3014 41.6216 93.3014 41.7076 87.4944C41.6226 81.6874 50.7447 81.6874 50.6587 87.4944Z" fill="white"/>
<path d="M92.3667 87.4944C92.4517 93.3014 83.3287 93.3014 83.4147 87.4944C83.3297 81.6874 92.4527 81.6874 92.3667 87.4944Z" fill="white"/>
<path d="M134.073 87.4944C134.158 93.3014 125.036 93.3014 125.122 87.4944C125.036 81.6874 134.159 81.6874 134.073 87.4944Z" fill="white"/>
<path d="M175.778 87.4944C175.863 93.3014 166.741 93.3014 166.827 87.4944C166.741 81.6874 175.863 81.6874 175.778 87.4944Z" fill="white"/>
<path d="M8.95263 129.063C9.03763 134.87 -0.0853958 134.87 0.000604232 129.063C-0.0843958 123.257 9.03863 123.256 8.95263 129.063Z" fill="white"/>
<path d="M50.6587 129.063C50.7437 134.87 41.6216 134.87 41.7076 129.063C41.6226 123.257 50.7447 123.256 50.6587 129.063Z" fill="white"/>
<path d="M92.3667 129.063C92.4517 134.87 83.3287 134.87 83.4147 129.063C83.3297 123.257 92.4527 123.256 92.3667 129.063Z" fill="white"/>
<path d="M134.073 129.064C134.158 134.87 125.036 134.87 125.122 129.063C125.036 123.257 134.159 123.256 134.073 129.064Z" fill="white"/>
<path d="M175.778 129.064C175.863 134.87 166.741 134.87 166.827 129.064C166.741 123.257 175.863 123.256 175.778 129.064Z" fill="white"/>
<path d="M8.95263 170.633C9.03763 176.44 -0.0853958 176.44 0.000604232 170.632C-0.0843958 164.826 9.03863 164.826 8.95263 170.633Z" fill="white"/>
<path d="M50.6587 170.633C50.7447 176.44 41.6216 176.44 41.7076 170.632C41.6226 164.826 50.7447 164.826 50.6587 170.633Z" fill="white"/>
<path d="M92.3667 170.633C92.4517 176.44 83.3287 176.44 83.4147 170.632C83.3297 164.826 92.4527 164.826 92.3667 170.633Z" fill="white"/>
<path d="M134.073 170.633C134.158 176.44 125.036 176.44 125.122 170.632C125.036 164.826 134.159 164.826 134.073 170.633Z" fill="white"/>
<path d="M175.778 170.633C175.863 176.44 166.741 176.44 166.827 170.632C166.741 164.826 175.863 164.826 175.778 170.633Z" fill="white"/>
</g>
</svg>
