<svg width="149" height="150" viewBox="0 0 149 150" fill="none" xmlns="http://www.w3.org/2000/svg">
<path d="M61.3611 85.9393C60.7753 86.5251 60.7753 87.4749 61.3611 88.0607C61.9469 88.6464 62.8966 88.6464 63.4824 88.0607L61.3611 85.9393ZM87.9634 62.9584C87.9634 62.1299 87.2918 61.4584 86.4634 61.4584L72.9634 61.4584C72.135 61.4584 71.4634 62.1299 71.4634 62.9584C71.4634 63.7868 72.135 64.4584 72.9634 64.4584H84.9634V76.4584C84.9634 77.2868 85.635 77.9584 86.4634 77.9584C87.2918 77.9584 87.9634 77.2868 87.9634 76.4584L87.9634 62.9584ZM63.4824 88.0607L87.524 64.019L85.4027 61.8977L61.3611 85.9393L63.4824 88.0607Z" fill="white"/>
<path d="M17.7025 56.9984C17.4304 57.8072 17.0321 58.506 16.5076 59.0949C15.9832 59.6837 15.3713 60.1475 14.6722 60.4862C13.973 60.8249 13.2202 61.0219 12.4139 61.077C11.611 61.1219 10.79 61.0033 9.95084 60.721C9.11173 60.4387 8.38424 60.042 7.76839 59.5309C7.14583 59.0063 6.66178 58.4046 6.31624 57.7256C5.96399 57.0332 5.76198 56.2956 5.71019 55.5129C5.64829 54.7268 5.7534 53.9293 6.0255 53.1205C6.29761 52.3117 6.67728 51.6348 7.16453 51.0897C7.65518 50.5345 8.20281 50.111 8.80741 49.8193C9.4019 49.5241 9.99937 49.3706 10.5998 49.3588L10.862 51.4896C10.2042 51.5046 9.60832 51.7037 9.07431 52.0867C8.54029 52.4698 8.15083 53.0253 7.90593 53.7532C7.66784 54.4609 7.62377 55.1438 7.77373 55.802C7.92708 56.45 8.24593 57.0243 8.73026 57.5249C9.21799 58.0154 9.85614 58.3933 10.6447 58.6586C11.4333 58.9239 12.1768 59.0052 12.8753 58.9026C13.5672 58.7865 14.1717 58.5115 14.689 58.0779C15.2063 57.6442 15.584 57.0735 15.8221 56.3658C16.016 55.7895 16.0833 55.2213 16.0242 54.6612C15.9549 54.0977 15.7623 53.5997 15.4465 53.167C15.1205 52.731 14.6694 52.416 14.0931 52.2222L13.2287 51.9314L14.3639 51.2666L12.9558 55.4521L11.2119 54.8654L12.9975 49.5577L14.1349 49.9404C15.0043 50.2329 15.7234 50.638 16.292 51.1556C16.8606 51.6733 17.2873 52.2614 17.5722 52.92C17.8504 53.565 18.0003 54.2401 18.0219 54.9451C18.0335 55.6467 17.927 56.3312 17.7025 56.9984Z" fill="white"/>
<path d="M23.5514 43.5127L13.9795 36.4088L18.6995 30.0489L20.2413 31.1932L16.8181 35.8057L19.2721 37.627L22.5046 33.2714L24.0464 34.4157L20.8139 38.7712L23.3064 40.6211L26.7296 36.0086L28.2714 37.1528L23.5514 43.5127Z" fill="white"/>
<path d="M35.8815 29.6628L29.5587 21.9155L27.1663 23.8679L25.9523 22.3805L32.3981 17.1198L33.6121 18.6073L31.2569 20.5295L37.5797 28.2768L35.8815 29.6628Z" fill="white"/>
<path d="M57.4087 18.4878C56.6774 18.6848 55.9616 18.7341 55.2612 18.6356C54.571 18.5343 53.9356 18.3078 53.3548 17.9561C52.7815 17.5914 52.3058 17.1175 51.9278 16.5344L53.4695 15.3071C53.9252 15.8913 54.467 16.3032 55.095 16.5428C55.7201 16.772 56.3623 16.7978 57.0215 16.6202C57.3922 16.5203 57.6963 16.3777 57.9335 16.1922C58.1783 15.9937 58.345 15.772 58.4337 15.5272C58.5327 15.2796 58.5434 15.0116 58.4657 14.7232C58.3741 14.3833 58.1962 14.133 57.9319 13.9722C57.6752 13.7983 57.3293 13.7037 56.8944 13.6884L54.4937 13.5729C53.5227 13.5363 52.7357 13.3009 52.1327 12.8668C51.5297 12.4328 51.1269 11.8398 50.9243 11.0879C50.7467 10.4288 50.7496 9.80386 50.9329 9.21317C51.1265 8.6197 51.4742 8.10622 51.976 7.67274C52.4854 7.22619 53.116 6.90162 53.8679 6.69905C54.5579 6.51313 55.2246 6.46606 55.868 6.55785C56.5086 6.63934 57.0932 6.84087 57.6217 7.16245C58.1577 7.47095 58.6064 7.88584 58.9678 8.4071L57.4456 9.64575C57.0637 9.13003 56.6045 8.77873 56.068 8.59185C55.5288 8.39466 54.9606 8.37655 54.3632 8.53749C54.013 8.63184 53.7207 8.77689 53.4862 8.97263C53.2489 9.15807 53.0822 9.37975 52.986 9.63766C52.8973 9.8825 52.8918 10.1491 52.9695 10.4375C53.0555 10.7568 53.2348 11.0123 53.5074 11.2039C53.7772 11.3853 54.1413 11.4861 54.5997 11.5062L56.8952 11.6003C57.8923 11.652 58.6882 11.8794 59.2829 12.2826C59.8879 12.683 60.2944 13.2694 60.5026 14.0419C60.6802 14.701 60.667 15.3287 60.4631 15.925C60.2592 16.5212 59.8974 17.044 59.3777 17.4933C58.8581 17.9427 58.2017 18.2742 57.4087 18.4878Z" fill="white"/>
<path d="M72.4631 16.0585L72.3922 6.05876L69.3043 6.08063L69.2907 4.16068L77.6105 4.10174L77.6241 6.0217L74.5842 6.04323L74.655 16.043L72.4631 16.0585Z" fill="white"/>
<path d="M82.0359 16.3597L88.9587 5.82073L91.6879 6.51473L92.7354 19.0805L90.4404 18.4969L90.2495 15.8068L85.7836 14.6712L84.3154 16.9393L82.0359 16.3597ZM86.8615 12.9642L90.1179 13.7923L89.658 7.55042L90.2473 7.70026L86.8615 12.9642Z" fill="white"/>
<path d="M99.5243 22.0736L105.292 11.6421L109.171 13.7868C109.88 14.179 110.434 14.6556 110.83 15.2163C111.242 15.7729 111.465 16.3837 111.499 17.0488C111.539 17.7045 111.365 18.3824 110.978 19.0825C110.581 19.8013 110.07 20.3172 109.446 20.6303C108.831 20.9486 108.167 21.069 107.454 20.9917L107.533 26.5022L105.377 25.3099L105.347 19.3144L106.176 20.7238L103.558 19.276L101.429 23.1265L99.5243 22.0736ZM104.487 17.5958L106.489 18.7029C106.835 18.8939 107.169 18.9937 107.494 19.0024C107.823 19.0018 108.125 18.9188 108.399 18.7535C108.673 18.5882 108.898 18.3469 109.074 18.0295C109.254 17.7028 109.339 17.3841 109.328 17.0733C109.322 16.7532 109.23 16.4581 109.05 16.188C108.875 15.9086 108.615 15.6735 108.27 15.4825L106.268 14.3753L104.487 17.5958Z" fill="white"/>
<path d="M111.748 30.2281L118.341 22.7094L116.019 20.6734L117.285 19.2298L123.541 24.7153L122.275 26.1589L119.989 24.1546L113.396 31.6733L111.748 30.2281Z" fill="white"/>
<path d="M119.214 37.6456L129.031 30.8849L133.523 37.4078L131.942 38.4968L128.684 33.766L126.167 35.4993L129.243 39.9665L127.662 41.0555L124.586 36.5883L122.029 38.3488L125.287 43.0795L123.706 44.1685L119.214 37.6456Z" fill="white"/>
<path d="M127.755 51.7673L139.092 48.0865L140.293 51.7845C140.681 52.9817 140.776 54.1006 140.575 55.1414C140.388 56.189 139.948 57.0946 139.253 57.8583C138.57 58.6186 137.67 59.18 136.554 59.5423C135.448 59.9013 134.385 59.9773 133.364 59.7703C132.354 59.56 131.46 59.0875 130.683 58.3528C129.92 57.625 129.344 56.6625 128.955 55.4653L127.755 51.7673ZM130.253 53.2441L130.796 54.9181C131.047 55.6892 131.42 56.3026 131.915 56.7585C132.424 57.2213 133.014 57.5177 133.684 57.6477C134.365 57.7745 135.095 57.711 135.877 57.4574C136.668 57.2005 137.297 56.8226 137.763 56.3236C138.229 55.8246 138.527 55.24 138.657 54.5698C138.79 53.9097 138.732 53.1941 138.481 52.4231L137.938 50.7491L130.253 53.2441Z" fill="white"/>
<path d="M131.972 69.4886L134.204 69.3038L134.378 71.4086L132.146 71.5934L131.972 69.4886Z" fill="white"/>
<path d="M131.299 83.9679C131.446 83.1274 131.735 82.3766 132.165 81.7155C132.595 81.0545 133.13 80.5039 133.77 80.0638C134.41 79.6237 135.125 79.3158 135.914 79.14C136.701 78.9747 137.53 78.9684 138.402 79.1213C139.274 79.2741 140.053 79.5568 140.739 79.9693C141.433 80.3942 142.002 80.9163 142.446 81.5355C142.899 82.1671 143.209 82.8659 143.378 83.6319C143.558 84.3998 143.574 85.2039 143.427 86.0445C143.279 86.885 143.006 87.6113 142.606 88.2235C142.205 88.8463 141.727 89.3473 141.173 89.7268C140.63 90.108 140.062 90.3497 139.47 90.4517L138.891 88.3846C139.539 88.2708 140.098 87.9843 140.568 87.5253C141.038 87.0662 141.34 86.4585 141.472 85.702C141.601 84.9665 141.542 84.2847 141.295 83.6566C141.046 83.039 140.644 82.5192 140.09 82.0972C139.534 81.6858 138.846 81.4082 138.027 81.2646C137.207 81.121 136.46 81.1525 135.785 81.359C135.118 81.5779 134.562 81.9407 134.116 82.4473C133.67 82.9539 133.382 83.5749 133.253 84.3104C133.148 84.9092 133.167 85.4811 133.31 86.0259C133.463 86.5726 133.729 87.036 134.106 87.4162C134.494 87.7982 134.987 88.0417 135.586 88.1466L136.484 88.304L135.462 89.132L136.224 84.7823L138.037 85.0999L137.07 90.6159L135.888 90.4087C134.985 90.2504 134.213 89.9581 133.573 89.5319C132.933 89.1057 132.422 88.5885 132.042 87.9803C131.669 87.3845 131.42 86.7397 131.292 86.0459C131.175 85.354 131.177 84.6613 131.299 83.9679Z" fill="white"/>
<path d="M127.546 98.1807L138.078 103.763L134.369 110.761L132.672 109.862L135.363 104.787L132.662 103.355L130.122 108.148L128.426 107.249L130.966 102.456L128.223 101.003L125.533 106.078L123.837 105.178L127.546 98.1807Z" fill="white"/>
<path d="M117.441 113.728L124.858 120.436L126.929 118.145L128.353 119.433L122.772 125.604L121.348 124.316L123.387 122.061L115.971 115.354L117.441 113.728Z" fill="white"/>
<path d="M97.8407 128.016C98.534 127.711 99.2343 127.554 99.9415 127.546C100.639 127.543 101.301 127.671 101.928 127.931C102.55 128.206 103.092 128.603 103.553 129.122L102.214 130.568C101.675 130.058 101.078 129.733 100.421 129.59C99.7682 129.458 99.1295 129.529 98.5045 129.804C98.153 129.958 97.8739 130.145 97.6673 130.364C97.4551 130.597 97.3237 130.841 97.2728 131.097C97.2122 131.357 97.242 131.623 97.3622 131.897C97.5039 132.219 97.7175 132.439 98.0029 132.559C98.2829 132.692 98.639 132.733 99.0714 132.683L101.462 132.436C102.428 132.326 103.241 132.44 103.902 132.779C104.564 133.117 105.051 133.643 105.365 134.356C105.64 134.98 105.731 135.599 105.638 136.21C105.536 136.826 105.27 137.386 104.839 137.89C104.403 138.408 103.828 138.824 103.115 139.137C102.461 139.425 101.809 139.572 101.159 139.578C100.514 139.594 99.9053 139.483 99.3344 139.244C98.758 139.02 98.252 138.677 97.8163 138.216L99.1347 136.763C99.59 137.215 100.097 137.493 100.655 137.597C101.218 137.711 101.782 137.643 102.349 137.394C102.681 137.249 102.948 137.061 103.15 136.832C103.357 136.613 103.488 136.369 103.545 136.1C103.596 135.844 103.561 135.58 103.441 135.306C103.308 135.004 103.092 134.778 102.794 134.63C102.5 134.491 102.124 134.446 101.668 134.495L99.3848 134.748C98.3913 134.847 97.5702 134.741 96.9216 134.432C96.2632 134.128 95.7731 133.609 95.4511 132.877C95.1763 132.252 95.0949 131.629 95.2067 131.009C95.3186 130.389 95.5976 129.818 96.0437 129.295C96.4898 128.773 97.0888 128.346 97.8407 128.016Z" fill="white"/>
<path d="M83.3233 132.682L84.8981 142.558L87.9476 142.071L88.2499 143.967L80.0337 145.278L79.7314 143.382L82.7334 142.903L81.1586 133.028L83.3233 132.682Z" fill="white"/>
<path d="M73.8133 133.826L68.5552 145.286L65.7527 145.011L62.8262 132.746L65.1829 132.977L65.7764 135.608L70.3623 136.059L71.4726 133.596L73.8133 133.826ZM69.5536 137.909L66.2097 137.58L67.6036 143.682L66.9985 143.622L69.5536 137.909Z" fill="white"/>
<path d="M55.6648 130.808L51.5321 141.989L47.375 140.452C46.6146 140.171 45.9961 139.783 45.5193 139.289C45.0289 138.8 44.7166 138.23 44.5824 137.578C44.4445 136.935 44.5143 136.239 44.7916 135.489C45.0764 134.718 45.5037 134.131 46.0736 133.728C46.6335 133.321 47.2717 133.102 47.9881 133.071L47.0804 127.635L49.3916 128.489L50.3241 134.412L49.2919 133.143L52.0983 134.181L53.6238 130.054L55.6648 130.808ZM51.4326 135.982L49.2865 135.188C48.9163 135.052 48.5703 135.003 48.2484 135.043C47.9228 135.094 47.6368 135.221 47.3906 135.426C47.1444 135.63 46.9584 135.903 46.8327 136.243C46.7032 136.593 46.6673 136.921 46.7249 137.227C46.7789 137.542 46.915 137.82 47.1334 138.06C47.348 138.31 47.6405 138.503 48.0107 138.64L50.1567 139.433L51.4326 135.982Z" fill="white"/>
<path d="M42.3528 124.586L36.9662 133.011L39.5679 134.675L38.5337 136.292L31.5239 131.811L32.5581 130.193L35.1194 131.83L40.506 123.405L42.3528 124.586Z" fill="white"/>
<path d="M33.8556 118.376L25.1674 126.537L19.745 120.765L21.1444 119.45L25.077 123.637L27.3045 121.545L23.591 117.591L24.9904 116.277L28.7039 120.23L30.9663 118.105L27.0337 113.918L28.4332 112.604L33.8556 118.376Z" fill="white"/>
<path d="M23.2875 105.701L12.6331 111.046L10.8897 107.57C10.3253 106.445 10.0639 105.353 10.1054 104.294C10.1326 103.23 10.4318 102.269 11.0031 101.409C11.5649 100.555 12.3701 99.8644 13.4189 99.3383C14.4581 98.8169 15.4977 98.5818 16.5377 98.6329C17.5682 98.6888 18.5227 99.0214 19.4012 99.6308C20.2654 100.236 20.9798 101.1 21.5441 102.225L23.2875 105.701ZM20.5957 104.617L19.8065 103.043C19.443 102.319 18.9819 101.768 18.4233 101.392C17.8503 101.012 17.2228 100.807 16.5406 100.78C15.8489 100.757 15.1359 100.929 14.4018 101.298C13.6581 101.671 13.0935 102.139 12.7078 102.702C12.3222 103.266 12.1155 103.888 12.0878 104.571C12.0553 105.243 12.2208 105.942 12.5843 106.667L13.3735 108.24L20.5957 104.617Z" fill="white"/>
<path d="M16.4512 88.8156L14.272 89.3342L13.783 87.2796L15.9621 86.761L16.4512 88.8156Z" fill="white"/>
</svg>
