<svg width="1920" height="1266" viewBox="0 0 1920 1266" fill="none" xmlns="http://www.w3.org/2000/svg">
<g opacity="0.05">
<path d="M980.953 470.355C981.038 476.161 971.915 476.161 972.001 470.354C971.916 464.548 981.039 464.548 980.953 470.355Z" fill="white"/>
<path d="M1022.66 470.355C1022.74 476.161 1013.62 476.161 1013.71 470.354C1013.62 464.548 1022.74 464.548 1022.66 470.355Z" fill="white"/>
<path d="M1064.37 470.355C1064.45 476.161 1055.33 476.161 1055.41 470.354C1055.33 464.548 1064.45 464.548 1064.37 470.355Z" fill="white"/>
<path d="M1106.07 470.355C1106.16 476.162 1097.04 476.161 1097.12 470.354C1097.04 464.548 1106.16 464.548 1106.07 470.355Z" fill="white"/>
<path d="M1147.78 470.355C1147.86 476.162 1138.74 476.162 1138.83 470.354C1138.74 464.548 1147.86 464.548 1147.78 470.355Z" fill="white"/>
<path d="M980.953 511.924C981.038 517.731 971.915 517.731 972.001 511.924C971.916 506.118 981.039 506.118 980.953 511.924Z" fill="white"/>
<path d="M1022.66 511.924C1022.74 517.731 1013.62 517.731 1013.71 511.924C1013.62 506.118 1022.74 506.118 1022.66 511.924Z" fill="white"/>
<path d="M1064.37 511.924C1064.45 517.731 1055.33 517.731 1055.41 511.924C1055.33 506.118 1064.45 506.118 1064.37 511.924Z" fill="white"/>
<path d="M1106.07 511.924C1106.16 517.731 1097.04 517.731 1097.12 511.924C1097.04 506.118 1106.16 506.118 1106.07 511.924Z" fill="white"/>
<path d="M1147.78 511.924C1147.86 517.731 1138.74 517.731 1138.83 511.924C1138.74 506.118 1147.86 506.118 1147.78 511.924Z" fill="white"/>
<path d="M980.953 553.494C981.038 559.301 971.915 559.301 972.001 553.494C971.916 547.687 981.039 547.687 980.953 553.494Z" fill="white"/>
<path d="M1022.66 553.494C1022.74 559.301 1013.62 559.301 1013.71 553.494C1013.62 547.687 1022.74 547.687 1022.66 553.494Z" fill="white"/>
<path d="M1064.37 553.494C1064.45 559.301 1055.33 559.301 1055.41 553.494C1055.33 547.687 1064.45 547.687 1064.37 553.494Z" fill="white"/>
<path d="M1106.07 553.494C1106.16 559.301 1097.04 559.301 1097.12 553.494C1097.04 547.687 1106.16 547.687 1106.07 553.494Z" fill="white"/>
<path d="M1147.78 553.494C1147.86 559.301 1138.74 559.301 1138.83 553.494C1138.74 547.687 1147.86 547.687 1147.78 553.494Z" fill="white"/>
<path d="M980.953 595.063C981.038 600.87 971.915 600.87 972.001 595.063C971.916 589.257 981.039 589.256 980.953 595.063Z" fill="white"/>
<path d="M1022.66 595.063C1022.74 600.87 1013.62 600.87 1013.71 595.063C1013.62 589.257 1022.74 589.256 1022.66 595.063Z" fill="white"/>
<path d="M1064.37 595.063C1064.45 600.87 1055.33 600.87 1055.41 595.063C1055.33 589.257 1064.45 589.256 1064.37 595.063Z" fill="white"/>
<path d="M1106.07 595.064C1106.16 600.87 1097.04 600.87 1097.12 595.063C1097.04 589.257 1106.16 589.256 1106.07 595.064Z" fill="white"/>
<path d="M1147.78 595.064C1147.86 600.87 1138.74 600.87 1138.83 595.064C1138.74 589.257 1147.86 589.256 1147.78 595.064Z" fill="white"/>
<path d="M980.953 636.633C981.038 642.44 971.915 642.44 972.001 636.632C971.916 630.826 981.039 630.826 980.953 636.633Z" fill="white"/>
<path d="M1022.66 636.633C1022.74 642.44 1013.62 642.44 1013.71 636.632C1013.62 630.826 1022.74 630.826 1022.66 636.633Z" fill="white"/>
<path d="M1064.37 636.633C1064.45 642.44 1055.33 642.44 1055.41 636.632C1055.33 630.826 1064.45 630.826 1064.37 636.633Z" fill="white"/>
<path d="M1106.07 636.633C1106.16 642.44 1097.04 642.44 1097.12 636.632C1097.04 630.826 1106.16 630.826 1106.07 636.633Z" fill="white"/>
<path d="M1147.78 636.633C1147.86 642.44 1138.74 642.44 1138.83 636.632C1138.74 630.826 1147.86 630.826 1147.78 636.633Z" fill="white"/>
</g>
<g opacity="0.1" filter="url(#filter0_f_1_120)">
<circle cx="1431.5" cy="631.5" r="334.5" fill="url(#paint0_linear_1_120)"/>
</g>
<g opacity="0.1" filter="url(#filter1_f_1_120)">
<circle cx="424.5" cy="281.5" r="204.5" fill="#FF8A00"/>
</g>
<g opacity="0.03" clip-path="url(#clip0_1_120)">
<mask id="mask0_1_120" style="mask-type:luminance" maskUnits="userSpaceOnUse" x="1570" y="395" width="260" height="260">
<path d="M1830 395H1570V655H1830V395Z" fill="white"/>
</mask>
<g mask="url(#mask0_1_120)">
<path fill-rule="evenodd" clip-rule="evenodd" d="M1570 395H1635V460H1570V395ZM1700 460H1635V525H1570V590H1635V655H1700V590H1765V655H1830V590H1765V525H1830V460H1765V395H1700V460ZM1700 525H1765V460H1700V525ZM1700 525V590H1635V525H1700Z" fill="white"/>
</g>
</g>
<g opacity="0.05" clip-path="url(#clip1_1_120)">
<mask id="mask1_1_120" style="mask-type:luminance" maskUnits="userSpaceOnUse" x="1752" y="826" width="62" height="62">
<path d="M1813.24 838.941L1764.94 826L1752 874.296L1800.3 887.237L1813.24 838.941Z" fill="white"/>
</mask>
<g mask="url(#mask1_1_120)">
<path d="M1789.09 832.47C1786.43 845.672 1794 858.791 1806.77 863.089C1793.57 860.43 1780.45 868.004 1776.15 880.767C1778.81 867.565 1771.23 854.446 1758.47 850.148C1771.67 852.807 1784.79 845.233 1789.09 832.47Z" fill="white"/>
</g>
</g>
<g opacity="0.05" clip-path="url(#clip2_1_120)">
<mask id="mask2_1_120" style="mask-type:luminance" maskUnits="userSpaceOnUse" x="1653" y="1071" width="50" height="49">
<path d="M1702.99 1081.35L1664.35 1071L1654 1109.64L1692.64 1119.99L1702.99 1081.35Z" fill="white"/>
</mask>
<g mask="url(#mask2_1_120)">
<path d="M1683.67 1076.18C1681.54 1086.74 1687.6 1097.23 1697.81 1100.67C1687.25 1098.54 1676.76 1104.6 1673.32 1114.81C1675.45 1104.25 1669.39 1093.76 1659.18 1090.32C1669.74 1092.45 1680.23 1086.39 1683.67 1076.18Z" fill="white"/>
</g>
</g>
<g opacity="0.05" clip-path="url(#clip3_1_120)">
<mask id="mask3_1_120" style="mask-type:luminance" maskUnits="userSpaceOnUse" x="1533" y="146" width="86" height="87">
<path d="M1600.61 146.412L1533 164.529L1551.12 232.144L1618.73 214.027L1600.61 146.412Z" fill="white"/>
</mask>
<g mask="url(#mask3_1_120)">
<path d="M1584.92 223.085C1575.36 191.319 1574.35 190.738 1542.06 198.336C1573.82 188.776 1574.41 187.762 1566.81 155.47C1576.37 187.237 1577.38 187.817 1609.67 180.219C1577.91 189.785 1577.32 190.783 1584.92 223.085Z" fill="white"/>
</g>
</g>
<g opacity="0.03" clip-path="url(#clip4_1_120)">
<mask id="mask4_1_120" style="mask-type:luminance" maskUnits="userSpaceOnUse" x="122" y="162" width="216" height="216">
<path d="M338 162H122V378H338V162Z" fill="white"/>
</mask>
<g mask="url(#mask4_1_120)">
<path d="M259.412 281.133C279.524 288.747 306.597 287.359 323.834 277.83L338 270L323.834 262.17C306.597 252.642 279.526 251.254 259.412 258.867L244.328 264.576C244.234 264.272 244.121 263.979 244.01 263.684L258.67 257.075C278.276 248.236 296.436 228.112 301.888 209.186L306.368 193.632L290.814 198.112C271.888 203.563 251.764 221.724 242.924 241.33L236.542 255.489C236.247 255.346 235.952 255.204 235.647 255.08L241.133 240.588C248.746 220.475 247.358 193.403 237.83 176.166L230 162L222.17 176.166C212.642 193.403 211.254 220.475 218.867 240.588L224.352 255.08C224.047 255.205 223.753 255.347 223.458 255.49L217.075 241.33C208.236 221.725 188.112 203.563 169.186 198.112L153.632 193.632L158.112 209.187C163.563 228.112 181.724 248.236 201.33 257.075L215.99 263.684C215.879 263.98 215.765 264.273 215.672 264.577L200.588 258.867C180.475 251.254 153.403 252.642 136.166 262.17L122 270L136.166 277.83C153.403 287.359 180.475 288.747 200.588 281.133L216.377 275.157C216.502 275.429 216.627 275.702 216.767 275.966L201.33 282.925C181.725 291.764 163.563 311.888 158.112 330.814L153.632 346.368L169.186 341.888C188.112 336.437 208.236 318.276 217.075 298.671L224.239 282.781C224.504 282.891 224.778 282.982 225.051 283.078L218.867 299.413C211.254 319.526 212.642 346.598 222.17 363.835L230 378.001L237.831 363.835C247.359 346.598 248.747 319.527 241.134 299.413L234.95 283.077C235.222 282.982 235.497 282.891 235.762 282.78L242.925 298.67C251.764 318.276 271.888 336.436 290.814 341.888L306.368 346.368L301.888 330.814C296.437 311.888 278.276 291.764 258.671 282.924L243.233 275.966C243.374 275.702 243.499 275.429 243.623 275.156L259.412 281.133Z" fill="white"/>
</g>
</g>
<defs>
<filter id="filter0_f_1_120" x="797" y="-3" width="1269" height="1269" filterUnits="userSpaceOnUse" color-interpolation-filters="sRGB">
<feFlood flood-opacity="0" result="BackgroundImageFix"/>
<feBlend mode="normal" in="SourceGraphic" in2="BackgroundImageFix" result="shape"/>
<feGaussianBlur stdDeviation="150" result="effect1_foregroundBlur_1_120"/>
</filter>
<filter id="filter1_f_1_120" x="-80" y="-223" width="1009" height="1009" filterUnits="userSpaceOnUse" color-interpolation-filters="sRGB">
<feFlood flood-opacity="0" result="BackgroundImageFix"/>
<feBlend mode="normal" in="SourceGraphic" in2="BackgroundImageFix" result="shape"/>
<feGaussianBlur stdDeviation="150" result="effect1_foregroundBlur_1_120"/>
</filter>
<linearGradient id="paint0_linear_1_120" x1="1097" y1="297" x2="2176.29" y2="844.11" gradientUnits="userSpaceOnUse">
<stop stop-color="#FF8A00"/>
<stop offset="1" stop-color="#E8112B"/>
</linearGradient>
<clipPath id="clip0_1_120">
<rect width="260" height="260" fill="white" transform="translate(1570 395)"/>
</clipPath>
<clipPath id="clip1_1_120">
<rect width="50" height="50" fill="white" transform="translate(1764.94 826) rotate(15)"/>
</clipPath>
<clipPath id="clip2_1_120">
<rect width="40" height="40" fill="white" transform="translate(1664.35 1071) rotate(15)"/>
</clipPath>
<clipPath id="clip3_1_120">
<rect width="70" height="70" fill="white" transform="translate(1533 164.529) rotate(-15)"/>
</clipPath>
<clipPath id="clip4_1_120">
<rect width="216" height="216" fill="white" transform="translate(122 162)"/>
</clipPath>
</defs>
</svg>
