<svg width="410" height="453" viewBox="0 0 410 453" fill="none" xmlns="http://www.w3.org/2000/svg">
<mask id="path-1-inside-1_1_447" fill="white">
<path fill-rule="evenodd" clip-rule="evenodd" d="M61.966 19C59.7905 19 57.7854 17.8224 56.7258 15.9224L49.7402 3.39644C47.4517 -0.707012 41.5483 -0.70702 39.2598 3.39643L32.2742 15.9224C31.2146 17.8224 29.2095 19 27.034 19H6C2.68629 19 0 21.6863 0 25V447C0 450.314 2.68629 453 5.99999 453H404C407.314 453 410 450.314 410 447V25C410 21.6863 407.314 19 404 19H61.966Z"/>
</mask>
<path fill-rule="evenodd" clip-rule="evenodd" d="M61.966 19C59.7905 19 57.7854 17.8224 56.7258 15.9224L49.7402 3.39644C47.4517 -0.707012 41.5483 -0.70702 39.2598 3.39643L32.2742 15.9224C31.2146 17.8224 29.2095 19 27.034 19H6C2.68629 19 0 21.6863 0 25V447C0 450.314 2.68629 453 5.99999 453H404C407.314 453 410 450.314 410 447V25C410 21.6863 407.314 19 404 19H61.966Z" fill="url(#paint0_linear_1_447)" fill-opacity="0.03"/>
<path d="M47.9935 4.37058L54.9791 16.8966L58.4726 14.9483L51.4869 2.4223L47.9935 4.37058ZM34.0209 16.8966L41.0065 4.37057L37.5131 2.4223L30.5274 14.9483L34.0209 16.8966ZM6 21H27.034V17H6V21ZM2 447V25H-2V447H2ZM404 451H5.99999V455H404V451ZM408 25V447H412V25H408ZM61.966 21H404V17H61.966V21ZM412 25C412 20.5817 408.418 17 404 17V21C406.209 21 408 22.7909 408 25H412ZM404 455C408.418 455 412 451.418 412 447H408C408 449.209 406.209 451 404 451V455ZM-2 447C-2 451.418 1.58171 455 5.99999 455V451C3.79086 451 2 449.209 2 447H-2ZM6 17C1.58172 17 -2 20.5817 -2 25H2C2 22.7909 3.79086 21 6 21V17ZM30.5274 14.9483C29.821 16.2149 28.4843 17 27.034 17V21C29.9347 21 32.6081 19.4299 34.0209 16.8966L30.5274 14.9483ZM54.9791 16.8966C56.3919 19.4299 59.0653 21 61.966 21V17C60.5157 17 59.179 16.2149 58.4726 14.9483L54.9791 16.8966ZM51.4869 2.4223C48.4356 -3.04896 40.5644 -3.04898 37.5131 2.4223L41.0065 4.37057C42.5322 1.63494 46.4678 1.63494 47.9935 4.37058L51.4869 2.4223Z" fill="url(#paint1_linear_1_447)" fill-opacity="0.05" mask="url(#path-1-inside-1_1_447)"/>
<defs>
<linearGradient id="paint0_linear_1_447" x1="205" y1="0.318848" x2="205" y2="453" gradientUnits="userSpaceOnUse">
<stop stop-color="white"/>
<stop offset="1" stop-color="white" stop-opacity="0"/>
</linearGradient>
<linearGradient id="paint1_linear_1_447" x1="205" y1="0.318848" x2="205" y2="453" gradientUnits="userSpaceOnUse">
<stop stop-color="white"/>
<stop offset="1" stop-color="white" stop-opacity="0.6"/>
</linearGradient>
</defs>
</svg>
