<svg width="1290" height="486" viewBox="0 0 1290 486" fill="none" xmlns="http://www.w3.org/2000/svg">
<rect width="1290" height="486" rx="36" fill="#181818"/>
<mask id="mask0_1_569" style="mask-type:alpha" maskUnits="userSpaceOnUse" x="0" y="0" width="1290" height="486">
<rect width="1290" height="486" rx="36" fill="#181818"/>
</mask>
<g mask="url(#mask0_1_569)">
<g opacity="0.05">
<line x1="0.5" y1="-1.9268e-08" x2="0.500032" y2="653" stroke="white"/>
<line x1="72.1669" y1="-2.15085e-08" x2="72.1669" y2="653" stroke="white"/>
<line x1="143.833" y1="-2.15085e-08" x2="143.833" y2="653" stroke="white"/>
<line x1="215.5" y1="-2.15085e-08" x2="215.5" y2="653" stroke="white"/>
<line x1="287.167" y1="-2.15085e-08" x2="287.167" y2="653" stroke="white"/>
<line x1="358.833" y1="-2.15085e-08" x2="358.833" y2="653" stroke="white"/>
<line x1="430.5" y1="-2.15085e-08" x2="430.5" y2="653" stroke="white"/>
<line x1="502.167" y1="-2.15085e-08" x2="502.167" y2="653" stroke="white"/>
<line x1="573.833" y1="-2.15085e-08" x2="573.833" y2="653" stroke="white"/>
<line x1="645.5" y1="-2.15085e-08" x2="645.5" y2="653" stroke="white"/>
<line x1="717.167" y1="-2.15085e-08" x2="717.167" y2="653" stroke="white"/>
<line x1="788.833" y1="-2.15085e-08" x2="788.833" y2="653" stroke="white"/>
<line x1="860.5" y1="-2.15085e-08" x2="860.5" y2="653" stroke="white"/>
<line x1="932.167" y1="-2.15085e-08" x2="932.167" y2="653" stroke="white"/>
<line x1="1003.83" y1="-2.15085e-08" x2="1003.83" y2="653" stroke="white"/>
<line x1="1075.5" y1="-2.15085e-08" x2="1075.5" y2="653" stroke="white"/>
<line x1="1147.17" y1="-2.15085e-08" x2="1147.17" y2="653" stroke="white"/>
<line x1="1218.83" y1="-2.15085e-08" x2="1218.83" y2="653" stroke="white"/>
<line y1="53.9165" x2="1290" y2="53.9165" stroke="white"/>
<line y1="108.333" x2="1290" y2="108.333" stroke="white"/>
<line y1="162.75" x2="1290" y2="162.75" stroke="white"/>
<line y1="217.167" x2="1290" y2="217.167" stroke="white"/>
<line y1="271.583" x2="1290" y2="271.583" stroke="white"/>
<line y1="326" x2="1290" y2="326" stroke="white"/>
<line y1="380.417" x2="1290" y2="380.417" stroke="white"/>
<line y1="434.833" x2="1290" y2="434.833" stroke="white"/>
</g>
<g opacity="0.2" filter="url(#filter0_f_1_569)">
<circle cx="350.5" cy="395.5" r="250.5" fill="url(#paint0_linear_1_569)"/>
</g>
<g opacity="0.2" filter="url(#filter1_f_1_569)">
<circle cx="1039.5" cy="75.5" r="250.5" fill="url(#paint1_linear_1_569)"/>
</g>
</g>
<path d="M286.036 167V119.32H295.957V139.928H314.517V119.32H324.437V167H314.517V148.568H295.957V167H286.036ZM343.024 167.768C340.506 167.768 338.33 167.363 336.496 166.552C334.661 165.741 333.253 164.589 332.272 163.096C331.29 161.56 330.799 159.747 330.799 157.656C330.799 155.693 331.248 153.965 332.144 152.472C333.04 150.936 334.405 149.656 336.24 148.632C338.117 147.608 340.442 146.883 343.216 146.456L353.904 144.728V151.768L344.944 153.368C343.578 153.624 342.533 154.072 341.808 154.712C341.082 155.309 340.72 156.184 340.72 157.336C340.72 158.403 341.125 159.235 341.936 159.832C342.746 160.429 343.749 160.728 344.944 160.728C346.522 160.728 347.909 160.387 349.104 159.704C350.298 159.021 351.216 158.104 351.856 156.952C352.538 155.757 352.88 154.456 352.88 153.048V143.96C352.88 142.637 352.346 141.528 351.28 140.632C350.256 139.736 348.848 139.288 347.056 139.288C345.349 139.288 343.834 139.757 342.512 140.696C341.232 141.635 340.293 142.872 339.696 144.408L332.016 140.76C332.698 138.797 333.786 137.112 335.28 135.704C336.773 134.296 338.565 133.208 340.656 132.44C342.746 131.672 345.029 131.288 347.503 131.288C350.448 131.288 353.05 131.821 355.312 132.888C357.573 133.955 359.322 135.448 360.56 137.368C361.84 139.245 362.479 141.443 362.479 143.96V167H353.52V161.368L355.696 160.984C354.672 162.52 353.541 163.8 352.304 164.824C351.066 165.805 349.68 166.531 348.144 167C346.608 167.512 344.901 167.768 343.024 167.768ZM379.839 167L366.079 132.056H376.447L385.983 158.488H382.015L391.551 132.056H401.919L388.159 167H379.839ZM422.352 167.768C418.64 167.768 415.419 166.957 412.688 165.336C409.957 163.672 407.845 161.453 406.352 158.68C404.859 155.907 404.112 152.835 404.112 149.464C404.112 145.965 404.88 142.851 406.416 140.12C407.995 137.389 410.107 135.235 412.752 133.656C415.397 132.077 418.384 131.288 421.712 131.288C424.485 131.288 426.939 131.736 429.072 132.632C431.205 133.485 432.997 134.701 434.448 136.28C435.941 137.859 437.072 139.693 437.84 141.784C438.608 143.832 438.992 146.072 438.992 148.504C438.992 149.187 438.949 149.869 438.864 150.552C438.821 151.192 438.715 151.747 438.544 152.216H412.368V145.176H433.104L428.56 148.504C428.987 146.669 428.965 145.048 428.496 143.64C428.027 142.189 427.195 141.059 426 140.248C424.848 139.395 423.419 138.968 421.712 138.968C420.048 138.968 418.619 139.373 417.424 140.184C416.229 140.995 415.333 142.189 414.736 143.768C414.139 145.347 413.904 147.267 414.032 149.528C413.861 151.491 414.096 153.219 414.736 154.712C415.376 156.205 416.357 157.379 417.68 158.232C419.003 159.043 420.603 159.448 422.48 159.448C424.187 159.448 425.637 159.107 426.832 158.424C428.069 157.741 429.029 156.803 429.712 155.608L437.392 159.256C436.709 160.963 435.621 162.456 434.128 163.736C432.677 165.016 430.949 166.019 428.944 166.744C426.939 167.427 424.741 167.768 422.352 167.768ZM466.961 167.768C464.444 167.768 462.268 167.363 460.433 166.552C458.598 165.741 457.19 164.589 456.209 163.096C455.228 161.56 454.737 159.747 454.737 157.656C454.737 155.693 455.185 153.965 456.081 152.472C456.977 150.936 458.342 149.656 460.177 148.632C462.054 147.608 464.38 146.883 467.153 146.456L477.841 144.728V151.768L468.881 153.368C467.516 153.624 466.47 154.072 465.745 154.712C465.02 155.309 464.657 156.184 464.657 157.336C464.657 158.403 465.062 159.235 465.873 159.832C466.684 160.429 467.686 160.728 468.881 160.728C470.46 160.728 471.846 160.387 473.041 159.704C474.236 159.021 475.153 158.104 475.793 156.952C476.476 155.757 476.817 154.456 476.817 153.048V143.96C476.817 142.637 476.284 141.528 475.217 140.632C474.193 139.736 472.785 139.288 470.993 139.288C469.286 139.288 467.772 139.757 466.449 140.696C465.169 141.635 464.23 142.872 463.633 144.408L455.953 140.76C456.636 138.797 457.724 137.112 459.217 135.704C460.71 134.296 462.502 133.208 464.593 132.44C466.684 131.672 468.966 131.288 471.441 131.288C474.385 131.288 476.988 131.821 479.249 132.888C481.51 133.955 483.26 135.448 484.497 137.368C485.777 139.245 486.417 141.443 486.417 143.96V167H477.457V161.368L479.633 160.984C478.609 162.52 477.478 163.8 476.241 164.824C475.004 165.805 473.617 166.531 472.081 167C470.545 167.512 468.838 167.768 466.961 167.768ZM504.958 179.8V132.056H513.918V138.712L513.086 136.792C514.238 135.043 515.795 133.699 517.758 132.76C519.763 131.779 522.046 131.288 524.606 131.288C527.934 131.288 530.942 132.099 533.63 133.72C536.318 135.341 538.451 137.539 540.03 140.312C541.608 143.043 542.398 146.115 542.398 149.528C542.398 152.899 541.608 155.971 540.03 158.744C538.494 161.517 536.382 163.715 533.694 165.336C531.006 166.957 527.955 167.768 524.542 167.768C522.152 167.768 519.934 167.341 517.885 166.488C515.88 165.592 514.259 164.291 513.022 162.584L514.558 160.6V179.8H504.958ZM523.39 159.128C525.182 159.128 526.76 158.723 528.126 157.912C529.491 157.101 530.558 155.971 531.326 154.52C532.094 153.069 532.478 151.405 532.478 149.528C532.478 147.651 532.094 146.008 531.326 144.6C530.558 143.149 529.491 142.019 528.126 141.208C526.76 140.355 525.182 139.928 523.39 139.928C521.683 139.928 520.147 140.333 518.782 141.144C517.459 141.955 516.414 143.085 515.646 144.536C514.92 145.987 514.558 147.651 514.558 149.528C514.558 151.405 514.92 153.069 515.646 154.52C516.414 155.971 517.459 157.101 518.782 157.912C520.147 158.723 521.683 159.128 523.39 159.128ZM548.02 167V132.056H556.98V140.44L556.34 139.224C557.108 136.28 558.367 134.296 560.116 133.272C561.908 132.205 564.02 131.672 566.452 131.672H568.5V139.992H565.492C563.145 139.992 561.247 140.717 559.796 142.168C558.345 143.576 557.62 145.581 557.62 148.184V167H548.02ZM590.052 167.768C586.596 167.768 583.438 166.979 580.58 165.4C577.764 163.821 575.502 161.667 573.796 158.936C572.132 156.163 571.299 153.027 571.299 149.528C571.299 145.987 572.132 142.851 573.796 140.12C575.502 137.389 577.764 135.235 580.58 133.656C583.438 132.077 586.596 131.288 590.052 131.288C593.508 131.288 596.644 132.077 599.46 133.656C602.276 135.235 604.516 137.389 606.18 140.12C607.886 142.851 608.74 145.987 608.74 149.528C608.74 153.027 607.886 156.163 606.18 158.936C604.516 161.667 602.276 163.821 599.46 165.4C596.644 166.979 593.508 167.768 590.052 167.768ZM590.052 159.128C591.801 159.128 593.316 158.723 594.596 157.912C595.918 157.101 596.942 155.971 597.668 154.52C598.436 153.069 598.82 151.405 598.82 149.528C598.82 147.651 598.436 146.008 597.668 144.6C596.942 143.149 595.918 142.019 594.596 141.208C593.316 140.355 591.801 139.928 590.052 139.928C588.302 139.928 586.766 140.355 585.444 141.208C584.121 142.019 583.076 143.149 582.308 144.6C581.582 146.008 581.22 147.651 581.22 149.528C581.22 151.405 581.582 153.069 582.308 154.52C583.076 155.971 584.121 157.101 585.444 157.912C586.766 158.723 588.302 159.128 590.052 159.128ZM610.171 181.208C609.531 181.208 608.912 181.165 608.315 181.08C607.675 181.037 607.142 180.973 606.715 180.888V172.696C607.44 172.824 608.166 172.888 608.891 172.888C610.726 172.888 612.091 172.504 612.987 171.736C613.926 170.968 614.395 169.816 614.395 168.28V132.056H623.995V168.28C623.995 171.011 623.44 173.336 622.331 175.256C621.264 177.219 619.686 178.691 617.595 179.672C615.547 180.696 613.072 181.208 610.171 181.208ZM614.395 128.92V119.32H623.995V128.92H614.395ZM647.852 167.768C644.14 167.768 640.919 166.957 638.188 165.336C635.457 163.672 633.345 161.453 631.852 158.68C630.359 155.907 629.612 152.835 629.612 149.464C629.612 145.965 630.38 142.851 631.916 140.12C633.495 137.389 635.607 135.235 638.252 133.656C640.897 132.077 643.884 131.288 647.212 131.288C649.985 131.288 652.439 131.736 654.572 132.632C656.705 133.485 658.497 134.701 659.948 136.28C661.441 137.859 662.572 139.693 663.34 141.784C664.108 143.832 664.492 146.072 664.492 148.504C664.492 149.187 664.449 149.869 664.364 150.552C664.321 151.192 664.215 151.747 664.044 152.216H637.868V145.176H658.604L654.06 148.504C654.487 146.669 654.465 145.048 653.996 143.64C653.527 142.189 652.695 141.059 651.5 140.248C650.348 139.395 648.919 138.968 647.212 138.968C645.548 138.968 644.119 139.373 642.924 140.184C641.729 140.995 640.833 142.189 640.236 143.768C639.639 145.347 639.404 147.267 639.532 149.528C639.361 151.491 639.596 153.219 640.236 154.712C640.876 156.205 641.857 157.379 643.18 158.232C644.503 159.043 646.103 159.448 647.98 159.448C649.687 159.448 651.137 159.107 652.332 158.424C653.569 157.741 654.529 156.803 655.212 155.608L662.892 159.256C662.209 160.963 661.121 162.456 659.628 163.736C658.177 165.016 656.449 166.019 654.444 166.744C652.439 167.427 650.241 167.768 647.852 167.768ZM687.297 167.768C683.798 167.768 680.641 166.979 677.825 165.4C675.052 163.779 672.833 161.581 671.169 158.808C669.548 156.035 668.737 152.92 668.737 149.464C668.737 146.008 669.548 142.915 671.169 140.184C672.79 137.411 675.009 135.235 677.825 133.656C680.641 132.077 683.798 131.288 687.297 131.288C689.9 131.288 692.31 131.736 694.529 132.632C696.748 133.528 698.646 134.787 700.225 136.408C701.804 137.987 702.934 139.864 703.617 142.04L695.297 145.624C694.7 143.875 693.676 142.488 692.225 141.464C690.817 140.44 689.174 139.928 687.297 139.928C685.633 139.928 684.14 140.333 682.817 141.144C681.537 141.955 680.513 143.085 679.745 144.536C679.02 145.987 678.657 147.651 678.657 149.528C678.657 151.405 679.02 153.069 679.745 154.52C680.513 155.971 681.537 157.101 682.817 157.912C684.14 158.723 685.633 159.128 687.297 159.128C689.217 159.128 690.881 158.616 692.289 157.592C693.697 156.568 694.7 155.181 695.297 153.432L703.617 157.08C702.977 159.128 701.868 160.963 700.289 162.584C698.71 164.205 696.812 165.485 694.593 166.424C692.374 167.32 689.942 167.768 687.297 167.768ZM726.102 167.384C721.878 167.384 718.593 166.253 716.246 163.992C713.942 161.688 712.79 158.488 712.79 154.392V140.376H706.902V132.056H707.222C709.014 132.056 710.379 131.608 711.318 130.712C712.299 129.816 712.79 128.472 712.79 126.68V124.12H722.39V132.056H730.582V140.376H722.39V153.752C722.39 154.947 722.603 155.949 723.03 156.76C723.457 157.528 724.118 158.104 725.014 158.488C725.91 158.872 727.019 159.064 728.342 159.064C728.641 159.064 728.982 159.043 729.366 159C729.75 158.957 730.155 158.915 730.582 158.872V167C729.942 167.085 729.217 167.171 728.406 167.256C727.595 167.341 726.827 167.384 726.102 167.384ZM747.708 167V132.056H757.308V167H747.708ZM747.708 128.92V119.32H757.308V128.92H747.708ZM764.333 167V132.056H773.293V138.968L772.781 137.432C773.591 135.341 774.893 133.805 776.685 132.824C778.519 131.8 780.653 131.288 783.085 131.288C785.73 131.288 788.034 131.843 789.997 132.952C792.002 134.061 793.559 135.619 794.669 137.624C795.778 139.587 796.333 141.891 796.333 144.536V167H786.733V146.584C786.733 145.219 786.455 144.045 785.901 143.064C785.389 142.083 784.642 141.315 783.661 140.76C782.722 140.205 781.613 139.928 780.333 139.928C779.095 139.928 777.986 140.205 777.005 140.76C776.023 141.315 775.255 142.083 774.701 143.064C774.189 144.045 773.933 145.219 773.933 146.584V167H764.333ZM814.145 167V132.056H823.105V140.568L822.145 139.16C822.657 136.472 823.894 134.488 825.857 133.208C827.82 131.928 830.166 131.288 832.897 131.288C835.798 131.288 838.337 132.035 840.513 133.528C842.732 134.979 844.118 136.941 844.673 139.416L841.921 139.672C843.073 136.813 844.716 134.701 846.849 133.336C848.982 131.971 851.478 131.288 854.337 131.288C856.854 131.288 859.073 131.843 860.993 132.952C862.956 134.061 864.492 135.619 865.601 137.624C866.71 139.587 867.265 141.891 867.265 144.536V167H857.665V146.584C857.665 145.219 857.409 144.045 856.897 143.064C856.428 142.083 855.745 141.315 854.849 140.76C853.953 140.205 852.865 139.928 851.585 139.928C850.348 139.928 849.26 140.205 848.321 140.76C847.425 141.315 846.721 142.083 846.209 143.064C845.74 144.045 845.505 145.219 845.505 146.584V167H835.905V146.584C835.905 145.219 835.649 144.045 835.137 143.064C834.668 142.083 833.985 141.315 833.089 140.76C832.193 140.205 831.105 139.928 829.825 139.928C828.588 139.928 827.5 140.205 826.561 140.76C825.665 141.315 824.961 142.083 824.449 143.064C823.98 144.045 823.745 145.219 823.745 146.584V167H814.145ZM873.583 167V132.056H883.183V167H873.583ZM873.583 128.92V119.32H883.183V128.92H873.583ZM890.208 167V132.056H899.168V138.968L898.656 137.432C899.466 135.341 900.768 133.805 902.56 132.824C904.394 131.8 906.528 131.288 908.96 131.288C911.605 131.288 913.909 131.843 915.872 132.952C917.877 134.061 919.434 135.619 920.544 137.624C921.653 139.587 922.208 141.891 922.208 144.536V167H912.608V146.584C912.608 145.219 912.33 144.045 911.776 143.064C911.264 142.083 910.517 141.315 909.536 140.76C908.597 140.205 907.488 139.928 906.208 139.928C904.97 139.928 903.861 140.205 902.88 140.76C901.898 141.315 901.13 142.083 900.576 143.064C900.064 144.045 899.808 145.219 899.808 146.584V167H890.208ZM944.968 167.768C941.555 167.768 938.504 166.957 935.816 165.336C933.128 163.715 930.995 161.517 929.416 158.744C927.88 155.971 927.112 152.899 927.112 149.528C927.112 146.115 927.901 143.043 929.48 140.312C931.059 137.539 933.192 135.341 935.88 133.72C938.568 132.099 941.576 131.288 944.904 131.288C947.464 131.288 949.725 131.779 951.688 132.76C953.693 133.699 955.272 135.043 956.424 136.792L954.952 138.712V118.552H964.552V167H955.592V160.6L956.488 162.584C955.293 164.291 953.672 165.592 951.624 166.488C949.576 167.341 947.357 167.768 944.968 167.768ZM946.12 159.128C947.869 159.128 949.405 158.723 950.728 157.912C952.051 157.101 953.075 155.971 953.8 154.52C954.568 153.069 954.952 151.405 954.952 149.528C954.952 147.651 954.568 145.987 953.8 144.536C953.075 143.085 952.051 141.955 950.728 141.144C949.405 140.333 947.869 139.928 946.12 139.928C944.371 139.928 942.792 140.355 941.384 141.208C940.019 142.019 938.952 143.149 938.184 144.6C937.416 146.008 937.032 147.651 937.032 149.528C937.032 151.405 937.416 153.069 938.184 154.52C938.952 155.971 940.019 157.101 941.384 157.912C942.792 158.723 944.371 159.128 946.12 159.128ZM982.463 152.28V150.808C982.463 148.931 982.719 147.288 983.231 145.88C983.785 144.429 984.489 143.149 985.343 142.04C986.196 140.931 987.071 139.928 987.967 139.032C989.204 137.795 990.313 136.685 991.295 135.704C992.276 134.68 992.767 133.507 992.767 132.184C992.767 131.288 992.553 130.499 992.127 129.816C991.7 129.091 991.06 128.536 990.207 128.152C989.396 127.725 988.372 127.512 987.135 127.512C985.556 127.512 984.169 128.003 982.975 128.984C981.823 129.923 981.119 131.203 980.863 132.824L971.967 130.584C972.351 128.195 973.225 126.104 974.591 124.312C975.999 122.52 977.791 121.112 979.967 120.088C982.185 119.064 984.66 118.552 987.391 118.552C990.719 118.552 993.513 119.213 995.775 120.536C998.079 121.816 999.807 123.48 1000.96 125.528C1002.11 127.533 1002.69 129.667 1002.69 131.928C1002.69 133.549 1002.37 135 1001.73 136.28C1001.13 137.517 1000.36 138.669 999.423 139.736C998.484 140.76 997.503 141.763 996.479 142.744C995.156 143.981 993.983 145.283 992.959 146.648C991.935 148.013 991.423 149.613 991.423 151.448V152.28H982.463ZM982.207 167V157.4H991.807V167H982.207ZM370.161 248V200.32H380.082V239.36H400.242V248H370.161ZM421.29 248.768C417.578 248.768 414.356 247.957 411.626 246.336C408.895 244.672 406.783 242.453 405.29 239.68C403.796 236.907 403.049 233.835 403.049 230.464C403.049 226.965 403.818 223.851 405.354 221.12C406.932 218.389 409.044 216.235 411.69 214.656C414.335 213.077 417.322 212.288 420.65 212.288C423.423 212.288 425.876 212.736 428.01 213.632C430.143 214.485 431.935 215.701 433.386 217.28C434.879 218.859 436.01 220.693 436.778 222.784C437.546 224.832 437.93 227.072 437.93 229.504C437.93 230.187 437.887 230.869 437.802 231.552C437.759 232.192 437.652 232.747 437.482 233.216H411.306V226.176H432.042L427.498 229.504C427.924 227.669 427.903 226.048 427.434 224.64C426.964 223.189 426.132 222.059 424.938 221.248C423.786 220.395 422.356 219.968 420.65 219.968C418.986 219.968 417.556 220.373 416.362 221.184C415.167 221.995 414.271 223.189 413.674 224.768C413.076 226.347 412.842 228.267 412.97 230.528C412.799 232.491 413.034 234.219 413.674 235.712C414.314 237.205 415.295 238.379 416.618 239.232C417.94 240.043 419.54 240.448 421.418 240.448C423.124 240.448 424.575 240.107 425.77 239.424C427.007 238.741 427.967 237.803 428.65 236.608L436.33 240.256C435.647 241.963 434.559 243.456 433.066 244.736C431.615 246.016 429.887 247.019 427.882 247.744C425.876 248.427 423.679 248.768 421.29 248.768ZM460.415 248.384C456.191 248.384 452.905 247.253 450.559 244.992C448.255 242.688 447.103 239.488 447.103 235.392V221.376H441.215V213.056H441.535C443.327 213.056 444.692 212.608 445.631 211.712C446.612 210.816 447.103 209.472 447.103 207.68V205.12H456.703V213.056H464.895V221.376H456.703V234.752C456.703 235.947 456.916 236.949 457.343 237.76C457.769 238.528 458.431 239.104 459.327 239.488C460.223 239.872 461.332 240.064 462.655 240.064C462.953 240.064 463.295 240.043 463.679 240C464.063 239.957 464.468 239.915 464.895 239.872V248C464.255 248.085 463.529 248.171 462.719 248.256C461.908 248.341 461.14 248.384 460.415 248.384ZM474.04 219.84V215.04C475.533 214.699 476.749 214.08 477.688 213.184C478.669 212.245 479.309 211.157 479.608 209.92H475.32V200.32H484.92V205.888C484.92 209.643 484.003 212.736 482.168 215.168C480.333 217.557 477.624 219.115 474.04 219.84ZM508.904 248.768C505.064 248.768 501.714 247.872 498.856 246.08C496.04 244.245 494.12 241.792 493.096 238.72L500.135 235.392C501.032 237.269 502.248 238.741 503.784 239.808C505.32 240.875 507.026 241.408 508.904 241.408C510.269 241.408 511.314 241.131 512.04 240.576C512.765 240.021 513.128 239.253 513.128 238.272C513.128 237.76 513 237.333 512.744 236.992C512.488 236.608 512.104 236.267 511.592 235.968C511.08 235.669 510.44 235.413 509.672 235.2L503.72 233.536C500.861 232.725 498.664 231.424 497.128 229.632C495.592 227.797 494.824 225.643 494.824 223.168C494.824 220.992 495.378 219.093 496.488 217.472C497.597 215.851 499.154 214.592 501.16 213.696C503.165 212.757 505.469 212.288 508.072 212.288C511.485 212.288 514.472 213.099 517.032 214.72C519.634 216.299 521.469 218.539 522.536 221.44L515.432 224.768C514.92 223.317 513.981 222.165 512.616 221.312C511.293 220.416 509.778 219.968 508.072 219.968C506.834 219.968 505.853 220.224 505.128 220.736C504.445 221.248 504.104 221.952 504.104 222.848C504.104 223.317 504.232 223.744 504.488 224.128C504.744 224.512 505.149 224.853 505.704 225.152C506.301 225.451 507.026 225.728 507.88 225.984L513.448 227.648C516.349 228.501 518.568 229.803 520.104 231.552C521.64 233.259 522.408 235.371 522.408 237.888C522.408 240.064 521.832 241.963 520.68 243.584C519.57 245.205 518.013 246.485 516.008 247.424C514.002 248.32 511.634 248.768 508.904 248.768ZM556.797 262.08C554.109 262.08 551.613 261.632 549.309 260.736C547.005 259.84 545.021 258.581 543.357 256.96C541.736 255.381 540.562 253.504 539.837 251.328L548.733 248.192C549.202 249.813 550.162 251.093 551.613 252.032C553.064 252.971 554.792 253.44 556.797 253.44C558.376 253.44 559.741 253.141 560.893 252.544C562.045 251.989 562.92 251.157 563.517 250.048C564.157 248.939 564.477 247.637 564.477 246.144V238.144L566.333 240.448C565.138 242.411 563.602 243.883 561.725 244.864C559.848 245.803 557.65 246.272 555.133 246.272C551.89 246.272 548.989 245.547 546.429 244.096C543.869 242.603 541.864 240.576 540.413 238.016C538.962 235.413 538.237 232.469 538.237 229.184C538.237 225.899 538.962 222.997 540.413 220.48C541.864 217.92 543.848 215.915 546.365 214.464C548.882 213.013 551.741 212.288 554.941 212.288C557.458 212.288 559.656 212.8 561.533 213.824C563.41 214.805 565.01 216.32 566.333 218.368L565.117 220.672V213.056H574.077V246.144C574.077 249.216 573.33 251.947 571.837 254.336C570.344 256.768 568.296 258.667 565.693 260.032C563.133 261.397 560.168 262.08 556.797 262.08ZM556.477 237.568C558.098 237.568 559.506 237.227 560.701 236.544C561.896 235.861 562.813 234.901 563.453 233.664C564.136 232.427 564.477 230.976 564.477 229.312C564.477 227.648 564.136 226.197 563.453 224.96C562.77 223.68 561.832 222.699 560.637 222.016C559.442 221.291 558.056 220.928 556.477 220.928C554.856 220.928 553.405 221.291 552.125 222.016C550.888 222.699 549.906 223.68 549.181 224.96C548.498 226.197 548.157 227.648 548.157 229.312C548.157 230.933 548.498 232.363 549.181 233.6C549.906 234.837 550.888 235.819 552.125 236.544C553.405 237.227 554.856 237.568 556.477 237.568ZM597.977 248.768C594.265 248.768 591.044 247.957 588.313 246.336C585.582 244.672 583.47 242.453 581.977 239.68C580.484 236.907 579.737 233.835 579.737 230.464C579.737 226.965 580.505 223.851 582.041 221.12C583.62 218.389 585.732 216.235 588.377 214.656C591.022 213.077 594.009 212.288 597.337 212.288C600.11 212.288 602.564 212.736 604.697 213.632C606.83 214.485 608.622 215.701 610.073 217.28C611.566 218.859 612.697 220.693 613.465 222.784C614.233 224.832 614.617 227.072 614.617 229.504C614.617 230.187 614.574 230.869 614.489 231.552C614.446 232.192 614.34 232.747 614.169 233.216H587.993V226.176H608.729L604.185 229.504C604.612 227.669 604.59 226.048 604.121 224.64C603.652 223.189 602.82 222.059 601.625 221.248C600.473 220.395 599.044 219.968 597.337 219.968C595.673 219.968 594.244 220.373 593.049 221.184C591.854 221.995 590.958 223.189 590.361 224.768C589.764 226.347 589.529 228.267 589.657 230.528C589.486 232.491 589.721 234.219 590.361 235.712C591.001 237.205 591.982 238.379 593.305 239.232C594.628 240.043 596.228 240.448 598.105 240.448C599.812 240.448 601.262 240.107 602.457 239.424C603.694 238.741 604.654 237.803 605.337 236.608L613.017 240.256C612.334 241.963 611.246 243.456 609.753 244.736C608.302 246.016 606.574 247.019 604.569 247.744C602.564 248.427 600.366 248.768 597.977 248.768ZM637.102 248.384C632.878 248.384 629.593 247.253 627.246 244.992C624.942 242.688 623.79 239.488 623.79 235.392V221.376H617.902V213.056H618.222C620.014 213.056 621.379 212.608 622.318 211.712C623.299 210.816 623.79 209.472 623.79 207.68V205.12H633.39V213.056H641.582V221.376H633.39V234.752C633.39 235.947 633.603 236.949 634.03 237.76C634.457 238.528 635.118 239.104 636.014 239.488C636.91 239.872 638.019 240.064 639.342 240.064C639.641 240.064 639.982 240.043 640.366 240C640.75 239.957 641.155 239.915 641.582 239.872V248C640.942 248.085 640.217 248.171 639.406 248.256C638.595 248.341 637.827 248.384 637.102 248.384ZM675.54 248.384C671.316 248.384 668.03 247.253 665.684 244.992C663.38 242.688 662.228 239.488 662.228 235.392V221.376H656.34V213.056H656.66C658.452 213.056 659.817 212.608 660.756 211.712C661.737 210.816 662.228 209.472 662.228 207.68V205.12H671.828V213.056H680.02V221.376H671.828V234.752C671.828 235.947 672.041 236.949 672.468 237.76C672.894 238.528 673.556 239.104 674.452 239.488C675.348 239.872 676.457 240.064 677.78 240.064C678.078 240.064 678.42 240.043 678.804 240C679.188 239.957 679.593 239.915 680.02 239.872V248C679.38 248.085 678.654 248.171 677.844 248.256C677.033 248.341 676.265 248.384 675.54 248.384ZM702.989 248.768C699.533 248.768 696.376 247.979 693.517 246.4C690.701 244.821 688.44 242.667 686.733 239.936C685.069 237.163 684.237 234.027 684.237 230.528C684.237 226.987 685.069 223.851 686.733 221.12C688.44 218.389 690.701 216.235 693.517 214.656C696.376 213.077 699.533 212.288 702.989 212.288C706.445 212.288 709.581 213.077 712.397 214.656C715.213 216.235 717.453 218.389 719.117 221.12C720.824 223.851 721.677 226.987 721.677 230.528C721.677 234.027 720.824 237.163 719.117 239.936C717.453 242.667 715.213 244.821 712.397 246.4C709.581 247.979 706.445 248.768 702.989 248.768ZM702.989 240.128C704.738 240.128 706.253 239.723 707.533 238.912C708.856 238.101 709.88 236.971 710.605 235.52C711.373 234.069 711.757 232.405 711.757 230.528C711.757 228.651 711.373 227.008 710.605 225.6C709.88 224.149 708.856 223.019 707.533 222.208C706.253 221.355 704.738 220.928 702.989 220.928C701.24 220.928 699.704 221.355 698.381 222.208C697.058 223.019 696.013 224.149 695.245 225.6C694.52 227.008 694.157 228.651 694.157 230.528C694.157 232.405 694.52 234.069 695.245 235.52C696.013 236.971 697.058 238.101 698.381 238.912C699.704 239.723 701.24 240.128 702.989 240.128ZM748.049 248L736.017 213.056H745.937L754.385 238.272L750.929 238.208L760.337 213.056H768.657L778.001 238.208L774.545 238.272L782.993 213.056H792.977L780.881 248H772.561L762.833 220.992H766.161L756.369 248H748.049ZM813.927 248.768C810.471 248.768 807.313 247.979 804.455 246.4C801.639 244.821 799.377 242.667 797.671 239.936C796.007 237.163 795.174 234.027 795.174 230.528C795.174 226.987 796.007 223.851 797.671 221.12C799.377 218.389 801.639 216.235 804.455 214.656C807.313 213.077 810.471 212.288 813.927 212.288C817.383 212.288 820.519 213.077 823.335 214.656C826.151 216.235 828.391 218.389 830.055 221.12C831.761 223.851 832.615 226.987 832.615 230.528C832.615 234.027 831.761 237.163 830.055 239.936C828.391 242.667 826.151 244.821 823.335 246.4C820.519 247.979 817.383 248.768 813.927 248.768ZM813.927 240.128C815.676 240.128 817.191 239.723 818.471 238.912C819.793 238.101 820.817 236.971 821.543 235.52C822.311 234.069 822.695 232.405 822.695 230.528C822.695 228.651 822.311 227.008 821.543 225.6C820.817 224.149 819.793 223.019 818.471 222.208C817.191 221.355 815.676 220.928 813.927 220.928C812.177 220.928 810.641 221.355 809.319 222.208C807.996 223.019 806.951 224.149 806.183 225.6C805.457 227.008 805.095 228.651 805.095 230.528C805.095 232.405 805.457 234.069 806.183 235.52C806.951 236.971 807.996 238.101 809.319 238.912C810.641 239.723 812.177 240.128 813.927 240.128ZM838.27 248V213.056H847.23V221.44L846.59 220.224C847.358 217.28 848.617 215.296 850.366 214.272C852.158 213.205 854.27 212.672 856.702 212.672H858.75V220.992H855.742C853.395 220.992 851.497 221.717 850.046 223.168C848.595 224.576 847.87 226.581 847.87 229.184V248H838.27ZM862.958 248V199.552H872.558V230.592L868.974 229.44L884.398 213.056H896.238L883.566 227.136L896.174 248H885.294L874.734 230.272L880.302 228.864L869.614 240.512L872.558 234.944V248H862.958ZM905.194 248V238.4H914.794V248H905.194Z" fill="white"/>
<rect x="553" y="326" width="183" height="60" rx="6" fill="url(#paint2_linear_1_569)"/>
<path d="M599.752 363.192C598.899 363.192 598.109 363.037 597.384 362.728C596.669 362.419 596.04 361.987 595.496 361.432C594.963 360.877 594.547 360.227 594.248 359.48C593.949 358.733 593.8 357.917 593.8 357.032C593.8 356.147 593.944 355.331 594.232 354.584C594.531 353.827 594.947 353.176 595.48 352.632C596.024 352.077 596.659 351.651 597.384 351.352C598.109 351.043 598.899 350.888 599.752 350.888C600.605 350.888 601.368 351.032 602.04 351.32C602.723 351.608 603.299 351.992 603.768 352.472C604.237 352.941 604.573 353.459 604.776 354.024L602.824 354.936C602.6 354.339 602.221 353.848 601.688 353.464C601.155 353.069 600.509 352.872 599.752 352.872C599.005 352.872 598.344 353.048 597.768 353.4C597.203 353.752 596.76 354.237 596.44 354.856C596.131 355.475 595.976 356.2 595.976 357.032C595.976 357.864 596.131 358.595 596.44 359.224C596.76 359.843 597.203 360.328 597.768 360.68C598.344 361.032 599.005 361.208 599.752 361.208C600.509 361.208 601.155 361.016 601.688 360.632C602.221 360.237 602.6 359.741 602.824 359.144L604.776 360.056C604.573 360.621 604.237 361.144 603.768 361.624C603.299 362.093 602.723 362.472 602.04 362.76C601.368 363.048 600.605 363.192 599.752 363.192ZM612.415 363.192C611.54 363.192 610.724 363.037 609.967 362.728C609.209 362.419 608.548 361.987 607.983 361.432C607.417 360.877 606.975 360.227 606.655 359.48C606.345 358.723 606.191 357.907 606.191 357.032C606.191 356.147 606.345 355.331 606.655 354.584C606.964 353.837 607.401 353.187 607.967 352.632C608.532 352.077 609.193 351.651 609.951 351.352C610.708 351.043 611.529 350.888 612.415 350.888C613.3 350.888 614.121 351.043 614.879 351.352C615.636 351.661 616.297 352.093 616.863 352.648C617.428 353.192 617.865 353.837 618.175 354.584C618.495 355.331 618.655 356.147 618.655 357.032C618.655 357.907 618.495 358.723 618.175 359.48C617.855 360.227 617.412 360.877 616.847 361.432C616.281 361.987 615.62 362.419 614.863 362.728C614.116 363.037 613.3 363.192 612.415 363.192ZM612.415 361.208C613.001 361.208 613.54 361.107 614.031 360.904C614.521 360.691 614.948 360.397 615.311 360.024C615.684 359.651 615.967 359.208 616.159 358.696C616.361 358.184 616.463 357.629 616.463 357.032C616.463 356.435 616.361 355.885 616.159 355.384C615.967 354.872 615.684 354.429 615.311 354.056C614.948 353.672 614.521 353.379 614.031 353.176C613.54 352.973 613.001 352.872 612.415 352.872C611.839 352.872 611.305 352.973 610.815 353.176C610.324 353.379 609.892 353.672 609.519 354.056C609.156 354.429 608.873 354.872 608.671 355.384C608.468 355.885 608.367 356.435 608.367 357.032C608.367 357.629 608.468 358.184 608.671 358.696C608.873 359.208 609.156 359.651 609.519 360.024C609.892 360.397 610.324 360.691 610.815 360.904C611.305 361.107 611.839 361.208 612.415 361.208ZM620.59 363V351.08H622.286L628.845 359.912L627.966 360.088V351.08H630.142V363H628.43L621.966 354.104L622.766 353.928V363H620.59ZM634.561 363V353H631.473V351.08H639.793V353H636.753V363H634.561ZM639.348 363L643.46 351.08H646.276L650.388 363H648.02L647.172 360.44H642.564L641.7 363H639.348ZM643.188 358.52H646.548L644.564 352.584H645.172L643.188 358.52ZM656.83 363.192C655.977 363.192 655.187 363.037 654.462 362.728C653.747 362.419 653.118 361.987 652.574 361.432C652.041 360.877 651.625 360.227 651.326 359.48C651.027 358.733 650.878 357.917 650.878 357.032C650.878 356.147 651.022 355.331 651.31 354.584C651.609 353.827 652.025 353.176 652.558 352.632C653.102 352.077 653.737 351.651 654.462 351.352C655.187 351.043 655.977 350.888 656.83 350.888C657.683 350.888 658.446 351.032 659.118 351.32C659.801 351.608 660.377 351.992 660.846 352.472C661.315 352.941 661.651 353.459 661.854 354.024L659.902 354.936C659.678 354.339 659.299 353.848 658.766 353.464C658.233 353.069 657.587 352.872 656.83 352.872C656.083 352.872 655.422 353.048 654.846 353.4C654.281 353.752 653.838 354.237 653.518 354.856C653.209 355.475 653.054 356.2 653.054 357.032C653.054 357.864 653.209 358.595 653.518 359.224C653.838 359.843 654.281 360.328 654.846 360.68C655.422 361.032 656.083 361.208 656.83 361.208C657.587 361.208 658.233 361.016 658.766 360.632C659.299 360.237 659.678 359.741 659.902 359.144L661.854 360.056C661.651 360.621 661.315 361.144 660.846 361.624C660.377 362.093 659.801 362.472 659.118 362.76C658.446 363.048 657.683 363.192 656.83 363.192ZM665.733 363V353H662.645V351.08H670.965V353H667.925V363H665.733ZM679.728 363.192C678.811 363.192 677.995 363 677.28 362.616C676.576 362.232 676.022 361.704 675.616 361.032C675.211 360.36 675.008 359.597 675.008 358.744V351.08H677.184V358.632C677.184 359.123 677.291 359.565 677.504 359.96C677.728 360.355 678.032 360.664 678.416 360.888C678.8 361.101 679.238 361.208 679.728 361.208C680.23 361.208 680.667 361.101 681.04 360.888C681.424 360.664 681.723 360.355 681.936 359.96C682.16 359.565 682.272 359.123 682.272 358.632V351.08H684.448V358.744C684.448 359.597 684.246 360.36 683.84 361.032C683.435 361.704 682.875 362.232 682.16 362.616C681.456 363 680.646 363.192 679.728 363.192ZM690.877 363.192C690.119 363.192 689.415 363.053 688.765 362.776C688.125 362.499 687.57 362.115 687.101 361.624C686.642 361.123 686.306 360.541 686.093 359.88L687.901 359.096C688.189 359.779 688.605 360.317 689.149 360.712C689.693 361.096 690.306 361.288 690.989 361.288C691.373 361.288 691.703 361.229 691.981 361.112C692.269 360.984 692.487 360.813 692.637 360.6C692.797 360.387 692.877 360.131 692.877 359.832C692.877 359.48 692.77 359.192 692.557 358.968C692.354 358.733 692.045 358.552 691.629 358.424L689.341 357.688C688.413 357.4 687.714 356.968 687.245 356.392C686.775 355.816 686.541 355.139 686.541 354.36C686.541 353.677 686.706 353.075 687.037 352.552C687.378 352.029 687.847 351.624 688.445 351.336C689.053 351.037 689.746 350.888 690.525 350.888C691.239 350.888 691.895 351.016 692.493 351.272C693.09 351.517 693.602 351.864 694.029 352.312C694.466 352.749 694.791 353.267 695.005 353.864L693.213 354.664C692.978 354.067 692.626 353.608 692.157 353.288C691.687 352.957 691.143 352.792 690.525 352.792C690.162 352.792 689.842 352.856 689.565 352.984C689.287 353.101 689.069 353.272 688.909 353.496C688.759 353.709 688.685 353.965 688.685 354.264C688.685 354.595 688.791 354.888 689.005 355.144C689.218 355.389 689.543 355.581 689.981 355.72L692.173 356.408C693.122 356.717 693.831 357.144 694.301 357.688C694.781 358.232 695.021 358.904 695.021 359.704C695.021 360.387 694.845 360.989 694.493 361.512C694.141 362.035 693.655 362.445 693.037 362.744C692.418 363.043 691.698 363.192 690.877 363.192Z" fill="white"/>
<defs>
<filter id="filter0_f_1_569" x="-200" y="-155" width="1101" height="1101" filterUnits="userSpaceOnUse" color-interpolation-filters="sRGB">
<feFlood flood-opacity="0" result="BackgroundImageFix"/>
<feBlend mode="normal" in="SourceGraphic" in2="BackgroundImageFix" result="shape"/>
<feGaussianBlur stdDeviation="150" result="effect1_foregroundBlur_1_569"/>
</filter>
<filter id="filter1_f_1_569" x="489" y="-475" width="1101" height="1101" filterUnits="userSpaceOnUse" color-interpolation-filters="sRGB">
<feFlood flood-opacity="0" result="BackgroundImageFix"/>
<feBlend mode="normal" in="SourceGraphic" in2="BackgroundImageFix" result="shape"/>
<feGaussianBlur stdDeviation="150" result="effect1_foregroundBlur_1_569"/>
</filter>
<linearGradient id="paint0_linear_1_569" x1="100" y1="145" x2="908.26" y2="554.719" gradientUnits="userSpaceOnUse">
<stop stop-color="#FF8A00"/>
<stop offset="1" stop-color="#E8112B"/>
</linearGradient>
<linearGradient id="paint1_linear_1_569" x1="789" y1="-175" x2="1391.06" y2="119.134" gradientUnits="userSpaceOnUse">
<stop stop-color="#5FB7FB"/>
<stop offset="1" stop-color="#1D51B0"/>
</linearGradient>
<linearGradient id="paint2_linear_1_569" x1="553" y1="326" x2="662.455" y2="495.228" gradientUnits="userSpaceOnUse">
<stop stop-color="#FF8A00"/>
<stop offset="1" stop-color="#E8112B"/>
</linearGradient>
</defs>
</svg>
