<svg width="408" height="624" viewBox="0 0 408 624" fill="none" xmlns="http://www.w3.org/2000/svg">
<rect width="408" height="624" rx="12" fill="white" fill-opacity="0.03"/>
<rect x="0.5" y="0.5" width="407" height="623" rx="11.5" stroke="white" stroke-opacity="0.1"/>
<path d="M0 12C0 5.37258 5.37258 0 12 0H396C402.627 0 408 5.37258 408 12V152H0V12Z" fill="url(#paint0_linear_1_660)"/>
<g filter="url(#filter0_d_1_660)">
<rect x="50" y="40" width="72" height="72" rx="12" fill="white"/>
</g>
<path d="M143.66 65V50.1H149.92C150.813 50.1 151.58 50.26 152.22 50.58C152.873 50.9 153.373 51.3533 153.72 51.94C154.08 52.5133 154.26 53.2 154.26 54C154.26 54.7333 154.067 55.4 153.68 56C153.307 56.5867 152.753 57.0467 152.02 57.38L152 56.64C152.64 56.88 153.167 57.2 153.58 57.6C154.007 57.9867 154.327 58.44 154.54 58.96C154.753 59.4667 154.86 60.0067 154.86 60.58C154.86 61.9533 154.42 63.0333 153.54 63.82C152.66 64.6067 151.46 65 149.94 65H143.66ZM145.62 63.2H150.02C150.887 63.2 151.58 62.9667 152.1 62.5C152.62 62.0333 152.88 61.4 152.88 60.6C152.88 59.8 152.62 59.1667 152.1 58.7C151.58 58.22 150.887 57.98 150.02 57.98H145.62V63.2ZM145.62 56.22H149.88C150.6 56.22 151.18 56.0133 151.62 55.6C152.06 55.1733 152.28 54.6333 152.28 53.98C152.28 53.3 152.06 52.78 151.62 52.42C151.18 52.06 150.6 51.88 149.88 51.88H145.62V56.22ZM157.288 65V54.22H159.148V65H157.288ZM157.288 52.5V50.1H159.148V52.5H157.288ZM167.174 69.4C166.414 69.4 165.707 69.28 165.054 69.04C164.414 68.8 163.86 68.4667 163.394 68.04C162.94 67.6267 162.594 67.14 162.354 66.58L164.094 65.78C164.28 66.2867 164.634 66.7133 165.154 67.06C165.687 67.42 166.354 67.6 167.154 67.6C167.767 67.6 168.32 67.48 168.814 67.24C169.32 67.0133 169.72 66.6667 170.014 66.2C170.307 65.7467 170.454 65.1933 170.454 64.54V62.12L170.794 62.48C170.42 63.2133 169.88 63.7733 169.174 64.16C168.48 64.5467 167.714 64.74 166.874 64.74C165.86 64.74 164.954 64.5067 164.154 64.04C163.354 63.56 162.727 62.9133 162.274 62.1C161.82 61.2733 161.594 60.36 161.594 59.36C161.594 58.3467 161.82 57.4333 162.274 56.62C162.727 55.8067 163.347 55.1667 164.134 54.7C164.934 54.22 165.84 53.98 166.854 53.98C167.694 53.98 168.454 54.1733 169.134 54.56C169.827 54.9333 170.38 55.4533 170.794 56.12L170.514 56.62V54.22H172.334V64.54C172.334 65.4733 172.114 66.3067 171.674 67.04C171.234 67.7733 170.62 68.3467 169.834 68.76C169.06 69.1867 168.174 69.4 167.174 69.4ZM167.034 62.94C167.674 62.94 168.247 62.78 168.754 62.46C169.274 62.14 169.687 61.7133 169.994 61.18C170.3 60.6333 170.454 60.0267 170.454 59.36C170.454 58.7067 170.3 58.1067 169.994 57.56C169.687 57.0133 169.274 56.58 168.754 56.26C168.247 55.94 167.674 55.78 167.034 55.78C166.38 55.78 165.787 55.94 165.254 56.26C164.72 56.58 164.3 57.0133 163.994 57.56C163.7 58.0933 163.554 58.6933 163.554 59.36C163.554 60.0267 163.7 60.6333 163.994 61.18C164.3 61.7133 164.714 62.14 165.234 62.46C165.767 62.78 166.367 62.94 167.034 62.94ZM185.754 65.24C184.701 65.24 183.728 65.0533 182.834 64.68C181.954 64.2933 181.181 63.7533 180.514 63.06C179.861 62.3667 179.354 61.5533 178.994 60.62C178.634 59.6867 178.454 58.6667 178.454 57.56C178.454 56.44 178.634 55.4133 178.994 54.48C179.354 53.5467 179.861 52.7333 180.514 52.04C181.168 51.3467 181.941 50.8133 182.834 50.44C183.728 50.0533 184.701 49.86 185.754 49.86C186.781 49.86 187.701 50.04 188.514 50.4C189.341 50.76 190.034 51.2267 190.594 51.8C191.168 52.3733 191.574 52.9867 191.814 53.64L190.014 54.46C189.668 53.6333 189.128 52.9667 188.394 52.46C187.661 51.94 186.781 51.68 185.754 51.68C184.714 51.68 183.788 51.9267 182.974 52.42C182.174 52.9133 181.548 53.6 181.094 54.48C180.641 55.36 180.414 56.3867 180.414 57.56C180.414 58.72 180.641 59.74 181.094 60.62C181.548 61.5 182.174 62.1867 182.974 62.68C183.788 63.1733 184.714 63.42 185.754 63.42C186.781 63.42 187.661 63.1667 188.394 62.66C189.128 62.14 189.668 61.4667 190.014 60.64L191.814 61.46C191.574 62.1133 191.168 62.7267 190.594 63.3C190.034 63.8733 189.341 64.34 188.514 64.7C187.701 65.06 186.781 65.24 185.754 65.24ZM199.185 65.24C198.145 65.24 197.205 65 196.365 64.52C195.525 64.0267 194.858 63.3533 194.365 62.5C193.872 61.6467 193.625 60.68 193.625 59.6C193.625 58.52 193.865 57.56 194.345 56.72C194.838 55.88 195.505 55.2133 196.345 54.72C197.185 54.2267 198.132 53.98 199.185 53.98C200.225 53.98 201.165 54.2267 202.005 54.72C202.845 55.2 203.505 55.86 203.985 56.7C204.478 57.54 204.725 58.5067 204.725 59.6C204.725 60.6933 204.472 61.6667 203.965 62.52C203.458 63.36 202.785 64.0267 201.945 64.52C201.118 65 200.198 65.24 199.185 65.24ZM199.185 63.44C199.852 63.44 200.452 63.2733 200.985 62.94C201.532 62.6067 201.958 62.1467 202.265 61.56C202.585 60.9733 202.745 60.32 202.745 59.6C202.745 58.8667 202.585 58.22 202.265 57.66C201.958 57.0867 201.532 56.6333 200.985 56.3C200.452 55.9533 199.852 55.78 199.185 55.78C198.505 55.78 197.892 55.9533 197.345 56.3C196.812 56.6333 196.385 57.0867 196.065 57.66C195.745 58.22 195.585 58.8667 195.585 59.6C195.585 60.32 195.745 60.9733 196.065 61.56C196.385 62.1467 196.812 62.6067 197.345 62.94C197.892 63.2733 198.505 63.44 199.185 63.44ZM207.151 65V54.22H208.971V56.42L208.711 56.08C208.978 55.4 209.404 54.88 209.991 54.52C210.578 54.16 211.238 53.98 211.971 53.98C212.811 53.98 213.564 54.2133 214.231 54.68C214.911 55.1467 215.378 55.76 215.631 56.52L215.111 56.54C215.391 55.7 215.864 55.0667 216.531 54.64C217.198 54.2 217.938 53.98 218.751 53.98C219.498 53.98 220.171 54.1533 220.771 54.5C221.384 54.8467 221.871 55.3267 222.231 55.94C222.591 56.5533 222.771 57.2467 222.771 58.02V65H220.891V58.62C220.891 58.02 220.784 57.5133 220.571 57.1C220.358 56.6867 220.064 56.3667 219.691 56.14C219.331 55.9 218.904 55.78 218.411 55.78C217.931 55.78 217.498 55.9 217.111 56.14C216.738 56.3667 216.438 56.6933 216.211 57.12C215.998 57.5333 215.891 58.0333 215.891 58.62V65H214.011V58.62C214.011 58.02 213.904 57.5133 213.691 57.1C213.478 56.6867 213.184 56.3667 212.811 56.14C212.451 55.9 212.024 55.78 211.531 55.78C211.051 55.78 210.618 55.9 210.231 56.14C209.858 56.3667 209.558 56.6933 209.331 57.12C209.118 57.5333 209.011 58.0333 209.011 58.62V65H207.151ZM225.413 69V54.22H227.233V56.54L226.993 56.08C227.393 55.44 227.939 54.9333 228.633 54.56C229.326 54.1733 230.119 53.98 231.013 53.98C232.026 53.98 232.933 54.2267 233.733 54.72C234.546 55.2133 235.186 55.8867 235.653 56.74C236.119 57.58 236.353 58.54 236.353 59.62C236.353 60.6733 236.119 61.6267 235.653 62.48C235.186 63.3333 234.546 64.0067 233.733 64.5C232.933 64.9933 232.019 65.24 230.993 65.24C230.126 65.24 229.333 65.0467 228.613 64.66C227.906 64.2733 227.359 63.7267 226.973 63.02L227.273 62.7V69H225.413ZM230.853 63.44C231.533 63.44 232.139 63.2733 232.673 62.94C233.206 62.6067 233.619 62.1533 233.913 61.58C234.219 60.9933 234.373 60.34 234.373 59.62C234.373 58.8733 234.219 58.22 233.913 57.66C233.619 57.0867 233.206 56.6333 232.673 56.3C232.139 55.9533 231.533 55.78 230.853 55.78C230.173 55.78 229.559 55.9467 229.013 56.28C228.479 56.6133 228.053 57.0733 227.733 57.66C227.426 58.2333 227.273 58.8867 227.273 59.62C227.273 60.34 227.426 60.9933 227.733 61.58C228.053 62.1533 228.479 62.6067 229.013 62.94C229.559 63.2733 230.173 63.44 230.853 63.44ZM241.952 65.24C241.245 65.24 240.618 65.1133 240.072 64.86C239.538 64.5933 239.118 64.2333 238.812 63.78C238.505 63.3133 238.352 62.78 238.352 62.18C238.352 61.6067 238.472 61.0933 238.712 60.64C238.965 60.1733 239.352 59.78 239.872 59.46C240.405 59.14 241.072 58.9133 241.872 58.78L245.872 58.12V59.68L242.292 60.28C241.598 60.4 241.092 60.62 240.772 60.94C240.465 61.26 240.312 61.6533 240.312 62.12C240.312 62.56 240.485 62.9267 240.832 63.22C241.192 63.5133 241.638 63.66 242.172 63.66C242.852 63.66 243.438 63.52 243.932 63.24C244.438 62.9467 244.832 62.5533 245.112 62.06C245.405 61.5667 245.552 61.02 245.552 60.42V57.68C245.552 57.0933 245.332 56.62 244.892 56.26C244.465 55.8867 243.898 55.7 243.192 55.7C242.578 55.7 242.032 55.86 241.552 56.18C241.085 56.4867 240.738 56.9 240.512 57.42L238.892 56.58C239.092 56.0867 239.412 55.6467 239.852 55.26C240.292 54.86 240.805 54.5467 241.392 54.32C241.978 54.0933 242.592 53.98 243.232 53.98C244.058 53.98 244.785 54.14 245.412 54.46C246.038 54.7667 246.525 55.2 246.872 55.76C247.232 56.3067 247.412 56.9467 247.412 57.68V65H245.592V62.96L245.932 63.08C245.705 63.5067 245.398 63.88 245.012 64.2C244.625 64.52 244.172 64.7733 243.652 64.96C243.132 65.1467 242.565 65.24 241.952 65.24ZM250.295 65V54.22H252.115V56.32L251.815 56.14C252.082 55.46 252.509 54.9333 253.095 54.56C253.695 54.1733 254.395 53.98 255.195 53.98C255.969 53.98 256.655 54.1533 257.255 54.5C257.869 54.8467 258.349 55.3267 258.695 55.94C259.055 56.5533 259.235 57.2467 259.235 58.02V65H257.355V58.62C257.355 58.02 257.249 57.5133 257.035 57.1C256.822 56.6867 256.515 56.3667 256.115 56.14C255.729 55.9 255.282 55.78 254.775 55.78C254.269 55.78 253.815 55.9 253.415 56.14C253.029 56.3667 252.722 56.6933 252.495 57.12C252.269 57.5333 252.155 58.0333 252.155 58.62V65H250.295ZM262.282 69.4C262.042 69.4 261.802 69.38 261.562 69.34C261.322 69.3133 261.095 69.2533 260.882 69.16V67.5C261.028 67.5133 261.208 67.54 261.422 67.58C261.648 67.62 261.868 67.64 262.082 67.64C262.708 67.64 263.182 67.5 263.502 67.22C263.835 66.94 264.148 66.4667 264.442 65.8L265.122 64.18L265.082 65.8L260.482 54.22H262.502L266.082 63.42H265.482L269.042 54.22H271.102L266.242 66.28C266.015 66.8533 265.722 67.38 265.362 67.86C265.015 68.34 264.588 68.7133 264.082 68.98C263.575 69.26 262.975 69.4 262.282 69.4Z" fill="white"/>
<path d="M144.16 102V79.65H159.01V83.25H148.24V88.98H158.41V92.58H148.24V98.4H159.01V102H144.16ZM161.672 102V85.68H165.362V88.89L165.062 88.32C165.442 87.34 166.062 86.6 166.922 86.1C167.802 85.58 168.822 85.32 169.982 85.32C171.182 85.32 172.242 85.58 173.162 86.1C174.102 86.62 174.832 87.35 175.352 88.29C175.872 89.21 176.132 90.28 176.132 91.5V102H172.202V92.43C172.202 91.71 172.062 91.09 171.782 90.57C171.502 90.05 171.112 89.65 170.612 89.37C170.132 89.07 169.562 88.92 168.902 88.92C168.262 88.92 167.692 89.07 167.192 89.37C166.692 89.65 166.302 90.05 166.022 90.57C165.742 91.09 165.602 91.71 165.602 92.43V102H161.672ZM186.895 102.18C185.055 102.18 183.625 101.68 182.605 100.68C181.605 99.66 181.105 98.23 181.105 96.39V89.19H178.285V85.68H178.585C179.385 85.68 180.005 85.47 180.445 85.05C180.885 84.63 181.105 84.02 181.105 83.22V81.96H185.035V85.68H188.785V89.19H185.035V96.18C185.035 96.72 185.125 97.18 185.305 97.56C185.505 97.94 185.805 98.23 186.205 98.43C186.625 98.63 187.155 98.73 187.795 98.73C187.935 98.73 188.095 98.72 188.275 98.7C188.475 98.68 188.665 98.66 188.845 98.64V102C188.565 102.04 188.245 102.08 187.885 102.12C187.525 102.16 187.195 102.18 186.895 102.18ZM199.441 102.36C197.761 102.36 196.291 101.98 195.031 101.22C193.771 100.46 192.791 99.43 192.091 98.13C191.391 96.83 191.041 95.39 191.041 93.81C191.041 92.17 191.391 90.72 192.091 89.46C192.811 88.18 193.781 87.17 195.001 86.43C196.241 85.69 197.621 85.32 199.141 85.32C200.421 85.32 201.541 85.53 202.501 85.95C203.481 86.37 204.311 86.95 204.991 87.69C205.671 88.43 206.191 89.28 206.551 90.24C206.911 91.18 207.091 92.2 207.091 93.3C207.091 93.58 207.071 93.87 207.031 94.17C207.011 94.47 206.961 94.73 206.881 94.95H194.281V91.95H204.661L202.801 93.36C202.981 92.44 202.931 91.62 202.651 90.9C202.391 90.18 201.951 89.61 201.331 89.19C200.731 88.77 200.001 88.56 199.141 88.56C198.321 88.56 197.591 88.77 196.951 89.19C196.311 89.59 195.821 90.19 195.481 90.99C195.161 91.77 195.041 92.72 195.121 93.84C195.041 94.84 195.171 95.73 195.511 96.51C195.871 97.27 196.391 97.86 197.071 98.28C197.771 98.7 198.571 98.91 199.471 98.91C200.371 98.91 201.131 98.72 201.751 98.34C202.391 97.96 202.891 97.45 203.251 96.81L206.431 98.37C206.111 99.15 205.611 99.84 204.931 100.44C204.251 101.04 203.441 101.51 202.501 101.85C201.581 102.19 200.561 102.36 199.441 102.36ZM210.07 102V85.68H213.76V89.31L213.46 88.77C213.84 87.55 214.43 86.7 215.23 86.22C216.05 85.74 217.03 85.5 218.17 85.5H219.13V88.98H217.72C216.6 88.98 215.7 89.33 215.02 90.03C214.34 90.71 214 91.67 214 92.91V102H210.07ZM221.291 108V85.68H224.981V88.92L224.621 88.11C225.181 87.23 225.941 86.55 226.901 86.07C227.861 85.57 228.971 85.32 230.231 85.32C231.771 85.32 233.161 85.7 234.401 86.46C235.641 87.22 236.621 88.24 237.341 89.52C238.081 90.8 238.451 92.24 238.451 93.84C238.451 95.42 238.091 96.86 237.371 98.16C236.651 99.46 235.671 100.49 234.431 101.25C233.191 101.99 231.781 102.36 230.201 102.36C229.021 102.36 227.931 102.13 226.931 101.67C225.951 101.19 225.171 100.51 224.591 99.63L225.221 98.85V108H221.291ZM229.751 98.76C230.651 98.76 231.451 98.55 232.151 98.13C232.851 97.71 233.391 97.13 233.771 96.39C234.171 95.65 234.371 94.8 234.371 93.84C234.371 92.88 234.171 92.04 233.771 91.32C233.391 90.58 232.851 90 232.151 89.58C231.451 89.14 230.651 88.92 229.751 88.92C228.891 88.92 228.111 89.13 227.411 89.55C226.731 89.97 226.191 90.56 225.791 91.32C225.411 92.06 225.221 92.9 225.221 93.84C225.221 94.8 225.411 95.65 225.791 96.39C226.191 97.13 226.731 97.71 227.411 98.13C228.111 98.55 228.891 98.76 229.751 98.76ZM241.447 102V85.68H245.137V89.31L244.837 88.77C245.217 87.55 245.807 86.7 246.607 86.22C247.427 85.74 248.407 85.5 249.547 85.5H250.507V88.98H249.097C247.977 88.98 247.077 89.33 246.397 90.03C245.717 90.71 245.377 91.67 245.377 92.91V102H241.447ZM252.668 102V85.68H256.598V102H252.668ZM252.668 83.85V79.65H256.598V83.85H252.668ZM268.086 102.36C266.466 102.36 265.006 101.99 263.706 101.25C262.426 100.49 261.416 99.47 260.676 98.19C259.936 96.89 259.566 95.43 259.566 93.81C259.566 92.19 259.936 90.74 260.676 89.46C261.416 88.18 262.426 87.17 263.706 86.43C265.006 85.69 266.466 85.32 268.086 85.32C269.246 85.32 270.326 85.53 271.326 85.95C272.326 86.35 273.186 86.91 273.906 87.63C274.646 88.33 275.176 89.17 275.496 90.15L272.046 91.65C271.746 90.83 271.236 90.17 270.516 89.67C269.816 89.17 269.006 88.92 268.086 88.92C267.226 88.92 266.456 89.13 265.776 89.55C265.116 89.97 264.596 90.55 264.216 91.29C263.836 92.03 263.646 92.88 263.646 93.84C263.646 94.8 263.836 95.65 264.216 96.39C264.596 97.13 265.116 97.71 265.776 98.13C266.456 98.55 267.226 98.76 268.086 98.76C269.026 98.76 269.846 98.51 270.546 98.01C271.246 97.51 271.746 96.84 272.046 96L275.496 97.56C275.176 98.48 274.656 99.31 273.936 100.05C273.216 100.77 272.356 101.34 271.356 101.76C270.356 102.16 269.266 102.36 268.086 102.36ZM286.218 102.36C284.538 102.36 283.068 101.98 281.808 101.22C280.548 100.46 279.568 99.43 278.868 98.13C278.168 96.83 277.818 95.39 277.818 93.81C277.818 92.17 278.168 90.72 278.868 89.46C279.588 88.18 280.558 87.17 281.778 86.43C283.018 85.69 284.398 85.32 285.918 85.32C287.198 85.32 288.318 85.53 289.278 85.95C290.258 86.37 291.088 86.95 291.768 87.69C292.448 88.43 292.968 89.28 293.328 90.24C293.688 91.18 293.868 92.2 293.868 93.3C293.868 93.58 293.848 93.87 293.808 94.17C293.788 94.47 293.738 94.73 293.658 94.95H281.058V91.95H291.438L289.578 93.36C289.758 92.44 289.708 91.62 289.428 90.9C289.168 90.18 288.728 89.61 288.108 89.19C287.508 88.77 286.778 88.56 285.918 88.56C285.098 88.56 284.368 88.77 283.728 89.19C283.088 89.59 282.598 90.19 282.258 90.99C281.938 91.77 281.818 92.72 281.898 93.84C281.818 94.84 281.948 95.73 282.288 96.51C282.648 97.27 283.168 97.86 283.848 98.28C284.548 98.7 285.348 98.91 286.248 98.91C287.148 98.91 287.908 98.72 288.528 98.34C289.168 97.96 289.668 97.45 290.028 96.81L293.208 98.37C292.888 99.15 292.388 99.84 291.708 100.44C291.028 101.04 290.218 101.51 289.278 101.85C288.358 102.19 287.338 102.36 286.218 102.36Z" fill="white"/>
<path d="M55.184 293L50.264 275.12H53.264L57.248 290.6H56.504L60.632 275.12H63.584L67.712 290.6H66.944L70.952 275.12H73.928L69.032 293H65.84L61.688 277.76H62.528L58.352 293H55.184ZM75.7715 293V274.832H78.4835V282.56L78.0515 282.224C78.3715 281.408 78.8835 280.792 79.5875 280.376C80.2915 279.944 81.1075 279.728 82.0355 279.728C82.9955 279.728 83.8435 279.936 84.5795 280.352C85.3155 280.768 85.8915 281.344 86.3075 282.08C86.7235 282.816 86.9315 283.656 86.9315 284.6V293H84.2435V285.344C84.2435 284.688 84.1155 284.136 83.8595 283.688C83.6195 283.224 83.2835 282.872 82.8515 282.632C82.4195 282.376 81.9235 282.248 81.3635 282.248C80.8195 282.248 80.3235 282.376 79.8755 282.632C79.4435 282.872 79.0995 283.224 78.8435 283.688C78.6035 284.152 78.4835 284.704 78.4835 285.344V293H75.7715ZM93.722 293.288C92.842 293.288 92.066 293.136 91.394 292.832C90.738 292.512 90.226 292.08 89.858 291.536C89.49 290.976 89.306 290.32 89.306 289.568C89.306 288.864 89.458 288.232 89.762 287.672C90.082 287.112 90.57 286.64 91.226 286.256C91.882 285.872 92.706 285.6 93.698 285.44L98.21 284.696V286.832L94.226 287.528C93.506 287.656 92.978 287.888 92.642 288.224C92.306 288.544 92.138 288.96 92.138 289.472C92.138 289.968 92.322 290.376 92.69 290.696C93.074 291 93.562 291.152 94.154 291.152C94.89 291.152 95.53 290.992 96.074 290.672C96.634 290.352 97.066 289.928 97.37 289.4C97.674 288.856 97.826 288.256 97.826 287.6V284.264C97.826 283.624 97.586 283.104 97.106 282.704C96.642 282.288 96.018 282.08 95.234 282.08C94.514 282.08 93.882 282.272 93.338 282.656C92.81 283.024 92.418 283.504 92.162 284.096L89.906 282.968C90.146 282.328 90.538 281.768 91.082 281.288C91.626 280.792 92.258 280.408 92.978 280.136C93.714 279.864 94.49 279.728 95.306 279.728C96.33 279.728 97.234 279.92 98.018 280.304C98.818 280.688 99.434 281.224 99.866 281.912C100.314 282.584 100.538 283.368 100.538 284.264V293H97.946V290.648L98.498 290.72C98.194 291.248 97.802 291.704 97.322 292.088C96.858 292.472 96.322 292.768 95.714 292.976C95.122 293.184 94.458 293.288 93.722 293.288ZM109.091 293.144C107.731 293.144 106.675 292.76 105.923 291.992C105.171 291.224 104.795 290.144 104.795 288.752V282.464H102.515V280.016H102.875C103.483 280.016 103.955 279.84 104.291 279.488C104.627 279.136 104.795 278.656 104.795 278.048V277.04H107.507V280.016H110.459V282.464H107.507V288.632C107.507 289.08 107.579 289.464 107.723 289.784C107.867 290.088 108.099 290.328 108.419 290.504C108.739 290.664 109.155 290.744 109.667 290.744C109.795 290.744 109.939 290.736 110.099 290.72C110.259 290.704 110.411 290.688 110.555 290.672V293C110.331 293.032 110.083 293.064 109.811 293.096C109.539 293.128 109.299 293.144 109.091 293.144ZM113.897 281.528V280.208C114.425 280.08 114.833 279.848 115.121 279.512C115.409 279.16 115.585 278.736 115.649 278.24H114.377V275.12H117.137V277.16C117.137 278.328 116.865 279.296 116.321 280.064C115.777 280.816 114.969 281.304 113.897 281.528ZM125.876 293.288C124.548 293.288 123.38 292.96 122.372 292.304C121.38 291.648 120.684 290.768 120.284 289.664L122.372 288.68C122.724 289.416 123.204 290 123.812 290.432C124.436 290.864 125.124 291.08 125.876 291.08C126.516 291.08 127.036 290.936 127.436 290.648C127.836 290.36 128.036 289.968 128.036 289.472C128.036 289.152 127.948 288.896 127.772 288.704C127.596 288.496 127.372 288.328 127.1 288.2C126.844 288.072 126.58 287.976 126.308 287.912L124.268 287.336C123.148 287.016 122.308 286.536 121.748 285.896C121.204 285.24 120.932 284.48 120.932 283.616C120.932 282.832 121.132 282.152 121.532 281.576C121.932 280.984 122.484 280.528 123.188 280.208C123.892 279.888 124.684 279.728 125.564 279.728C126.748 279.728 127.804 280.024 128.732 280.616C129.66 281.192 130.316 282 130.7 283.04L128.612 284.024C128.356 283.4 127.948 282.904 127.388 282.536C126.844 282.168 126.228 281.984 125.54 281.984C124.948 281.984 124.476 282.128 124.124 282.416C123.772 282.688 123.596 283.048 123.596 283.496C123.596 283.8 123.676 284.056 123.836 284.264C123.996 284.456 124.204 284.616 124.46 284.744C124.716 284.856 124.98 284.952 125.252 285.032L127.364 285.656C128.436 285.96 129.26 286.44 129.836 287.096C130.412 287.736 130.7 288.504 130.7 289.4C130.7 290.168 130.492 290.848 130.076 291.44C129.676 292.016 129.116 292.472 128.396 292.808C127.676 293.128 126.836 293.288 125.876 293.288ZM137.553 293V280.016H140.265V293H137.553ZM137.553 278.24V275.12H140.265V278.24H137.553ZM143.436 293V280.016H146.028V282.56L145.716 282.224C146.036 281.408 146.548 280.792 147.252 280.376C147.956 279.944 148.772 279.728 149.7 279.728C150.66 279.728 151.508 279.936 152.244 280.352C152.98 280.768 153.556 281.344 153.972 282.08C154.388 282.816 154.596 283.664 154.596 284.624V293H151.908V285.344C151.908 284.688 151.788 284.136 151.548 283.688C151.308 283.224 150.964 282.872 150.516 282.632C150.084 282.376 149.588 282.248 149.028 282.248C148.468 282.248 147.964 282.376 147.516 282.632C147.084 282.872 146.748 283.224 146.508 283.688C146.268 284.152 146.148 284.704 146.148 285.344V293H143.436ZM163.666 293.288C162.37 293.288 161.218 292.992 160.21 292.4C159.218 291.792 158.426 290.976 157.834 289.952C157.258 288.928 156.97 287.768 156.97 286.472C156.97 285.192 157.258 284.04 157.834 283.016C158.41 281.992 159.202 281.192 160.21 280.616C161.218 280.024 162.37 279.728 163.666 279.728C164.546 279.728 165.37 279.888 166.138 280.208C166.906 280.512 167.57 280.936 168.13 281.48C168.706 282.024 169.13 282.656 169.402 283.376L167.026 284.48C166.754 283.808 166.314 283.272 165.706 282.872C165.114 282.456 164.434 282.248 163.666 282.248C162.93 282.248 162.266 282.432 161.674 282.8C161.098 283.152 160.642 283.656 160.306 284.312C159.97 284.952 159.802 285.68 159.802 286.496C159.802 287.312 159.97 288.048 160.306 288.704C160.642 289.344 161.098 289.848 161.674 290.216C162.266 290.584 162.93 290.768 163.666 290.768C164.45 290.768 165.13 290.568 165.706 290.168C166.298 289.752 166.738 289.2 167.026 288.512L169.402 289.64C169.146 290.328 168.73 290.952 168.154 291.512C167.594 292.056 166.93 292.488 166.162 292.808C165.394 293.128 164.562 293.288 163.666 293.288ZM172.053 293V274.832H174.765V293H172.053ZM182.568 293.288C181.592 293.288 180.736 293.072 180 292.64C179.264 292.192 178.688 291.576 178.272 290.792C177.872 289.992 177.672 289.072 177.672 288.032V280.016H180.384V287.792C180.384 288.384 180.504 288.904 180.744 289.352C180.984 289.8 181.32 290.152 181.752 290.408C182.184 290.648 182.68 290.768 183.24 290.768C183.816 290.768 184.32 290.64 184.752 290.384C185.184 290.128 185.52 289.768 185.76 289.304C186.016 288.84 186.144 288.296 186.144 287.672V280.016H188.832V293H186.264V290.456L186.552 290.792C186.248 291.592 185.744 292.208 185.04 292.64C184.336 293.072 183.512 293.288 182.568 293.288ZM197.998 293.288C196.75 293.288 195.63 292.992 194.638 292.4C193.662 291.792 192.886 290.976 192.31 289.952C191.75 288.928 191.47 287.776 191.47 286.496C191.47 285.216 191.758 284.064 192.334 283.04C192.91 282.016 193.686 281.208 194.662 280.616C195.638 280.024 196.742 279.728 197.974 279.728C199.014 279.728 199.934 279.936 200.734 280.352C201.534 280.768 202.166 281.344 202.63 282.08L202.222 282.704V274.832H204.91V293H202.342V290.36L202.654 290.864C202.206 291.648 201.566 292.248 200.734 292.664C199.902 293.08 198.99 293.288 197.998 293.288ZM198.262 290.768C199.014 290.768 199.686 290.584 200.278 290.216C200.886 289.848 201.358 289.344 201.694 288.704C202.046 288.048 202.222 287.312 202.222 286.496C202.222 285.68 202.046 284.952 201.694 284.312C201.358 283.672 200.886 283.168 200.278 282.8C199.686 282.432 199.014 282.248 198.262 282.248C197.51 282.248 196.83 282.432 196.222 282.8C195.614 283.168 195.142 283.672 194.806 284.312C194.47 284.952 194.302 285.68 194.302 286.496C194.302 287.312 194.47 288.048 194.806 288.704C195.142 289.344 195.606 289.848 196.198 290.216C196.806 290.584 197.494 290.768 198.262 290.768ZM214.172 293.288C212.876 293.288 211.724 292.992 210.716 292.4C209.724 291.792 208.948 290.976 208.388 289.952C207.828 288.912 207.548 287.752 207.548 286.472C207.548 285.16 207.828 284 208.388 282.992C208.964 281.984 209.732 281.192 210.692 280.616C211.652 280.024 212.74 279.728 213.956 279.728C214.932 279.728 215.804 279.896 216.572 280.232C217.34 280.568 217.988 281.032 218.516 281.624C219.044 282.2 219.444 282.864 219.716 283.616C220.004 284.368 220.148 285.168 220.148 286.016C220.148 286.224 220.14 286.44 220.124 286.664C220.108 286.888 220.076 287.096 220.028 287.288H209.684V285.128H218.492L217.196 286.112C217.356 285.328 217.3 284.632 217.028 284.024C216.772 283.4 216.372 282.912 215.828 282.56C215.3 282.192 214.676 282.008 213.956 282.008C213.236 282.008 212.596 282.192 212.036 282.56C211.476 282.912 211.044 283.424 210.74 284.096C210.436 284.752 210.316 285.552 210.38 286.496C210.3 287.376 210.42 288.144 210.74 288.8C211.076 289.456 211.54 289.968 212.132 290.336C212.74 290.704 213.428 290.888 214.196 290.888C214.98 290.888 215.644 290.712 216.188 290.36C216.748 290.008 217.188 289.552 217.508 288.992L219.716 290.072C219.46 290.68 219.06 291.232 218.516 291.728C217.988 292.208 217.348 292.592 216.596 292.88C215.86 293.152 215.052 293.288 214.172 293.288ZM228.795 293.288C227.547 293.288 226.427 292.992 225.435 292.4C224.459 291.792 223.683 290.976 223.107 289.952C222.547 288.928 222.267 287.776 222.267 286.496C222.267 285.216 222.555 284.064 223.131 283.04C223.707 282.016 224.483 281.208 225.459 280.616C226.435 280.024 227.539 279.728 228.771 279.728C229.811 279.728 230.731 279.936 231.531 280.352C232.331 280.768 232.963 281.344 233.427 282.08L233.019 282.704V274.832H235.707V293H233.139V290.36L233.451 290.864C233.003 291.648 232.363 292.248 231.531 292.664C230.699 293.08 229.787 293.288 228.795 293.288ZM229.059 290.768C229.811 290.768 230.483 290.584 231.075 290.216C231.683 289.848 232.155 289.344 232.491 288.704C232.843 288.048 233.019 287.312 233.019 286.496C233.019 285.68 232.843 284.952 232.491 284.312C232.155 283.672 231.683 283.168 231.075 282.8C230.483 282.432 229.811 282.248 229.059 282.248C228.307 282.248 227.627 282.432 227.019 282.8C226.411 283.168 225.939 283.672 225.603 284.312C225.267 284.952 225.099 285.68 225.099 286.496C225.099 287.312 225.267 288.048 225.603 288.704C225.939 289.344 226.403 289.848 226.995 290.216C227.603 290.584 228.291 290.768 229.059 290.768Z" fill="white"/>
<g clip-path="url(#clip0_1_660)">
<path d="M63 346C70.1799 346 76 340.18 76 333C76 325.82 70.1799 320 63 320C55.8201 320 50 325.82 50 333C50 340.18 55.8201 346 63 346Z" fill="#181818"/>
<path d="M57.1168 333.84L60.4786 337.202L68.8832 328.798" stroke="white" stroke-width="2" stroke-linecap="round" stroke-linejoin="round"/>
</g>
<path d="M96.22 341L101.66 326.1H103.38L108.82 341H107.14L105.86 337.36H99.2L97.9 341H96.22ZM99.72 335.86H105.3L102.28 327.3H102.76L99.72 335.86ZM110.587 341V325.86H112.087V341H110.587ZM115.157 341V325.86H116.657V341H115.157ZM123.346 341V326.1H128.466C129.439 326.1 130.293 326.293 131.026 326.68C131.759 327.053 132.326 327.587 132.726 328.28C133.139 328.96 133.346 329.753 133.346 330.66C133.346 331.567 133.139 332.36 132.726 333.04C132.326 333.72 131.759 334.253 131.026 334.64C130.306 335.013 129.453 335.2 128.466 335.2H124.946V341H123.346ZM124.946 333.7H128.546C129.186 333.7 129.746 333.58 130.226 333.34C130.706 333.087 131.079 332.733 131.346 332.28C131.613 331.813 131.746 331.267 131.746 330.64C131.746 330.013 131.613 329.473 131.346 329.02C131.079 328.567 130.706 328.22 130.226 327.98C129.746 327.727 129.186 327.6 128.546 327.6H124.946V333.7ZM135.978 341V330.28H137.478V332.04L137.278 331.78C137.531 331.273 137.911 330.873 138.418 330.58C138.938 330.287 139.564 330.14 140.298 330.14H140.978V331.64H140.038C139.264 331.64 138.644 331.88 138.178 332.36C137.711 332.84 137.478 333.52 137.478 334.4V341H135.978ZM147.755 341.24C146.742 341.24 145.822 341 144.995 340.52C144.169 340.027 143.509 339.36 143.015 338.52C142.535 337.667 142.295 336.7 142.295 335.62C142.295 334.553 142.535 333.6 143.015 332.76C143.495 331.92 144.142 331.26 144.955 330.78C145.782 330.287 146.715 330.04 147.755 330.04C148.795 330.04 149.722 330.28 150.535 330.76C151.362 331.24 152.009 331.9 152.475 332.74C152.955 333.58 153.195 334.54 153.195 335.62C153.195 336.713 152.949 337.687 152.455 338.54C151.962 339.38 151.302 340.04 150.475 340.52C149.662 341 148.755 341.24 147.755 341.24ZM147.755 339.74C148.475 339.74 149.122 339.56 149.695 339.2C150.282 338.84 150.742 338.347 151.075 337.72C151.422 337.093 151.595 336.393 151.595 335.62C151.595 334.847 151.422 334.153 151.075 333.54C150.742 332.927 150.282 332.44 149.695 332.08C149.122 331.72 148.475 331.54 147.755 331.54C147.035 331.54 146.382 331.72 145.795 332.08C145.222 332.44 144.762 332.927 144.415 333.54C144.069 334.153 143.895 334.847 143.895 335.62C143.895 336.393 144.069 337.093 144.415 337.72C144.762 338.347 145.222 338.84 145.795 339.2C146.382 339.56 147.035 339.74 147.755 339.74ZM156.55 341V331.78H154.41V330.28H156.55V329.32C156.55 328.573 156.717 327.947 157.05 327.44C157.383 326.92 157.823 326.527 158.37 326.26C158.917 325.993 159.503 325.86 160.13 325.86C160.263 325.86 160.417 325.873 160.59 325.9C160.763 325.913 160.903 325.933 161.01 325.96V327.32C160.917 327.293 160.79 327.28 160.63 327.28C160.47 327.267 160.357 327.26 160.29 327.26C159.65 327.26 159.117 327.413 158.69 327.72C158.263 328.027 158.05 328.56 158.05 329.32V330.28H160.67V331.78H158.05V341H156.55ZM167.576 341.24C166.576 341.24 165.67 341 164.856 340.52C164.056 340.027 163.423 339.353 162.956 338.5C162.49 337.647 162.256 336.68 162.256 335.6C162.256 334.52 162.483 333.567 162.936 332.74C163.39 331.9 164.003 331.24 164.776 330.76C165.563 330.28 166.443 330.04 167.416 330.04C168.19 330.04 168.876 330.187 169.476 330.48C170.09 330.76 170.61 331.147 171.036 331.64C171.463 332.12 171.79 332.667 172.016 333.28C172.243 333.88 172.356 334.5 172.356 335.14C172.356 335.273 172.35 335.427 172.336 335.6C172.323 335.76 172.303 335.927 172.276 336.1H163.216V334.7H171.416L170.696 335.3C170.816 334.567 170.73 333.913 170.436 333.34C170.156 332.753 169.75 332.293 169.216 331.96C168.683 331.613 168.083 331.44 167.416 331.44C166.75 331.44 166.13 331.613 165.556 331.96C164.996 332.307 164.556 332.793 164.236 333.42C163.916 334.033 163.79 334.767 163.856 335.62C163.79 336.473 163.923 337.22 164.256 337.86C164.603 338.487 165.07 338.973 165.656 339.32C166.256 339.667 166.896 339.84 167.576 339.84C168.363 339.84 169.023 339.653 169.556 339.28C170.09 338.907 170.523 338.44 170.856 337.88L172.136 338.56C171.923 339.04 171.596 339.487 171.156 339.9C170.716 340.3 170.19 340.627 169.576 340.88C168.976 341.12 168.31 341.24 167.576 341.24ZM178.721 341.24C177.694 341.24 176.794 340.98 176.021 340.46C175.248 339.94 174.688 339.233 174.341 338.34L175.601 337.74C175.908 338.393 176.334 338.913 176.881 339.3C177.441 339.687 178.054 339.88 178.721 339.88C179.361 339.88 179.901 339.727 180.341 339.42C180.781 339.1 181.001 338.687 181.001 338.18C181.001 337.807 180.894 337.513 180.681 337.3C180.468 337.073 180.221 336.9 179.941 336.78C179.661 336.66 179.414 336.573 179.201 336.52L177.661 336.08C176.674 335.8 175.961 335.407 175.521 334.9C175.081 334.393 174.861 333.807 174.861 333.14C174.861 332.513 175.021 331.967 175.341 331.5C175.661 331.033 176.094 330.673 176.641 330.42C177.188 330.167 177.794 330.04 178.461 330.04C179.368 330.04 180.188 330.28 180.921 330.76C181.668 331.227 182.194 331.88 182.501 332.72L181.221 333.32C180.954 332.72 180.568 332.253 180.061 331.92C179.568 331.573 179.014 331.4 178.401 331.4C177.801 331.4 177.321 331.553 176.961 331.86C176.601 332.167 176.421 332.553 176.421 333.02C176.421 333.38 176.514 333.667 176.701 333.88C176.888 334.093 177.101 334.253 177.341 334.36C177.594 334.467 177.814 334.547 178.001 334.6L179.781 335.12C180.648 335.373 181.321 335.767 181.801 336.3C182.294 336.833 182.541 337.46 182.541 338.18C182.541 338.767 182.374 339.293 182.041 339.76C181.721 340.227 181.274 340.593 180.701 340.86C180.128 341.113 179.468 341.24 178.721 341.24ZM188.897 341.24C187.87 341.24 186.97 340.98 186.197 340.46C185.423 339.94 184.863 339.233 184.517 338.34L185.777 337.74C186.083 338.393 186.51 338.913 187.057 339.3C187.617 339.687 188.23 339.88 188.897 339.88C189.537 339.88 190.077 339.727 190.517 339.42C190.957 339.1 191.177 338.687 191.177 338.18C191.177 337.807 191.07 337.513 190.857 337.3C190.643 337.073 190.397 336.9 190.117 336.78C189.837 336.66 189.59 336.573 189.377 336.52L187.837 336.08C186.85 335.8 186.137 335.407 185.697 334.9C185.257 334.393 185.037 333.807 185.037 333.14C185.037 332.513 185.197 331.967 185.517 331.5C185.837 331.033 186.27 330.673 186.817 330.42C187.363 330.167 187.97 330.04 188.637 330.04C189.543 330.04 190.363 330.28 191.097 330.76C191.843 331.227 192.37 331.88 192.677 332.72L191.397 333.32C191.13 332.72 190.743 332.253 190.237 331.92C189.743 331.573 189.19 331.4 188.577 331.4C187.977 331.4 187.497 331.553 187.137 331.86C186.777 332.167 186.597 332.553 186.597 333.02C186.597 333.38 186.69 333.667 186.877 333.88C187.063 334.093 187.277 334.253 187.517 334.36C187.77 334.467 187.99 334.547 188.177 334.6L189.957 335.12C190.823 335.373 191.497 335.767 191.977 336.3C192.47 336.833 192.717 337.46 192.717 338.18C192.717 338.767 192.55 339.293 192.217 339.76C191.897 340.227 191.45 340.593 190.877 340.86C190.303 341.113 189.643 341.24 188.897 341.24ZM195.353 341V330.28H196.853V341H195.353ZM195.353 328.3V326.1H196.853V328.3H195.353ZM204.943 341.24C203.929 341.24 203.009 341 202.183 340.52C201.356 340.027 200.696 339.36 200.203 338.52C199.723 337.667 199.483 336.7 199.483 335.62C199.483 334.553 199.723 333.6 200.203 332.76C200.683 331.92 201.329 331.26 202.143 330.78C202.969 330.287 203.903 330.04 204.943 330.04C205.983 330.04 206.909 330.28 207.723 330.76C208.549 331.24 209.196 331.9 209.663 332.74C210.143 333.58 210.383 334.54 210.383 335.62C210.383 336.713 210.136 337.687 209.643 338.54C209.149 339.38 208.489 340.04 207.663 340.52C206.849 341 205.943 341.24 204.943 341.24ZM204.943 339.74C205.663 339.74 206.309 339.56 206.883 339.2C207.469 338.84 207.929 338.347 208.263 337.72C208.609 337.093 208.783 336.393 208.783 335.62C208.783 334.847 208.609 334.153 208.263 333.54C207.929 332.927 207.469 332.44 206.883 332.08C206.309 331.72 205.663 331.54 204.943 331.54C204.223 331.54 203.569 331.72 202.983 332.08C202.409 332.44 201.949 332.927 201.603 333.54C201.256 334.153 201.083 334.847 201.083 335.62C201.083 336.393 201.256 337.093 201.603 337.72C201.949 338.347 202.409 338.84 202.983 339.2C203.569 339.56 204.223 339.74 204.943 339.74ZM213.028 341V330.28H214.528V332.36L214.188 332.28C214.455 331.587 214.888 331.04 215.488 330.64C216.102 330.24 216.808 330.04 217.608 330.04C218.368 330.04 219.048 330.213 219.648 330.56C220.262 330.907 220.742 331.387 221.088 332C221.448 332.6 221.628 333.28 221.628 334.04V341H220.128V334.62C220.128 333.967 220.008 333.413 219.768 332.96C219.542 332.507 219.215 332.16 218.788 331.92C218.375 331.667 217.895 331.54 217.348 331.54C216.802 331.54 216.315 331.667 215.888 331.92C215.462 332.16 215.128 332.513 214.888 332.98C214.648 333.433 214.528 333.98 214.528 334.62V341H213.028ZM227.593 341.24C226.913 341.24 226.306 341.113 225.773 340.86C225.24 340.593 224.82 340.233 224.513 339.78C224.206 339.327 224.053 338.807 224.053 338.22C224.053 337.66 224.173 337.153 224.413 336.7C224.653 336.233 225.026 335.84 225.533 335.52C226.04 335.2 226.686 334.973 227.473 334.84L231.673 334.14V335.5L227.833 336.14C227.06 336.273 226.5 336.52 226.153 336.88C225.82 337.24 225.653 337.667 225.653 338.16C225.653 338.64 225.84 339.047 226.213 339.38C226.6 339.713 227.093 339.88 227.693 339.88C228.426 339.88 229.066 339.727 229.613 339.42C230.16 339.1 230.586 338.673 230.893 338.14C231.2 337.607 231.353 337.013 231.353 336.36V333.64C231.353 333 231.12 332.48 230.653 332.08C230.186 331.68 229.58 331.48 228.833 331.48C228.18 331.48 227.606 331.647 227.113 331.98C226.62 332.3 226.253 332.72 226.013 333.24L224.653 332.5C224.853 332.047 225.166 331.633 225.593 331.26C226.033 330.887 226.533 330.593 227.093 330.38C227.653 330.153 228.233 330.04 228.833 330.04C229.62 330.04 230.313 330.193 230.913 330.5C231.526 330.807 232 331.233 232.333 331.78C232.68 332.313 232.853 332.933 232.853 333.64V341H231.353V338.86L231.573 339.08C231.386 339.48 231.093 339.847 230.693 340.18C230.306 340.5 229.846 340.76 229.313 340.96C228.793 341.147 228.22 341.24 227.593 341.24ZM235.938 341V325.86H237.438V341H235.938ZM249.147 341.24C248.201 341.24 247.341 341.06 246.567 340.7C245.794 340.34 245.141 339.86 244.607 339.26C244.074 338.647 243.694 337.973 243.467 337.24L244.907 336.7C245.254 337.713 245.794 338.487 246.527 339.02C247.261 339.54 248.134 339.8 249.147 339.8C249.787 339.8 250.347 339.7 250.827 339.5C251.321 339.287 251.701 338.993 251.967 338.62C252.234 338.247 252.367 337.813 252.367 337.32C252.367 336.587 252.167 336.02 251.767 335.62C251.367 335.22 250.794 334.913 250.047 334.7L247.367 333.9C246.314 333.593 245.501 333.08 244.927 332.36C244.367 331.64 244.087 330.82 244.087 329.9C244.087 329.113 244.281 328.42 244.667 327.82C245.054 327.207 245.581 326.727 246.247 326.38C246.927 326.033 247.694 325.86 248.547 325.86C249.441 325.86 250.241 326.027 250.947 326.36C251.667 326.68 252.274 327.107 252.767 327.64C253.261 328.173 253.614 328.767 253.827 329.42L252.427 329.98C252.107 329.1 251.607 328.433 250.927 327.98C250.261 327.527 249.474 327.3 248.567 327.3C247.994 327.3 247.487 327.4 247.047 327.6C246.621 327.8 246.287 328.087 246.047 328.46C245.807 328.833 245.687 329.273 245.687 329.78C245.687 330.393 245.881 330.947 246.267 331.44C246.654 331.92 247.247 332.28 248.047 332.52L250.407 333.22C251.581 333.567 252.467 334.067 253.067 334.72C253.667 335.373 253.967 336.193 253.967 337.18C253.967 337.98 253.761 338.687 253.347 339.3C252.947 339.9 252.381 340.373 251.647 340.72C250.927 341.067 250.094 341.24 249.147 341.24ZM261.717 341.24C260.717 341.24 259.81 341 258.997 340.52C258.197 340.027 257.564 339.353 257.097 338.5C256.63 337.647 256.397 336.68 256.397 335.6C256.397 334.52 256.624 333.567 257.077 332.74C257.53 331.9 258.144 331.24 258.917 330.76C259.704 330.28 260.584 330.04 261.557 330.04C262.33 330.04 263.017 330.187 263.617 330.48C264.23 330.76 264.75 331.147 265.177 331.64C265.604 332.12 265.93 332.667 266.157 333.28C266.384 333.88 266.497 334.5 266.497 335.14C266.497 335.273 266.49 335.427 266.477 335.6C266.464 335.76 266.444 335.927 266.417 336.1H257.357V334.7H265.557L264.837 335.3C264.957 334.567 264.87 333.913 264.577 333.34C264.297 332.753 263.89 332.293 263.357 331.96C262.824 331.613 262.224 331.44 261.557 331.44C260.89 331.44 260.27 331.613 259.697 331.96C259.137 332.307 258.697 332.793 258.377 333.42C258.057 334.033 257.93 334.767 257.997 335.62C257.93 336.473 258.064 337.22 258.397 337.86C258.744 338.487 259.21 338.973 259.797 339.32C260.397 339.667 261.037 339.84 261.717 339.84C262.504 339.84 263.164 339.653 263.697 339.28C264.23 338.907 264.664 338.44 264.997 337.88L266.277 338.56C266.064 339.04 265.737 339.487 265.297 339.9C264.857 340.3 264.33 340.627 263.717 340.88C263.117 341.12 262.45 341.24 261.717 341.24ZM269.142 341V330.28H270.642V332.04L270.442 331.78C270.695 331.273 271.075 330.873 271.582 330.58C272.102 330.287 272.728 330.14 273.462 330.14H274.142V331.64H273.202C272.428 331.64 271.808 331.88 271.342 332.36C270.875 332.84 270.642 333.52 270.642 334.4V341H269.142ZM278.759 341L274.579 330.28H276.259L279.779 339.68H279.239L282.779 330.28H284.479L280.259 341H278.759ZM286.231 341V330.28H287.731V341H286.231ZM286.231 328.3V326.1H287.731V328.3H286.231ZM295.702 341.24C294.648 341.24 293.722 340.993 292.922 340.5C292.122 340.007 291.495 339.34 291.042 338.5C290.588 337.647 290.362 336.687 290.362 335.62C290.362 334.553 290.588 333.6 291.042 332.76C291.495 331.92 292.122 331.26 292.922 330.78C293.722 330.287 294.648 330.04 295.702 330.04C296.368 330.04 296.995 330.16 297.582 330.4C298.168 330.64 298.688 330.967 299.142 331.38C299.595 331.78 299.935 332.247 300.162 332.78L298.802 333.48C298.535 332.907 298.128 332.44 297.582 332.08C297.035 331.72 296.408 331.54 295.702 331.54C294.995 331.54 294.355 331.72 293.782 332.08C293.222 332.427 292.775 332.913 292.442 333.54C292.122 334.153 291.962 334.853 291.962 335.64C291.962 336.413 292.122 337.113 292.442 337.74C292.775 338.353 293.222 338.84 293.782 339.2C294.355 339.56 294.995 339.74 295.702 339.74C296.408 339.74 297.028 339.56 297.562 339.2C298.108 338.84 298.522 338.36 298.802 337.76L300.162 338.5C299.935 339.02 299.595 339.487 299.142 339.9C298.688 340.313 298.168 340.64 297.582 340.88C296.995 341.12 296.368 341.24 295.702 341.24ZM307.674 341.24C306.674 341.24 305.767 341 304.954 340.52C304.154 340.027 303.521 339.353 303.054 338.5C302.587 337.647 302.354 336.68 302.354 335.6C302.354 334.52 302.581 333.567 303.034 332.74C303.487 331.9 304.101 331.24 304.874 330.76C305.661 330.28 306.541 330.04 307.514 330.04C308.287 330.04 308.974 330.187 309.574 330.48C310.187 330.76 310.707 331.147 311.134 331.64C311.561 332.12 311.887 332.667 312.114 333.28C312.341 333.88 312.454 334.5 312.454 335.14C312.454 335.273 312.447 335.427 312.434 335.6C312.421 335.76 312.401 335.927 312.374 336.1H303.314V334.7H311.514L310.794 335.3C310.914 334.567 310.827 333.913 310.534 333.34C310.254 332.753 309.847 332.293 309.314 331.96C308.781 331.613 308.181 331.44 307.514 331.44C306.847 331.44 306.227 331.613 305.654 331.96C305.094 332.307 304.654 332.793 304.334 333.42C304.014 334.033 303.887 334.767 303.954 335.62C303.887 336.473 304.021 337.22 304.354 337.86C304.701 338.487 305.167 338.973 305.754 339.32C306.354 339.667 306.994 339.84 307.674 339.84C308.461 339.84 309.121 339.653 309.654 339.28C310.187 338.907 310.621 338.44 310.954 337.88L312.234 338.56C312.021 339.04 311.694 339.487 311.254 339.9C310.814 340.3 310.287 340.627 309.674 340.88C309.074 341.12 308.407 341.24 307.674 341.24ZM318.819 341.24C317.792 341.24 316.892 340.98 316.119 340.46C315.345 339.94 314.785 339.233 314.439 338.34L315.699 337.74C316.005 338.393 316.432 338.913 316.979 339.3C317.539 339.687 318.152 339.88 318.819 339.88C319.459 339.88 319.999 339.727 320.439 339.42C320.879 339.1 321.099 338.687 321.099 338.18C321.099 337.807 320.992 337.513 320.779 337.3C320.565 337.073 320.319 336.9 320.039 336.78C319.759 336.66 319.512 336.573 319.299 336.52L317.759 336.08C316.772 335.8 316.059 335.407 315.619 334.9C315.179 334.393 314.959 333.807 314.959 333.14C314.959 332.513 315.119 331.967 315.439 331.5C315.759 331.033 316.192 330.673 316.739 330.42C317.285 330.167 317.892 330.04 318.559 330.04C319.465 330.04 320.285 330.28 321.019 330.76C321.765 331.227 322.292 331.88 322.599 332.72L321.319 333.32C321.052 332.72 320.665 332.253 320.159 331.92C319.665 331.573 319.112 331.4 318.499 331.4C317.899 331.4 317.419 331.553 317.059 331.86C316.699 332.167 316.519 332.553 316.519 333.02C316.519 333.38 316.612 333.667 316.799 333.88C316.985 334.093 317.199 334.253 317.439 334.36C317.692 334.467 317.912 334.547 318.099 334.6L319.879 335.12C320.745 335.373 321.419 335.767 321.899 336.3C322.392 336.833 322.639 337.46 322.639 338.18C322.639 338.767 322.472 339.293 322.139 339.76C321.819 340.227 321.372 340.593 320.799 340.86C320.225 341.113 319.565 341.24 318.819 341.24Z" fill="white"/>
<g clip-path="url(#clip1_1_660)">
<path d="M63 392C70.1799 392 76 386.18 76 379C76 371.82 70.1799 366 63 366C55.8201 366 50 371.82 50 379C50 386.18 55.8201 392 63 392Z" fill="#181818"/>
<path d="M57.1168 379.84L60.4786 383.202L68.8832 374.798" stroke="white" stroke-width="2" stroke-linecap="round" stroke-linejoin="round"/>
</g>
<path d="M103 387.24C101.947 387.24 101.02 387.02 100.22 386.58C99.42 386.14 98.8 385.54 98.36 384.78C97.92 384.007 97.7 383.127 97.7 382.14V372.1H99.3V382.14C99.3 382.86 99.4533 383.493 99.76 384.04C100.08 384.573 100.513 384.993 101.06 385.3C101.62 385.593 102.267 385.74 103 385.74C103.733 385.74 104.373 385.593 104.92 385.3C105.48 384.993 105.913 384.573 106.22 384.04C106.54 383.493 106.7 382.86 106.7 382.14V372.1H108.3V382.14C108.3 383.127 108.08 384.007 107.64 384.78C107.2 385.54 106.58 386.14 105.78 386.58C104.993 387.02 104.067 387.24 103 387.24ZM111.544 387V376.28H113.044V378.36L112.704 378.28C112.971 377.587 113.404 377.04 114.004 376.64C114.617 376.24 115.324 376.04 116.124 376.04C116.884 376.04 117.564 376.213 118.164 376.56C118.777 376.907 119.257 377.387 119.604 378C119.964 378.6 120.144 379.28 120.144 380.04V387H118.644V380.62C118.644 379.967 118.524 379.413 118.284 378.96C118.057 378.507 117.731 378.16 117.304 377.92C116.891 377.667 116.411 377.54 115.864 377.54C115.317 377.54 114.831 377.667 114.404 377.92C113.977 378.16 113.644 378.513 113.404 378.98C113.164 379.433 113.044 379.98 113.044 380.62V387H111.544ZM123.009 387V371.86H124.509V387H123.009ZM127.579 387V376.28H129.079V387H127.579ZM127.579 374.3V372.1H129.079V374.3H127.579ZM132.149 387V376.28H133.649V378.32L133.409 378.02C133.703 377.393 134.136 376.907 134.709 376.56C135.296 376.213 135.936 376.04 136.629 376.04C137.456 376.04 138.203 376.273 138.869 376.74C139.536 377.207 140.009 377.813 140.289 378.56L139.869 378.58C140.136 377.753 140.596 377.127 141.249 376.7C141.916 376.26 142.649 376.04 143.449 376.04C144.169 376.04 144.829 376.213 145.429 376.56C146.043 376.907 146.529 377.387 146.889 378C147.263 378.6 147.449 379.28 147.449 380.04V387H145.949V380.62C145.949 379.967 145.829 379.413 145.589 378.96C145.363 378.507 145.049 378.16 144.649 377.92C144.249 377.667 143.789 377.54 143.269 377.54C142.763 377.54 142.303 377.667 141.889 377.92C141.476 378.16 141.149 378.513 140.909 378.98C140.669 379.433 140.549 379.98 140.549 380.62V387H139.049V380.62C139.049 379.967 138.929 379.413 138.689 378.96C138.463 378.507 138.149 378.16 137.749 377.92C137.349 377.667 136.889 377.54 136.369 377.54C135.849 377.54 135.383 377.667 134.969 377.92C134.569 378.16 134.249 378.513 134.009 378.98C133.769 379.433 133.649 379.98 133.649 380.62V387H132.149ZM150.313 387V376.28H151.813V387H150.313ZM150.313 374.3V372.1H151.813V374.3H150.313ZM158.984 387.12C158.024 387.12 157.284 386.84 156.764 386.28C156.244 385.72 155.984 384.92 155.984 383.88V377.78H154.004V376.28H154.504C154.957 376.28 155.317 376.133 155.584 375.84C155.85 375.533 155.984 375.153 155.984 374.7V373.8H157.484V376.28H159.844V377.78H157.484V383.88C157.484 384.24 157.537 384.56 157.644 384.84C157.75 385.107 157.93 385.32 158.184 385.48C158.45 385.64 158.804 385.72 159.244 385.72C159.35 385.72 159.477 385.713 159.624 385.7C159.77 385.687 159.897 385.673 160.004 385.66V387C159.844 387.04 159.664 387.067 159.464 387.08C159.264 387.107 159.104 387.12 158.984 387.12ZM167.127 387.24C166.127 387.24 165.22 387 164.407 386.52C163.607 386.027 162.974 385.353 162.507 384.5C162.04 383.647 161.807 382.68 161.807 381.6C161.807 380.52 162.034 379.567 162.487 378.74C162.94 377.9 163.554 377.24 164.327 376.76C165.114 376.28 165.994 376.04 166.967 376.04C167.74 376.04 168.427 376.187 169.027 376.48C169.64 376.76 170.16 377.147 170.587 377.64C171.014 378.12 171.34 378.667 171.567 379.28C171.794 379.88 171.907 380.5 171.907 381.14C171.907 381.273 171.9 381.427 171.887 381.6C171.874 381.76 171.854 381.927 171.827 382.1H162.767V380.7H170.967L170.247 381.3C170.367 380.567 170.28 379.913 169.987 379.34C169.707 378.753 169.3 378.293 168.767 377.96C168.234 377.613 167.634 377.44 166.967 377.44C166.3 377.44 165.68 377.613 165.107 377.96C164.547 378.307 164.107 378.793 163.787 379.42C163.467 380.033 163.34 380.767 163.407 381.62C163.34 382.473 163.474 383.22 163.807 383.86C164.154 384.487 164.62 384.973 165.207 385.32C165.807 385.667 166.447 385.84 167.127 385.84C167.914 385.84 168.574 385.653 169.107 385.28C169.64 384.907 170.074 384.44 170.407 383.88L171.687 384.56C171.474 385.04 171.147 385.487 170.707 385.9C170.267 386.3 169.74 386.627 169.127 386.88C168.527 387.12 167.86 387.24 167.127 387.24ZM179.392 387.24C178.392 387.24 177.492 387 176.692 386.52C175.892 386.027 175.258 385.36 174.792 384.52C174.338 383.667 174.112 382.707 174.112 381.64C174.112 380.56 174.338 379.6 174.792 378.76C175.258 377.92 175.885 377.26 176.672 376.78C177.472 376.287 178.378 376.04 179.392 376.04C180.312 376.04 181.132 376.24 181.852 376.64C182.572 377.04 183.138 377.58 183.552 378.26L183.312 378.68V371.86H184.812V387H183.312V384.6L183.552 384.82C183.178 385.593 182.618 386.193 181.872 386.62C181.138 387.033 180.312 387.24 179.392 387.24ZM179.472 385.74C180.192 385.74 180.838 385.56 181.412 385.2C181.998 384.84 182.458 384.353 182.792 383.74C183.138 383.113 183.312 382.413 183.312 381.64C183.312 380.867 183.138 380.173 182.792 379.56C182.458 378.933 181.998 378.44 181.412 378.08C180.838 377.72 180.192 377.54 179.472 377.54C178.765 377.54 178.125 377.72 177.552 378.08C176.978 378.44 176.525 378.927 176.192 379.54C175.872 380.153 175.712 380.853 175.712 381.64C175.712 382.413 175.872 383.113 176.192 383.74C176.525 384.353 176.972 384.84 177.532 385.2C178.105 385.56 178.752 385.74 179.472 385.74ZM191.51 387V372.1H196.63C197.603 372.1 198.457 372.293 199.19 372.68C199.923 373.053 200.49 373.587 200.89 374.28C201.303 374.96 201.51 375.753 201.51 376.66C201.51 377.567 201.303 378.36 200.89 379.04C200.49 379.72 199.923 380.253 199.19 380.64C198.47 381.013 197.617 381.2 196.63 381.2H193.11V387H191.51ZM193.11 379.7H196.71C197.35 379.7 197.91 379.58 198.39 379.34C198.87 379.087 199.243 378.733 199.51 378.28C199.777 377.813 199.91 377.267 199.91 376.64C199.91 376.013 199.777 375.473 199.51 375.02C199.243 374.567 198.87 374.22 198.39 373.98C197.91 373.727 197.35 373.6 196.71 373.6H193.11V379.7ZM204.142 387V376.28H205.642V378.04L205.442 377.78C205.695 377.273 206.075 376.873 206.582 376.58C207.102 376.287 207.728 376.14 208.462 376.14H209.142V377.64H208.202C207.428 377.64 206.808 377.88 206.342 378.36C205.875 378.84 205.642 379.52 205.642 380.4V387H204.142ZM215.919 387.24C214.906 387.24 213.986 387 213.159 386.52C212.333 386.027 211.673 385.36 211.179 384.52C210.699 383.667 210.459 382.7 210.459 381.62C210.459 380.553 210.699 379.6 211.179 378.76C211.659 377.92 212.306 377.26 213.119 376.78C213.946 376.287 214.879 376.04 215.919 376.04C216.959 376.04 217.886 376.28 218.699 376.76C219.526 377.24 220.173 377.9 220.639 378.74C221.119 379.58 221.359 380.54 221.359 381.62C221.359 382.713 221.113 383.687 220.619 384.54C220.126 385.38 219.466 386.04 218.639 386.52C217.826 387 216.919 387.24 215.919 387.24ZM215.919 385.74C216.639 385.74 217.286 385.56 217.859 385.2C218.446 384.84 218.906 384.347 219.239 383.72C219.586 383.093 219.759 382.393 219.759 381.62C219.759 380.847 219.586 380.153 219.239 379.54C218.906 378.927 218.446 378.44 217.859 378.08C217.286 377.72 216.639 377.54 215.919 377.54C215.199 377.54 214.546 377.72 213.959 378.08C213.386 378.44 212.926 378.927 212.579 379.54C212.233 380.153 212.059 380.847 212.059 381.62C212.059 382.393 212.233 383.093 212.579 383.72C212.926 384.347 213.386 384.84 213.959 385.2C214.546 385.56 215.199 385.74 215.919 385.74ZM222.005 391.4C221.912 391.4 221.785 391.393 221.625 391.38C221.452 391.367 221.312 391.347 221.205 391.32V389.94C221.485 389.98 221.765 390 222.045 390C222.592 390 223.052 389.833 223.425 389.5C223.812 389.167 224.005 388.667 224.005 388V376.28H225.505V388C225.505 388.733 225.345 389.353 225.025 389.86C224.705 390.367 224.278 390.747 223.745 391C223.225 391.267 222.645 391.4 222.005 391.4ZM224.005 374.3V372.1H225.505V374.3H224.005ZM233.455 387.24C232.455 387.24 231.548 387 230.735 386.52C229.935 386.027 229.302 385.353 228.835 384.5C228.368 383.647 228.135 382.68 228.135 381.6C228.135 380.52 228.362 379.567 228.815 378.74C229.268 377.9 229.882 377.24 230.655 376.76C231.442 376.28 232.322 376.04 233.295 376.04C234.068 376.04 234.755 376.187 235.355 376.48C235.968 376.76 236.488 377.147 236.915 377.64C237.342 378.12 237.668 378.667 237.895 379.28C238.122 379.88 238.235 380.5 238.235 381.14C238.235 381.273 238.228 381.427 238.215 381.6C238.202 381.76 238.182 381.927 238.155 382.1H229.095V380.7H237.295L236.575 381.3C236.695 380.567 236.608 379.913 236.315 379.34C236.035 378.753 235.628 378.293 235.095 377.96C234.562 377.613 233.962 377.44 233.295 377.44C232.628 377.44 232.008 377.613 231.435 377.96C230.875 378.307 230.435 378.793 230.115 379.42C229.795 380.033 229.668 380.767 229.735 381.62C229.668 382.473 229.802 383.22 230.135 383.86C230.482 384.487 230.948 384.973 231.535 385.32C232.135 385.667 232.775 385.84 233.455 385.84C234.242 385.84 234.902 385.653 235.435 385.28C235.968 384.907 236.402 384.44 236.735 383.88L238.015 384.56C237.802 385.04 237.475 385.487 237.035 385.9C236.595 386.3 236.068 386.627 235.455 386.88C234.855 387.12 234.188 387.24 233.455 387.24ZM245.78 387.24C244.727 387.24 243.8 386.993 243 386.5C242.2 386.007 241.573 385.34 241.12 384.5C240.667 383.647 240.44 382.687 240.44 381.62C240.44 380.553 240.667 379.6 241.12 378.76C241.573 377.92 242.2 377.26 243 376.78C243.8 376.287 244.727 376.04 245.78 376.04C246.447 376.04 247.073 376.16 247.66 376.4C248.247 376.64 248.767 376.967 249.22 377.38C249.673 377.78 250.013 378.247 250.24 378.78L248.88 379.48C248.613 378.907 248.207 378.44 247.66 378.08C247.113 377.72 246.487 377.54 245.78 377.54C245.073 377.54 244.433 377.72 243.86 378.08C243.3 378.427 242.853 378.913 242.52 379.54C242.2 380.153 242.04 380.853 242.04 381.64C242.04 382.413 242.2 383.113 242.52 383.74C242.853 384.353 243.3 384.84 243.86 385.2C244.433 385.56 245.073 385.74 245.78 385.74C246.487 385.74 247.107 385.56 247.64 385.2C248.187 384.84 248.6 384.36 248.88 383.76L250.24 384.5C250.013 385.02 249.673 385.487 249.22 385.9C248.767 386.313 248.247 386.64 247.66 386.88C247.073 387.12 246.447 387.24 245.78 387.24ZM256.972 387.12C256.012 387.12 255.272 386.84 254.752 386.28C254.232 385.72 253.972 384.92 253.972 383.88V377.78H251.992V376.28H252.492C252.945 376.28 253.305 376.133 253.572 375.84C253.839 375.533 253.972 375.153 253.972 374.7V373.8H255.472V376.28H257.832V377.78H255.472V383.88C255.472 384.24 255.525 384.56 255.632 384.84C255.739 385.107 255.919 385.32 256.172 385.48C256.439 385.64 256.792 385.72 257.232 385.72C257.339 385.72 257.465 385.713 257.612 385.7C257.759 385.687 257.885 385.673 257.992 385.66V387C257.832 387.04 257.652 387.067 257.452 387.08C257.252 387.107 257.092 387.12 256.972 387.12ZM264.346 387.24C263.319 387.24 262.419 386.98 261.646 386.46C260.873 385.94 260.313 385.233 259.966 384.34L261.226 383.74C261.533 384.393 261.959 384.913 262.506 385.3C263.066 385.687 263.679 385.88 264.346 385.88C264.986 385.88 265.526 385.727 265.966 385.42C266.406 385.1 266.626 384.687 266.626 384.18C266.626 383.807 266.519 383.513 266.306 383.3C266.093 383.073 265.846 382.9 265.566 382.78C265.286 382.66 265.039 382.573 264.826 382.52L263.286 382.08C262.299 381.8 261.586 381.407 261.146 380.9C260.706 380.393 260.486 379.807 260.486 379.14C260.486 378.513 260.646 377.967 260.966 377.5C261.286 377.033 261.719 376.673 262.266 376.42C262.813 376.167 263.419 376.04 264.086 376.04C264.993 376.04 265.813 376.28 266.546 376.76C267.293 377.227 267.819 377.88 268.126 378.72L266.846 379.32C266.579 378.72 266.193 378.253 265.686 377.92C265.193 377.573 264.639 377.4 264.026 377.4C263.426 377.4 262.946 377.553 262.586 377.86C262.226 378.167 262.046 378.553 262.046 379.02C262.046 379.38 262.139 379.667 262.326 379.88C262.513 380.093 262.726 380.253 262.966 380.36C263.219 380.467 263.439 380.547 263.626 380.6L265.406 381.12C266.273 381.373 266.946 381.767 267.426 382.3C267.919 382.833 268.166 383.46 268.166 384.18C268.166 384.767 267.999 385.293 267.666 385.76C267.346 386.227 266.899 386.593 266.326 386.86C265.753 387.113 265.093 387.24 264.346 387.24Z" fill="white"/>
<g clip-path="url(#clip2_1_660)">
<path d="M63 438C70.1799 438 76 432.18 76 425C76 417.82 70.1799 412 63 412C55.8201 412 50 417.82 50 425C50 432.18 55.8201 438 63 438Z" fill="#181818"/>
<path d="M57.1168 425.84L60.4786 429.202L68.8832 420.798" stroke="white" stroke-width="2" stroke-linecap="round" stroke-linejoin="round"/>
</g>
<path d="M97.76 433V418.1H102.88C103.853 418.1 104.707 418.293 105.44 418.68C106.173 419.053 106.74 419.587 107.14 420.28C107.553 420.96 107.76 421.753 107.76 422.66C107.76 423.567 107.553 424.36 107.14 425.04C106.74 425.72 106.173 426.253 105.44 426.64C104.72 427.013 103.867 427.2 102.88 427.2H99.36V433H97.76ZM99.36 425.7H102.96C103.6 425.7 104.16 425.58 104.64 425.34C105.12 425.087 105.493 424.733 105.76 424.28C106.027 423.813 106.16 423.267 106.16 422.64C106.16 422.013 106.027 421.473 105.76 421.02C105.493 420.567 105.12 420.22 104.64 419.98C104.16 419.727 103.6 419.6 102.96 419.6H99.36V425.7ZM110.392 433V422.28H111.892V424.04L111.692 423.78C111.945 423.273 112.325 422.873 112.832 422.58C113.352 422.287 113.978 422.14 114.712 422.14H115.392V423.64H114.452C113.678 423.64 113.058 423.88 112.592 424.36C112.125 424.84 111.892 425.52 111.892 426.4V433H110.392ZM122.169 433.24C121.156 433.24 120.236 433 119.409 432.52C118.583 432.027 117.923 431.36 117.429 430.52C116.949 429.667 116.709 428.7 116.709 427.62C116.709 426.553 116.949 425.6 117.429 424.76C117.909 423.92 118.556 423.26 119.369 422.78C120.196 422.287 121.129 422.04 122.169 422.04C123.209 422.04 124.136 422.28 124.949 422.76C125.776 423.24 126.423 423.9 126.889 424.74C127.369 425.58 127.609 426.54 127.609 427.62C127.609 428.713 127.363 429.687 126.869 430.54C126.376 431.38 125.716 432.04 124.889 432.52C124.076 433 123.169 433.24 122.169 433.24ZM122.169 431.74C122.889 431.74 123.536 431.56 124.109 431.2C124.696 430.84 125.156 430.347 125.489 429.72C125.836 429.093 126.009 428.393 126.009 427.62C126.009 426.847 125.836 426.153 125.489 425.54C125.156 424.927 124.696 424.44 124.109 424.08C123.536 423.72 122.889 423.54 122.169 423.54C121.449 423.54 120.796 423.72 120.209 424.08C119.636 424.44 119.176 424.927 118.829 425.54C118.483 426.153 118.309 426.847 118.309 427.62C118.309 428.393 118.483 429.093 118.829 429.72C119.176 430.347 119.636 430.84 120.209 431.2C120.796 431.56 121.449 431.74 122.169 431.74ZM130.964 433V423.78H128.824V422.28H130.964V421.32C130.964 420.573 131.131 419.947 131.464 419.44C131.798 418.92 132.238 418.527 132.784 418.26C133.331 417.993 133.918 417.86 134.544 417.86C134.678 417.86 134.831 417.873 135.004 417.9C135.178 417.913 135.318 417.933 135.424 417.96V419.32C135.331 419.293 135.204 419.28 135.044 419.28C134.884 419.267 134.771 419.26 134.704 419.26C134.064 419.26 133.531 419.413 133.104 419.72C132.678 420.027 132.464 420.56 132.464 421.32V422.28H135.084V423.78H132.464V433H130.964ZM141.99 433.24C140.99 433.24 140.084 433 139.27 432.52C138.47 432.027 137.837 431.353 137.37 430.5C136.904 429.647 136.67 428.68 136.67 427.6C136.67 426.52 136.897 425.567 137.35 424.74C137.804 423.9 138.417 423.24 139.19 422.76C139.977 422.28 140.857 422.04 141.83 422.04C142.604 422.04 143.29 422.187 143.89 422.48C144.504 422.76 145.024 423.147 145.45 423.64C145.877 424.12 146.204 424.667 146.43 425.28C146.657 425.88 146.77 426.5 146.77 427.14C146.77 427.273 146.764 427.427 146.75 427.6C146.737 427.76 146.717 427.927 146.69 428.1H137.63V426.7H145.83L145.11 427.3C145.23 426.567 145.144 425.913 144.85 425.34C144.57 424.753 144.164 424.293 143.63 423.96C143.097 423.613 142.497 423.44 141.83 423.44C141.164 423.44 140.544 423.613 139.97 423.96C139.41 424.307 138.97 424.793 138.65 425.42C138.33 426.033 138.204 426.767 138.27 427.62C138.204 428.473 138.337 429.22 138.67 429.86C139.017 430.487 139.484 430.973 140.07 431.32C140.67 431.667 141.31 431.84 141.99 431.84C142.777 431.84 143.437 431.653 143.97 431.28C144.504 430.907 144.937 430.44 145.27 429.88L146.55 430.56C146.337 431.04 146.01 431.487 145.57 431.9C145.13 432.3 144.604 432.627 143.99 432.88C143.39 433.12 142.724 433.24 141.99 433.24ZM153.135 433.24C152.108 433.24 151.208 432.98 150.435 432.46C149.662 431.94 149.102 431.233 148.755 430.34L150.015 429.74C150.322 430.393 150.748 430.913 151.295 431.3C151.855 431.687 152.468 431.88 153.135 431.88C153.775 431.88 154.315 431.727 154.755 431.42C155.195 431.1 155.415 430.687 155.415 430.18C155.415 429.807 155.308 429.513 155.095 429.3C154.882 429.073 154.635 428.9 154.355 428.78C154.075 428.66 153.828 428.573 153.615 428.52L152.075 428.08C151.088 427.8 150.375 427.407 149.935 426.9C149.495 426.393 149.275 425.807 149.275 425.14C149.275 424.513 149.435 423.967 149.755 423.5C150.075 423.033 150.508 422.673 151.055 422.42C151.602 422.167 152.208 422.04 152.875 422.04C153.782 422.04 154.602 422.28 155.335 422.76C156.082 423.227 156.608 423.88 156.915 424.72L155.635 425.32C155.368 424.72 154.982 424.253 154.475 423.92C153.982 423.573 153.428 423.4 152.815 423.4C152.215 423.4 151.735 423.553 151.375 423.86C151.015 424.167 150.835 424.553 150.835 425.02C150.835 425.38 150.928 425.667 151.115 425.88C151.302 426.093 151.515 426.253 151.755 426.36C152.008 426.467 152.228 426.547 152.415 426.6L154.195 427.12C155.062 427.373 155.735 427.767 156.215 428.3C156.708 428.833 156.955 429.46 156.955 430.18C156.955 430.767 156.788 431.293 156.455 431.76C156.135 432.227 155.688 432.593 155.115 432.86C154.542 433.113 153.882 433.24 153.135 433.24ZM163.311 433.24C162.284 433.24 161.384 432.98 160.611 432.46C159.837 431.94 159.277 431.233 158.931 430.34L160.191 429.74C160.497 430.393 160.924 430.913 161.471 431.3C162.031 431.687 162.644 431.88 163.311 431.88C163.951 431.88 164.491 431.727 164.931 431.42C165.371 431.1 165.591 430.687 165.591 430.18C165.591 429.807 165.484 429.513 165.271 429.3C165.057 429.073 164.811 428.9 164.531 428.78C164.251 428.66 164.004 428.573 163.791 428.52L162.251 428.08C161.264 427.8 160.551 427.407 160.111 426.9C159.671 426.393 159.451 425.807 159.451 425.14C159.451 424.513 159.611 423.967 159.931 423.5C160.251 423.033 160.684 422.673 161.231 422.42C161.777 422.167 162.384 422.04 163.051 422.04C163.957 422.04 164.777 422.28 165.511 422.76C166.257 423.227 166.784 423.88 167.091 424.72L165.811 425.32C165.544 424.72 165.157 424.253 164.651 423.92C164.157 423.573 163.604 423.4 162.991 423.4C162.391 423.4 161.911 423.553 161.551 423.86C161.191 424.167 161.011 424.553 161.011 425.02C161.011 425.38 161.104 425.667 161.291 425.88C161.477 426.093 161.691 426.253 161.931 426.36C162.184 426.467 162.404 426.547 162.591 426.6L164.371 427.12C165.237 427.373 165.911 427.767 166.391 428.3C166.884 428.833 167.131 429.46 167.131 430.18C167.131 430.767 166.964 431.293 166.631 431.76C166.311 432.227 165.864 432.593 165.291 432.86C164.717 433.113 164.057 433.24 163.311 433.24ZM169.767 433V422.28H171.267V433H169.767ZM169.767 420.3V418.1H171.267V420.3H169.767ZM179.357 433.24C178.344 433.24 177.424 433 176.597 432.52C175.77 432.027 175.11 431.36 174.617 430.52C174.137 429.667 173.897 428.7 173.897 427.62C173.897 426.553 174.137 425.6 174.617 424.76C175.097 423.92 175.744 423.26 176.557 422.78C177.384 422.287 178.317 422.04 179.357 422.04C180.397 422.04 181.324 422.28 182.137 422.76C182.964 423.24 183.61 423.9 184.077 424.74C184.557 425.58 184.797 426.54 184.797 427.62C184.797 428.713 184.55 429.687 184.057 430.54C183.564 431.38 182.904 432.04 182.077 432.52C181.264 433 180.357 433.24 179.357 433.24ZM179.357 431.74C180.077 431.74 180.724 431.56 181.297 431.2C181.884 430.84 182.344 430.347 182.677 429.72C183.024 429.093 183.197 428.393 183.197 427.62C183.197 426.847 183.024 426.153 182.677 425.54C182.344 424.927 181.884 424.44 181.297 424.08C180.724 423.72 180.077 423.54 179.357 423.54C178.637 423.54 177.984 423.72 177.397 424.08C176.824 424.44 176.364 424.927 176.017 425.54C175.67 426.153 175.497 426.847 175.497 427.62C175.497 428.393 175.67 429.093 176.017 429.72C176.364 430.347 176.824 430.84 177.397 431.2C177.984 431.56 178.637 431.74 179.357 431.74ZM187.442 433V422.28H188.942V424.36L188.602 424.28C188.869 423.587 189.302 423.04 189.902 422.64C190.516 422.24 191.222 422.04 192.022 422.04C192.782 422.04 193.462 422.213 194.062 422.56C194.676 422.907 195.156 423.387 195.502 424C195.862 424.6 196.042 425.28 196.042 426.04V433H194.542V426.62C194.542 425.967 194.422 425.413 194.182 424.96C193.956 424.507 193.629 424.16 193.202 423.92C192.789 423.667 192.309 423.54 191.762 423.54C191.216 423.54 190.729 423.667 190.302 423.92C189.876 424.16 189.542 424.513 189.302 424.98C189.062 425.433 188.942 425.98 188.942 426.62V433H187.442ZM202.007 433.24C201.327 433.24 200.721 433.113 200.187 432.86C199.654 432.593 199.234 432.233 198.927 431.78C198.621 431.327 198.467 430.807 198.467 430.22C198.467 429.66 198.587 429.153 198.827 428.7C199.067 428.233 199.441 427.84 199.947 427.52C200.454 427.2 201.101 426.973 201.887 426.84L206.087 426.14V427.5L202.247 428.14C201.474 428.273 200.914 428.52 200.567 428.88C200.234 429.24 200.067 429.667 200.067 430.16C200.067 430.64 200.254 431.047 200.627 431.38C201.014 431.713 201.507 431.88 202.107 431.88C202.841 431.88 203.481 431.727 204.027 431.42C204.574 431.1 205.001 430.673 205.307 430.14C205.614 429.607 205.767 429.013 205.767 428.36V425.64C205.767 425 205.534 424.48 205.067 424.08C204.601 423.68 203.994 423.48 203.247 423.48C202.594 423.48 202.021 423.647 201.527 423.98C201.034 424.3 200.667 424.72 200.427 425.24L199.067 424.5C199.267 424.047 199.581 423.633 200.007 423.26C200.447 422.887 200.947 422.593 201.507 422.38C202.067 422.153 202.647 422.04 203.247 422.04C204.034 422.04 204.727 422.193 205.327 422.5C205.941 422.807 206.414 423.233 206.747 423.78C207.094 424.313 207.267 424.933 207.267 425.64V433H205.767V430.86L205.987 431.08C205.801 431.48 205.507 431.847 205.107 432.18C204.721 432.5 204.261 432.76 203.727 432.96C203.207 433.147 202.634 433.24 202.007 433.24ZM210.353 433V417.86H211.853V433H210.353ZM222.041 433.24C221.015 433.24 220.115 432.98 219.341 432.46C218.568 431.94 218.008 431.233 217.661 430.34L218.921 429.74C219.228 430.393 219.655 430.913 220.201 431.3C220.761 431.687 221.375 431.88 222.041 431.88C222.681 431.88 223.221 431.727 223.661 431.42C224.101 431.1 224.321 430.687 224.321 430.18C224.321 429.807 224.215 429.513 224.001 429.3C223.788 429.073 223.541 428.9 223.261 428.78C222.981 428.66 222.735 428.573 222.521 428.52L220.981 428.08C219.995 427.8 219.281 427.407 218.841 426.9C218.401 426.393 218.181 425.807 218.181 425.14C218.181 424.513 218.341 423.967 218.661 423.5C218.981 423.033 219.415 422.673 219.961 422.42C220.508 422.167 221.115 422.04 221.781 422.04C222.688 422.04 223.508 422.28 224.241 422.76C224.988 423.227 225.515 423.88 225.821 424.72L224.541 425.32C224.275 424.72 223.888 424.253 223.381 423.92C222.888 423.573 222.335 423.4 221.721 423.4C221.121 423.4 220.641 423.553 220.281 423.86C219.921 424.167 219.741 424.553 219.741 425.02C219.741 425.38 219.835 425.667 220.021 425.88C220.208 426.093 220.421 426.253 220.661 426.36C220.915 426.467 221.135 426.547 221.321 426.6L223.101 427.12C223.968 427.373 224.641 427.767 225.121 428.3C225.615 428.833 225.861 429.46 225.861 430.18C225.861 430.767 225.695 431.293 225.361 431.76C225.041 432.227 224.595 432.593 224.021 432.86C223.448 433.113 222.788 433.24 222.041 433.24ZM232.297 433.24C231.55 433.24 230.87 433.067 230.257 432.72C229.644 432.36 229.157 431.867 228.797 431.24C228.45 430.6 228.277 429.867 228.277 429.04V422.28H229.777V428.86C229.777 429.433 229.89 429.94 230.117 430.38C230.357 430.807 230.684 431.14 231.097 431.38C231.524 431.62 232.01 431.74 232.557 431.74C233.104 431.74 233.59 431.62 234.017 431.38C234.444 431.127 234.777 430.773 235.017 430.32C235.257 429.853 235.377 429.3 235.377 428.66V422.28H236.877V433H235.377V430.92L235.717 431C235.464 431.693 235.03 432.24 234.417 432.64C233.804 433.04 233.097 433.24 232.297 433.24ZM239.962 437V422.28H241.462V424.68L241.222 424.26C241.649 423.58 242.215 423.04 242.922 422.64C243.642 422.24 244.462 422.04 245.382 422.04C246.395 422.04 247.295 422.287 248.082 422.78C248.882 423.26 249.509 423.92 249.962 424.76C250.429 425.6 250.662 426.56 250.662 427.64C250.662 428.707 250.429 429.667 249.962 430.52C249.509 431.36 248.882 432.027 248.082 432.52C247.295 433 246.395 433.24 245.382 433.24C244.462 433.24 243.629 433.033 242.882 432.62C242.149 432.193 241.595 431.593 241.222 430.82L241.462 430.6V437H239.962ZM245.302 431.74C246.022 431.74 246.662 431.56 247.222 431.2C247.795 430.84 248.242 430.353 248.562 429.74C248.895 429.113 249.062 428.413 249.062 427.64C249.062 426.853 248.895 426.153 248.562 425.54C248.242 424.927 247.795 424.44 247.222 424.08C246.662 423.72 246.022 423.54 245.302 423.54C244.582 423.54 243.929 423.72 243.342 424.08C242.769 424.44 242.309 424.933 241.962 425.56C241.629 426.173 241.462 426.867 241.462 427.64C241.462 428.413 241.629 429.113 241.962 429.74C242.309 430.353 242.769 430.84 243.342 431.2C243.929 431.56 244.582 431.74 245.302 431.74ZM253.302 437V422.28H254.802V424.68L254.562 424.26C254.988 423.58 255.555 423.04 256.262 422.64C256.982 422.24 257.802 422.04 258.722 422.04C259.735 422.04 260.635 422.287 261.422 422.78C262.222 423.26 262.848 423.92 263.302 424.76C263.768 425.6 264.002 426.56 264.002 427.64C264.002 428.707 263.768 429.667 263.302 430.52C262.848 431.36 262.222 432.027 261.422 432.52C260.635 433 259.735 433.24 258.722 433.24C257.802 433.24 256.968 433.033 256.222 432.62C255.488 432.193 254.935 431.593 254.562 430.82L254.802 430.6V437H253.302ZM258.642 431.74C259.362 431.74 260.002 431.56 260.562 431.2C261.135 430.84 261.582 430.353 261.902 429.74C262.235 429.113 262.402 428.413 262.402 427.64C262.402 426.853 262.235 426.153 261.902 425.54C261.582 424.927 261.135 424.44 260.562 424.08C260.002 423.72 259.362 423.54 258.642 423.54C257.922 423.54 257.268 423.72 256.682 424.08C256.108 424.44 255.648 424.933 255.302 425.56C254.968 426.173 254.802 426.867 254.802 427.64C254.802 428.413 254.968 429.113 255.302 429.74C255.648 430.353 256.108 430.84 256.682 431.2C257.268 431.56 257.922 431.74 258.642 431.74ZM271.662 433.24C270.648 433.24 269.728 433 268.902 432.52C268.075 432.027 267.415 431.36 266.922 430.52C266.442 429.667 266.202 428.7 266.202 427.62C266.202 426.553 266.442 425.6 266.922 424.76C267.402 423.92 268.048 423.26 268.862 422.78C269.688 422.287 270.622 422.04 271.662 422.04C272.702 422.04 273.628 422.28 274.442 422.76C275.268 423.24 275.915 423.9 276.382 424.74C276.862 425.58 277.102 426.54 277.102 427.62C277.102 428.713 276.855 429.687 276.362 430.54C275.868 431.38 275.208 432.04 274.382 432.52C273.568 433 272.662 433.24 271.662 433.24ZM271.662 431.74C272.382 431.74 273.028 431.56 273.602 431.2C274.188 430.84 274.648 430.347 274.982 429.72C275.328 429.093 275.502 428.393 275.502 427.62C275.502 426.847 275.328 426.153 274.982 425.54C274.648 424.927 274.188 424.44 273.602 424.08C273.028 423.72 272.382 423.54 271.662 423.54C270.942 423.54 270.288 423.72 269.702 424.08C269.128 424.44 268.668 424.927 268.322 425.54C267.975 426.153 267.802 426.847 267.802 427.62C267.802 428.393 267.975 429.093 268.322 429.72C268.668 430.347 269.128 430.84 269.702 431.2C270.288 431.56 270.942 431.74 271.662 431.74ZM279.747 433V422.28H281.247V424.04L281.047 423.78C281.3 423.273 281.68 422.873 282.187 422.58C282.707 422.287 283.334 422.14 284.067 422.14H284.747V423.64H283.807C283.034 423.64 282.414 423.88 281.947 424.36C281.48 424.84 281.247 425.52 281.247 426.4V433H279.747ZM290.605 433.12C289.645 433.12 288.905 432.84 288.385 432.28C287.865 431.72 287.605 430.92 287.605 429.88V423.78H285.625V422.28H286.125C286.578 422.28 286.938 422.133 287.205 421.84C287.472 421.533 287.605 421.153 287.605 420.7V419.8H289.105V422.28H291.465V423.78H289.105V429.88C289.105 430.24 289.158 430.56 289.265 430.84C289.372 431.107 289.552 431.32 289.805 431.48C290.072 431.64 290.425 431.72 290.865 431.72C290.972 431.72 291.098 431.713 291.245 431.7C291.392 431.687 291.518 431.673 291.625 431.66V433C291.465 433.04 291.285 433.067 291.085 433.08C290.885 433.107 290.725 433.12 290.605 433.12Z" fill="white"/>
<g clip-path="url(#clip3_1_660)">
<path d="M63 484C70.1799 484 76 478.18 76 471C76 463.82 70.1799 458 63 458C55.8201 458 50 463.82 50 471C50 478.18 55.8201 484 63 484Z" fill="#181818"/>
<path d="M57.1168 471.84L60.4786 475.202L68.8832 466.798" stroke="white" stroke-width="2" stroke-linecap="round" stroke-linejoin="round"/>
</g>
<path d="M97.16 479V478L101.32 473.42C102.133 472.527 102.793 471.787 103.3 471.2C103.82 470.613 104.207 470.08 104.46 469.6C104.713 469.12 104.84 468.6 104.84 468.04C104.84 467.147 104.58 466.46 104.06 465.98C103.54 465.5 102.847 465.26 101.98 465.26C101.087 465.26 100.333 465.513 99.72 466.02C99.12 466.527 98.7133 467.233 98.5 468.14L97.04 467.82C97.2133 467.007 97.5267 466.307 97.98 465.72C98.4333 465.133 99 464.68 99.68 464.36C100.36 464.027 101.12 463.86 101.96 463.86C102.853 463.86 103.633 464.04 104.3 464.4C104.967 464.76 105.487 465.253 105.86 465.88C106.247 466.507 106.44 467.227 106.44 468.04C106.44 468.6 106.32 469.14 106.08 469.66C105.853 470.18 105.507 470.74 105.04 471.34C104.573 471.94 103.973 472.64 103.24 473.44L99.46 477.6H106.84V479H97.16ZM116.297 479V475.48H108.717V474.18L116.297 464.1H117.697V474.18H119.517V475.48H117.697V479H116.297ZM109.937 474.76L109.757 474.18H116.297V465.48L116.797 465.62L109.937 474.76ZM120.435 481.4L127.195 464.92H128.935L122.175 481.4H120.435ZM130.549 479L137.269 465.5H129.829V464.1H138.929V465.5L132.229 479H130.549ZM144.987 479V464.1H146.587V470.8H154.587V464.1H156.187V479H154.587V472.3H146.587V479H144.987ZM164.373 479.24C163.373 479.24 162.466 479 161.653 478.52C160.853 478.027 160.22 477.353 159.753 476.5C159.286 475.647 159.053 474.68 159.053 473.6C159.053 472.52 159.28 471.567 159.733 470.74C160.186 469.9 160.8 469.24 161.573 468.76C162.36 468.28 163.24 468.04 164.213 468.04C164.986 468.04 165.673 468.187 166.273 468.48C166.886 468.76 167.406 469.147 167.833 469.64C168.26 470.12 168.586 470.667 168.813 471.28C169.04 471.88 169.153 472.5 169.153 473.14C169.153 473.273 169.146 473.427 169.133 473.6C169.12 473.76 169.1 473.927 169.073 474.1H160.013V472.7H168.213L167.493 473.3C167.613 472.567 167.526 471.913 167.233 471.34C166.953 470.753 166.546 470.293 166.013 469.96C165.48 469.613 164.88 469.44 164.213 469.44C163.546 469.44 162.926 469.613 162.353 469.96C161.793 470.307 161.353 470.793 161.033 471.42C160.713 472.033 160.586 472.767 160.653 473.62C160.586 474.473 160.72 475.22 161.053 475.86C161.4 476.487 161.866 476.973 162.453 477.32C163.053 477.667 163.693 477.84 164.373 477.84C165.16 477.84 165.82 477.653 166.353 477.28C166.886 476.907 167.32 476.44 167.653 475.88L168.933 476.56C168.72 477.04 168.393 477.487 167.953 477.9C167.513 478.3 166.986 478.627 166.373 478.88C165.773 479.12 165.106 479.24 164.373 479.24ZM171.798 479V463.86H173.298V479H171.798ZM176.368 483V468.28H177.868V470.68L177.628 470.26C178.055 469.58 178.621 469.04 179.328 468.64C180.048 468.24 180.868 468.04 181.788 468.04C182.801 468.04 183.701 468.287 184.488 468.78C185.288 469.26 185.915 469.92 186.368 470.76C186.835 471.6 187.068 472.56 187.068 473.64C187.068 474.707 186.835 475.667 186.368 476.52C185.915 477.36 185.288 478.027 184.488 478.52C183.701 479 182.801 479.24 181.788 479.24C180.868 479.24 180.035 479.033 179.288 478.62C178.555 478.193 178.001 477.593 177.628 476.82L177.868 476.6V483H176.368ZM181.708 477.74C182.428 477.74 183.068 477.56 183.628 477.2C184.201 476.84 184.648 476.353 184.968 475.74C185.301 475.113 185.468 474.413 185.468 473.64C185.468 472.853 185.301 472.153 184.968 471.54C184.648 470.927 184.201 470.44 183.628 470.08C183.068 469.72 182.428 469.54 181.708 469.54C180.988 469.54 180.335 469.72 179.748 470.08C179.175 470.44 178.715 470.933 178.368 471.56C178.035 472.173 177.868 472.867 177.868 473.64C177.868 474.413 178.035 475.113 178.368 475.74C178.715 476.353 179.175 476.84 179.748 477.2C180.335 477.56 180.988 477.74 181.708 477.74ZM189.708 479V463.86H191.208V479H189.708ZM194.278 479V468.28H195.778V479H194.278ZM194.278 466.3V464.1H195.778V466.3H194.278ZM198.849 479V468.28H200.349V470.36L200.009 470.28C200.275 469.587 200.709 469.04 201.309 468.64C201.922 468.24 202.629 468.04 203.429 468.04C204.189 468.04 204.869 468.213 205.469 468.56C206.082 468.907 206.562 469.387 206.909 470C207.269 470.6 207.449 471.28 207.449 472.04V479H205.949V472.62C205.949 471.967 205.829 471.413 205.589 470.96C205.362 470.507 205.035 470.16 204.609 469.92C204.195 469.667 203.715 469.54 203.169 469.54C202.622 469.54 202.135 469.667 201.709 469.92C201.282 470.16 200.949 470.513 200.709 470.98C200.469 471.433 200.349 471.98 200.349 472.62V479H198.849ZM215.193 479.24C214.193 479.24 213.287 479 212.473 478.52C211.673 478.027 211.04 477.353 210.573 476.5C210.107 475.647 209.873 474.68 209.873 473.6C209.873 472.52 210.1 471.567 210.553 470.74C211.007 469.9 211.62 469.24 212.393 468.76C213.18 468.28 214.06 468.04 215.033 468.04C215.807 468.04 216.493 468.187 217.093 468.48C217.707 468.76 218.227 469.147 218.653 469.64C219.08 470.12 219.407 470.667 219.633 471.28C219.86 471.88 219.973 472.5 219.973 473.14C219.973 473.273 219.967 473.427 219.953 473.6C219.94 473.76 219.92 473.927 219.893 474.1H210.833V472.7H219.033L218.313 473.3C218.433 472.567 218.347 471.913 218.053 471.34C217.773 470.753 217.367 470.293 216.833 469.96C216.3 469.613 215.7 469.44 215.033 469.44C214.367 469.44 213.747 469.613 213.173 469.96C212.613 470.307 212.173 470.793 211.853 471.42C211.533 472.033 211.407 472.767 211.473 473.62C211.407 474.473 211.54 475.22 211.873 475.86C212.22 476.487 212.687 476.973 213.273 477.32C213.873 477.667 214.513 477.84 215.193 477.84C215.98 477.84 216.64 477.653 217.173 477.28C217.707 476.907 218.14 476.44 218.473 475.88L219.753 476.56C219.54 477.04 219.213 477.487 218.773 477.9C218.333 478.3 217.807 478.627 217.193 478.88C216.593 479.12 215.927 479.24 215.193 479.24Z" fill="white"/>
<path d="M68.252 235.648C65.696 235.648 63.32 235.18 61.124 234.244C58.964 233.308 57.092 232.012 55.508 230.356C53.96 228.664 52.826 226.702 52.106 224.47L58.208 221.824C59.18 224.128 60.584 225.946 62.42 227.278C64.256 228.574 66.326 229.222 68.63 229.222C69.926 229.222 71.042 229.024 71.978 228.628C72.95 228.196 73.688 227.62 74.192 226.9C74.732 226.18 75.002 225.316 75.002 224.308C75.002 223.12 74.642 222.148 73.922 221.392C73.238 220.6 72.194 219.988 70.79 219.556L63.068 217.072C59.936 216.1 57.578 214.642 55.994 212.698C54.41 210.754 53.618 208.468 53.618 205.84C53.618 203.536 54.176 201.502 55.292 199.738C56.444 197.974 58.028 196.606 60.044 195.634C62.096 194.626 64.436 194.122 67.064 194.122C69.476 194.122 71.69 194.554 73.706 195.418C75.722 196.246 77.45 197.416 78.89 198.928C80.366 200.404 81.464 202.15 82.184 204.166L76.136 206.866C75.344 204.85 74.156 203.302 72.572 202.222C70.988 201.106 69.152 200.548 67.064 200.548C65.84 200.548 64.76 200.764 63.824 201.196C62.888 201.592 62.15 202.168 61.61 202.924C61.106 203.644 60.854 204.508 60.854 205.516C60.854 206.632 61.214 207.622 61.934 208.486C62.654 209.314 63.752 209.962 65.228 210.43L72.626 212.752C75.83 213.796 78.224 215.236 79.808 217.072C81.428 218.908 82.238 221.176 82.238 223.876C82.238 226.18 81.644 228.214 80.456 229.978C79.268 231.742 77.63 233.128 75.542 234.136C73.454 235.144 71.024 235.648 68.252 235.648ZM65.66 240.4V189.37H70.25V240.4H65.66ZM100.785 235.648C98.5889 235.648 96.5009 235.252 94.5209 234.46C92.5769 233.632 90.9029 232.48 89.4989 231.004C88.1309 229.492 87.1949 227.71 86.6909 225.658L93.1169 223.39C93.7649 225.226 94.7549 226.63 96.0869 227.602C97.4189 228.538 98.9849 229.006 100.785 229.006C102.225 229.006 103.467 228.736 104.511 228.196C105.591 227.656 106.437 226.882 107.049 225.874C107.661 224.83 107.967 223.606 107.967 222.202C107.967 220.798 107.661 219.61 107.049 218.638C106.473 217.63 105.645 216.856 104.565 216.316C103.485 215.776 102.207 215.506 100.731 215.506C100.047 215.506 99.3269 215.578 98.5709 215.722C97.8509 215.866 97.2029 216.082 96.6269 216.37L94.9529 212.86L105.375 200.98H88.9589V194.77H113.637V200.548L103.161 212.806L103.269 210.052C105.681 210.088 107.787 210.61 109.587 211.618C111.387 212.626 112.791 214.012 113.799 215.776C114.807 217.54 115.311 219.61 115.311 221.986C115.311 224.578 114.681 226.918 113.421 229.006C112.161 231.058 110.433 232.678 108.237 233.866C106.041 235.054 103.557 235.648 100.785 235.648ZM123.051 235L136.713 217.396L137.955 218.692C137.415 219.088 136.893 219.412 136.389 219.664C135.885 219.916 135.345 220.096 134.769 220.204C134.193 220.312 133.581 220.366 132.933 220.366C130.485 220.366 128.307 219.808 126.399 218.692C124.491 217.576 122.979 216.064 121.863 214.156C120.783 212.212 120.243 210.016 120.243 207.568C120.243 204.976 120.837 202.672 122.025 200.656C123.249 198.64 124.905 197.056 126.993 195.904C129.117 194.716 131.529 194.122 134.229 194.122C136.965 194.122 139.377 194.698 141.465 195.85C143.553 197.002 145.191 198.586 146.379 200.602C147.603 202.582 148.215 204.868 148.215 207.46C148.215 208.756 148.071 210.052 147.783 211.348C147.495 212.644 146.973 214.03 146.217 215.506C145.497 216.946 144.453 218.584 143.085 220.42L131.853 235H123.051ZM134.229 214.21C135.489 214.21 136.605 213.94 137.577 213.4C138.585 212.824 139.377 212.032 139.953 211.024C140.529 209.98 140.817 208.81 140.817 207.514C140.817 206.146 140.511 204.958 139.899 203.95C139.323 202.942 138.549 202.15 137.577 201.574C136.605 200.998 135.489 200.71 134.229 200.71C133.005 200.71 131.889 200.998 130.881 201.574C129.873 202.15 129.063 202.942 128.451 203.95C127.875 204.958 127.587 206.146 127.587 207.514C127.587 208.81 127.875 209.98 128.451 211.024C129.063 212.032 129.873 212.824 130.881 213.4C131.889 213.94 133.005 214.21 134.229 214.21ZM155.535 235L169.197 217.396L170.439 218.692C169.899 219.088 169.377 219.412 168.873 219.664C168.369 219.916 167.829 220.096 167.253 220.204C166.677 220.312 166.065 220.366 165.417 220.366C162.969 220.366 160.791 219.808 158.883 218.692C156.975 217.576 155.463 216.064 154.347 214.156C153.267 212.212 152.727 210.016 152.727 207.568C152.727 204.976 153.321 202.672 154.509 200.656C155.733 198.64 157.389 197.056 159.477 195.904C161.601 194.716 164.013 194.122 166.713 194.122C169.449 194.122 171.861 194.698 173.949 195.85C176.037 197.002 177.675 198.586 178.863 200.602C180.087 202.582 180.699 204.868 180.699 207.46C180.699 208.756 180.555 210.052 180.267 211.348C179.979 212.644 179.457 214.03 178.701 215.506C177.981 216.946 176.937 218.584 175.569 220.42L164.337 235H155.535ZM166.713 214.21C167.973 214.21 169.089 213.94 170.061 213.4C171.069 212.824 171.861 212.032 172.437 211.024C173.013 209.98 173.301 208.81 173.301 207.514C173.301 206.146 172.995 204.958 172.383 203.95C171.807 202.942 171.033 202.15 170.061 201.574C169.089 200.998 167.973 200.71 166.713 200.71C165.489 200.71 164.373 200.998 163.365 201.574C162.357 202.15 161.547 202.942 160.935 203.95C160.359 204.958 160.071 206.146 160.071 207.514C160.071 208.81 160.359 209.98 160.935 211.024C161.547 212.032 162.357 212.824 163.365 213.4C164.373 213.94 165.489 214.21 166.713 214.21Z" fill="white"/>
<path d="M186.14 233.184L192.86 216.704H194.96L188.24 233.184H186.14ZM196.542 230.784V220.004H198.362V222.204L198.102 221.864C198.368 221.184 198.795 220.664 199.382 220.304C199.968 219.944 200.628 219.764 201.362 219.764C202.202 219.764 202.955 219.998 203.622 220.464C204.302 220.931 204.768 221.544 205.022 222.304L204.502 222.324C204.782 221.484 205.255 220.851 205.922 220.424C206.588 219.984 207.328 219.764 208.142 219.764C208.888 219.764 209.562 219.938 210.162 220.284C210.775 220.631 211.262 221.111 211.622 221.724C211.982 222.338 212.162 223.031 212.162 223.804V230.784H210.282V224.404C210.282 223.804 210.175 223.298 209.962 222.884C209.748 222.471 209.455 222.151 209.082 221.924C208.722 221.684 208.295 221.564 207.802 221.564C207.322 221.564 206.888 221.684 206.502 221.924C206.128 222.151 205.828 222.478 205.602 222.904C205.388 223.318 205.282 223.818 205.282 224.404V230.784H203.402V224.404C203.402 223.804 203.295 223.298 203.082 222.884C202.868 222.471 202.575 222.151 202.202 221.924C201.842 221.684 201.415 221.564 200.922 221.564C200.442 221.564 200.008 221.684 199.622 221.924C199.248 222.151 198.948 222.478 198.722 222.904C198.508 223.318 198.402 223.818 198.402 224.404V230.784H196.542ZM219.923 231.024C218.883 231.024 217.943 230.784 217.103 230.304C216.263 229.811 215.597 229.138 215.103 228.284C214.61 227.431 214.363 226.464 214.363 225.384C214.363 224.304 214.603 223.344 215.083 222.504C215.577 221.664 216.243 220.998 217.083 220.504C217.923 220.011 218.87 219.764 219.923 219.764C220.963 219.764 221.903 220.011 222.743 220.504C223.583 220.984 224.243 221.644 224.723 222.484C225.217 223.324 225.463 224.291 225.463 225.384C225.463 226.478 225.21 227.451 224.703 228.304C224.197 229.144 223.523 229.811 222.683 230.304C221.857 230.784 220.937 231.024 219.923 231.024ZM219.923 229.224C220.59 229.224 221.19 229.058 221.723 228.724C222.27 228.391 222.697 227.931 223.003 227.344C223.323 226.758 223.483 226.104 223.483 225.384C223.483 224.651 223.323 224.004 223.003 223.444C222.697 222.871 222.27 222.418 221.723 222.084C221.19 221.738 220.59 221.564 219.923 221.564C219.243 221.564 218.63 221.738 218.083 222.084C217.55 222.418 217.123 222.871 216.803 223.444C216.483 224.004 216.323 224.651 216.323 225.384C216.323 226.104 216.483 226.758 216.803 227.344C217.123 227.931 217.55 228.391 218.083 228.724C218.63 229.058 219.243 229.224 219.923 229.224ZM227.889 230.784V220.004H229.709V222.104L229.409 221.924C229.676 221.244 230.103 220.718 230.689 220.344C231.289 219.958 231.989 219.764 232.789 219.764C233.563 219.764 234.249 219.938 234.849 220.284C235.463 220.631 235.943 221.111 236.289 221.724C236.649 222.338 236.829 223.031 236.829 223.804V230.784H234.949V224.404C234.949 223.804 234.843 223.298 234.629 222.884C234.416 222.471 234.109 222.151 233.709 221.924C233.323 221.684 232.876 221.564 232.369 221.564C231.863 221.564 231.409 221.684 231.009 221.924C230.623 222.151 230.316 222.478 230.089 222.904C229.863 223.318 229.749 223.818 229.749 224.404V230.784H227.889ZM243.871 230.904C242.818 230.904 242.004 230.604 241.431 230.004C240.871 229.404 240.591 228.558 240.591 227.464V221.784H238.631V220.004H239.031C239.511 220.004 239.891 219.858 240.171 219.564C240.451 219.271 240.591 218.884 240.591 218.404V217.524H242.451V220.004H244.871V221.784H242.451V227.404C242.451 227.764 242.504 228.078 242.611 228.344C242.731 228.611 242.924 228.824 243.191 228.984C243.458 229.131 243.811 229.204 244.251 229.204C244.344 229.204 244.458 229.198 244.591 229.184C244.738 229.171 244.871 229.158 244.991 229.144V230.784C244.818 230.824 244.624 230.851 244.411 230.864C244.198 230.891 244.018 230.904 243.871 230.904ZM247.421 230.784V215.644H249.281V222.104L248.941 221.924C249.207 221.244 249.634 220.718 250.221 220.344C250.821 219.958 251.521 219.764 252.321 219.764C253.094 219.764 253.781 219.938 254.381 220.284C254.994 220.631 255.474 221.111 255.821 221.724C256.181 222.338 256.361 223.031 256.361 223.804V230.784H254.481V224.404C254.481 223.804 254.367 223.298 254.141 222.884C253.927 222.471 253.627 222.151 253.241 221.924C252.854 221.684 252.407 221.564 251.901 221.564C251.407 221.564 250.961 221.684 250.561 221.924C250.161 222.151 249.847 222.478 249.621 222.904C249.394 223.318 249.281 223.818 249.281 224.404V230.784H247.421ZM259.022 230.784V215.644H260.882V230.784H259.022ZM264.348 235.184C264.108 235.184 263.868 235.164 263.628 235.124C263.388 235.098 263.162 235.038 262.948 234.944V233.284C263.095 233.298 263.275 233.324 263.488 233.364C263.715 233.404 263.935 233.424 264.148 233.424C264.775 233.424 265.248 233.284 265.568 233.004C265.902 232.724 266.215 232.251 266.508 231.584L267.188 229.964L267.148 231.584L262.548 220.004H264.568L268.148 229.204H267.548L271.108 220.004H273.168L268.308 232.064C268.082 232.638 267.788 233.164 267.428 233.644C267.082 234.124 266.655 234.498 266.148 234.764C265.642 235.044 265.042 235.184 264.348 235.184Z" fill="white"/>
<rect x="50.5" y="524.5" width="307" height="59" rx="29.5" stroke="url(#paint1_linear_1_660)"/>
<path d="M165.323 561.216C164.363 561.216 163.475 561.042 162.659 560.694C161.843 560.346 161.129 559.86 160.517 559.236C159.905 558.612 159.425 557.88 159.077 557.04C158.741 556.2 158.573 555.282 158.573 554.286C158.573 553.29 158.735 552.372 159.059 551.532C159.395 550.68 159.863 549.948 160.463 549.336C161.075 548.712 161.789 548.232 162.605 547.896C163.421 547.548 164.309 547.374 165.269 547.374C166.229 547.374 167.087 547.536 167.843 547.86C168.611 548.184 169.259 548.616 169.787 549.156C170.315 549.684 170.693 550.266 170.921 550.902L168.743 551.946C168.491 551.25 168.065 550.686 167.465 550.254C166.865 549.822 166.133 549.606 165.269 549.606C164.429 549.606 163.685 549.804 163.037 550.2C162.401 550.596 161.903 551.142 161.543 551.838C161.195 552.534 161.021 553.35 161.021 554.286C161.021 555.222 161.201 556.044 161.561 556.752C161.933 557.448 162.443 557.994 163.091 558.39C163.739 558.786 164.483 558.984 165.323 558.984C166.007 558.984 166.637 558.852 167.213 558.588C167.789 558.312 168.251 557.928 168.599 557.436C168.947 556.932 169.121 556.338 169.121 555.654V554.628L170.237 555.6H165.269V553.53H171.569V554.88C171.569 555.912 171.395 556.824 171.047 557.616C170.699 558.408 170.225 559.074 169.625 559.614C169.037 560.142 168.371 560.544 167.627 560.82C166.883 561.084 166.115 561.216 165.323 561.216ZM177.952 561.216C176.944 561.216 176.062 560.988 175.306 560.532C174.55 560.076 173.962 559.458 173.542 558.678C173.122 557.898 172.912 557.034 172.912 556.086C172.912 555.102 173.122 554.232 173.542 553.476C173.974 552.708 174.556 552.102 175.288 551.658C176.032 551.214 176.86 550.992 177.772 550.992C178.54 550.992 179.212 551.118 179.788 551.37C180.376 551.622 180.874 551.97 181.282 552.414C181.69 552.858 182.002 553.368 182.218 553.944C182.434 554.508 182.542 555.12 182.542 555.78C182.542 555.948 182.53 556.122 182.506 556.302C182.494 556.482 182.464 556.638 182.416 556.77H174.856V554.97H181.084L179.968 555.816C180.076 555.264 180.046 554.772 179.878 554.34C179.722 553.908 179.458 553.566 179.086 553.314C178.726 553.062 178.288 552.936 177.772 552.936C177.28 552.936 176.842 553.062 176.458 553.314C176.074 553.554 175.78 553.914 175.576 554.394C175.384 554.862 175.312 555.432 175.36 556.104C175.312 556.704 175.39 557.238 175.594 557.706C175.81 558.162 176.122 558.516 176.53 558.768C176.95 559.02 177.43 559.146 177.97 559.146C178.51 559.146 178.966 559.032 179.338 558.804C179.722 558.576 180.022 558.27 180.238 557.886L182.146 558.822C181.954 559.29 181.654 559.704 181.246 560.064C180.838 560.424 180.352 560.706 179.788 560.91C179.236 561.114 178.624 561.216 177.952 561.216ZM188.793 561.108C187.689 561.108 186.831 560.808 186.219 560.208C185.619 559.596 185.319 558.738 185.319 557.634V553.314H183.627V551.208H183.807C184.287 551.208 184.659 551.082 184.923 550.83C185.187 550.578 185.319 550.212 185.319 549.732V548.976H187.677V551.208H189.927V553.314H187.677V557.508C187.677 557.832 187.731 558.108 187.839 558.336C187.959 558.564 188.139 558.738 188.379 558.858C188.631 558.978 188.949 559.038 189.333 559.038C189.417 559.038 189.513 559.032 189.621 559.02C189.741 559.008 189.855 558.996 189.963 558.984V561C189.795 561.024 189.603 561.048 189.387 561.072C189.171 561.096 188.973 561.108 188.793 561.108ZM195.162 561V547.59H197.61V561H195.162ZM204.456 561.108C203.352 561.108 202.494 560.808 201.882 560.208C201.282 559.596 200.982 558.738 200.982 557.634V553.314H199.29V551.208H199.47C199.95 551.208 200.322 551.082 200.586 550.83C200.85 550.578 200.982 550.212 200.982 549.732V548.976H203.34V551.208H205.59V553.314H203.34V557.508C203.34 557.832 203.394 558.108 203.502 558.336C203.622 558.564 203.802 558.738 204.042 558.858C204.294 558.978 204.612 559.038 204.996 559.038C205.08 559.038 205.176 559.032 205.284 559.02C205.404 559.008 205.518 558.996 205.626 558.984V561C205.458 561.024 205.266 561.048 205.05 561.072C204.834 561.096 204.636 561.108 204.456 561.108ZM210.824 561V547.59H212.732L220.112 557.526L219.122 557.724V547.59H221.57V561H219.644L212.372 550.992L213.272 550.794V561H210.824ZM228.756 561.216C227.796 561.216 226.92 560.994 226.128 560.55C225.348 560.106 224.724 559.5 224.256 558.732C223.8 557.964 223.572 557.088 223.572 556.104C223.572 555.12 223.8 554.244 224.256 553.476C224.724 552.708 225.348 552.102 226.128 551.658C226.908 551.214 227.784 550.992 228.756 550.992C229.716 550.992 230.586 551.214 231.366 551.658C232.146 552.102 232.764 552.708 233.22 553.476C233.688 554.232 233.922 555.108 233.922 556.104C233.922 557.088 233.688 557.964 233.22 558.732C232.752 559.5 232.128 560.106 231.348 560.55C230.568 560.994 229.704 561.216 228.756 561.216ZM228.756 559.056C229.284 559.056 229.746 558.93 230.142 558.678C230.55 558.426 230.868 558.078 231.096 557.634C231.336 557.178 231.456 556.668 231.456 556.104C231.456 555.528 231.336 555.024 231.096 554.592C230.868 554.148 230.55 553.8 230.142 553.548C229.746 553.284 229.284 553.152 228.756 553.152C228.216 553.152 227.742 553.284 227.334 553.548C226.926 553.8 226.602 554.148 226.362 554.592C226.134 555.024 226.02 555.528 226.02 556.104C226.02 556.668 226.134 557.178 226.362 557.634C226.602 558.078 226.926 558.426 227.334 558.678C227.742 558.93 228.216 559.056 228.756 559.056ZM238.001 561L234.635 551.208H237.119L239.585 558.642L238.721 558.624L241.349 551.208H243.437L246.047 558.624L245.183 558.642L247.649 551.208H250.133L246.767 561H244.661L241.997 553.242H242.789L240.089 561H238.001Z" fill="white"/>
<path fill-rule="evenodd" clip-rule="evenodd" d="M97.9106 60C101.992 60 105.313 63.2878 105.313 67.3271L105.314 72.0704C105.314 72.4325 105.17 72.7835 104.912 73.0395C104.656 73.2974 104.307 73.4418 103.943 73.4418C102.504 73.4418 101.334 74.5902 101.334 76.0018C101.334 77.4135 102.504 78.5618 103.943 78.5618C104.7 78.5618 105.314 79.1762 105.314 79.9333V84.6729C105.314 88.7122 101.994 92 97.9124 92H73.4023C69.3209 92 66.0002 88.7122 66.0002 84.6729V79.9333C66.0002 79.1762 66.6146 78.5618 67.3716 78.5618C68.8107 78.5618 69.981 77.4135 69.981 76.0018C69.981 74.6304 68.8583 73.5954 67.3716 73.5954C67.0078 73.5954 66.6585 73.451 66.4025 73.1931C66.1447 72.9371 66.0002 72.5861 66.0002 72.224L66.002 67.3271C66.002 63.2878 69.3227 60 73.4041 60H97.9106ZM97.9106 62.7429H90.4098L90.4109 66.2559C90.4109 67.0129 89.7965 67.6273 89.0395 67.6273C88.2825 67.6273 87.6681 67.0129 87.6681 66.2559L87.667 62.7429H73.4041C70.835 62.7429 68.7449 64.8 68.7449 67.3271L68.7431 71.0171C71.0599 71.5858 72.7239 73.5717 72.7239 76.0018C72.7239 78.4558 71.0306 80.5257 68.7431 81.1273V84.6729C68.7431 87.2 70.8331 89.2571 73.4023 89.2571H87.667L87.6681 86.5353C87.6681 85.7765 88.2825 85.1639 89.0395 85.1639C89.7965 85.1639 90.4109 85.7765 90.4109 86.5353L90.4098 89.2571H97.9124C100.482 89.2571 102.572 87.2 102.572 84.6729V81.1273C100.284 80.5257 98.5908 78.4558 98.5908 76.0018C98.5908 73.5461 100.282 71.4779 102.572 70.8763L102.57 67.3271C102.57 64.8 100.48 62.7429 97.9106 62.7429ZM89.0395 70.0654C89.7965 70.0654 90.4109 70.6798 90.4109 71.4368V80.2523C90.4109 81.0094 89.7965 81.6238 89.0395 81.6238C88.2825 81.6238 87.6681 81.0094 87.6681 80.2523V71.4368C87.6681 70.6798 88.2825 70.0654 89.0395 70.0654Z" fill="url(#paint2_linear_1_660)"/>
<defs>
<filter id="filter0_d_1_660" x="25" y="25" width="132" height="132" filterUnits="userSpaceOnUse" color-interpolation-filters="sRGB">
<feFlood flood-opacity="0" result="BackgroundImageFix"/>
<feColorMatrix in="SourceAlpha" type="matrix" values="0 0 0 0 0 0 0 0 0 0 0 0 0 0 0 0 0 0 127 0" result="hardAlpha"/>
<feOffset dx="5" dy="15"/>
<feGaussianBlur stdDeviation="15"/>
<feComposite in2="hardAlpha" operator="out"/>
<feColorMatrix type="matrix" values="0 0 0 0 0.0196078 0 0 0 0 0.0509804 0 0 0 0 0.211765 0 0 0 0.05 0"/>
<feBlend mode="normal" in2="BackgroundImageFix" result="effect1_dropShadow_1_660"/>
<feBlend mode="normal" in="SourceGraphic" in2="effect1_dropShadow_1_660" result="shape"/>
</filter>
<linearGradient id="paint0_linear_1_660" x1="0" y1="0" x2="290.159" y2="394.81" gradientUnits="userSpaceOnUse">
<stop stop-color="#FF8A00"/>
<stop offset="1" stop-color="#E8112B"/>
</linearGradient>
<linearGradient id="paint1_linear_1_660" x1="50" y1="524" x2="130.37" y2="733.137" gradientUnits="userSpaceOnUse">
<stop stop-color="#FF8A00"/>
<stop offset="1" stop-color="#E8112B"/>
</linearGradient>
<linearGradient id="paint2_linear_1_660" x1="66.0002" y1="60" x2="123.444" y2="95.7748" gradientUnits="userSpaceOnUse">
<stop stop-color="#FF8A00"/>
<stop offset="1" stop-color="#E8112B"/>
</linearGradient>
<clipPath id="clip0_1_660">
<rect width="26" height="26" fill="white" transform="translate(50 320)"/>
</clipPath>
<clipPath id="clip1_1_660">
<rect width="26" height="26" fill="white" transform="translate(50 366)"/>
</clipPath>
<clipPath id="clip2_1_660">
<rect width="26" height="26" fill="white" transform="translate(50 412)"/>
</clipPath>
<clipPath id="clip3_1_660">
<rect width="26" height="26" fill="white" transform="translate(50 458)"/>
</clipPath>
</defs>
</svg>
