<svg width="408" height="624" viewBox="0 0 408 624" fill="none" xmlns="http://www.w3.org/2000/svg">
<rect width="408" height="624" rx="12" fill="white" fill-opacity="0.03"/>
<rect x="0.5" y="0.5" width="407" height="623" rx="11.5" stroke="white" stroke-opacity="0.1"/>
<path d="M0 12C0 5.37258 5.37258 0 12 0H396C402.627 0 408 5.37258 408 12V152H0V12Z" fill="url(#paint0_linear_1_614)"/>
<g filter="url(#filter0_d_1_614)">
<rect x="50" y="40" width="72" height="72" rx="12" fill="white"/>
</g>
<path d="M143.66 65V50.1H153.1V51.9H145.62V56.72H152.4V58.52H145.62V65H143.66ZM159.888 65.24C158.848 65.24 157.908 65 157.068 64.52C156.228 64.0267 155.561 63.3533 155.068 62.5C154.575 61.6467 154.328 60.68 154.328 59.6C154.328 58.52 154.568 57.56 155.048 56.72C155.541 55.88 156.208 55.2133 157.048 54.72C157.888 54.2267 158.835 53.98 159.888 53.98C160.928 53.98 161.868 54.2267 162.708 54.72C163.548 55.2 164.208 55.86 164.688 56.7C165.181 57.54 165.428 58.5067 165.428 59.6C165.428 60.6933 165.175 61.6667 164.668 62.52C164.161 63.36 163.488 64.0267 162.648 64.52C161.821 65 160.901 65.24 159.888 65.24ZM159.888 63.44C160.555 63.44 161.155 63.2733 161.688 62.94C162.235 62.6067 162.661 62.1467 162.968 61.56C163.288 60.9733 163.448 60.32 163.448 59.6C163.448 58.8667 163.288 58.22 162.968 57.66C162.661 57.0867 162.235 56.6333 161.688 56.3C161.155 55.9533 160.555 55.78 159.888 55.78C159.208 55.78 158.595 55.9533 158.048 56.3C157.515 56.6333 157.088 57.0867 156.768 57.66C156.448 58.22 156.288 58.8667 156.288 59.6C156.288 60.32 156.448 60.9733 156.768 61.56C157.088 62.1467 157.515 62.6067 158.048 62.94C158.595 63.2733 159.208 63.44 159.888 63.44ZM167.854 65V54.22H169.674V56.2L169.474 55.92C169.727 55.3067 170.114 54.8533 170.634 54.56C171.154 54.2533 171.787 54.1 172.534 54.1H173.194V55.86H172.254C171.494 55.86 170.881 56.1 170.414 56.58C169.947 57.0467 169.714 57.7133 169.714 58.58V65H167.854ZM178.303 65V54.22H180.163V65H178.303ZM178.303 52.5V50.1H180.163V52.5H178.303ZM183.049 65V54.22H184.869V56.32L184.569 56.14C184.836 55.46 185.263 54.9333 185.849 54.56C186.449 54.1733 187.149 53.98 187.949 53.98C188.723 53.98 189.409 54.1533 190.009 54.5C190.623 54.8467 191.103 55.3267 191.449 55.94C191.809 56.5533 191.989 57.2467 191.989 58.02V65H190.109V58.62C190.109 58.02 190.003 57.5133 189.789 57.1C189.576 56.6867 189.269 56.3667 188.869 56.14C188.483 55.9 188.036 55.78 187.529 55.78C187.023 55.78 186.569 55.9 186.169 56.14C185.783 56.3667 185.476 56.6933 185.249 57.12C185.023 57.5333 184.909 58.0333 184.909 58.62V65H183.049ZM199.551 65.24C198.538 65.24 197.624 64.9933 196.811 64.5C196.011 64.0067 195.378 63.3333 194.911 62.48C194.444 61.6267 194.211 60.6733 194.211 59.62C194.211 58.54 194.444 57.58 194.911 56.74C195.378 55.8867 196.011 55.2133 196.811 54.72C197.624 54.2267 198.538 53.98 199.551 53.98C200.444 53.98 201.238 54.1733 201.931 54.56C202.624 54.9333 203.171 55.44 203.571 56.08L203.271 56.54V49.86H205.151V65H203.331V62.7L203.571 63.02C203.198 63.7267 202.651 64.2733 201.931 64.66C201.224 65.0467 200.431 65.24 199.551 65.24ZM199.711 63.44C200.391 63.44 200.998 63.2733 201.531 62.94C202.064 62.6067 202.484 62.1533 202.791 61.58C203.111 60.9933 203.271 60.34 203.271 59.62C203.271 58.8867 203.111 58.2333 202.791 57.66C202.484 57.0733 202.064 56.6133 201.531 56.28C200.998 55.9467 200.391 55.78 199.711 55.78C199.044 55.78 198.438 55.9533 197.891 56.3C197.358 56.6333 196.938 57.0867 196.631 57.66C196.324 58.22 196.171 58.8733 196.171 59.62C196.171 60.34 196.324 60.9933 196.631 61.58C196.938 62.1533 197.358 62.6067 197.891 62.94C198.424 63.2733 199.031 63.44 199.711 63.44ZM208.03 65V54.22H209.89V65H208.03ZM208.03 52.5V50.1H209.89V52.5H208.03ZM215.776 65L211.556 54.22H213.636L217.016 63.34H216.296L219.696 54.22H221.776L217.536 65H215.776ZM223.44 65V54.22H225.3V65H223.44ZM223.44 52.5V50.1H225.3V52.5H223.44ZM233.086 65.24C232.073 65.24 231.159 64.9933 230.346 64.5C229.546 64.0067 228.913 63.3333 228.446 62.48C227.979 61.6267 227.746 60.6733 227.746 59.62C227.746 58.54 227.979 57.58 228.446 56.74C228.913 55.8867 229.546 55.2133 230.346 54.72C231.159 54.2267 232.073 53.98 233.086 53.98C233.979 53.98 234.773 54.1733 235.466 54.56C236.159 54.9333 236.706 55.44 237.106 56.08L236.806 56.54V49.86H238.686V65H236.866V62.7L237.106 63.02C236.733 63.7267 236.186 64.2733 235.466 64.66C234.759 65.0467 233.966 65.24 233.086 65.24ZM233.246 63.44C233.926 63.44 234.533 63.2733 235.066 62.94C235.599 62.6067 236.019 62.1533 236.326 61.58C236.646 60.9933 236.806 60.34 236.806 59.62C236.806 58.8867 236.646 58.2333 236.326 57.66C236.019 57.0733 235.599 56.6133 235.066 56.28C234.533 55.9467 233.926 55.78 233.246 55.78C232.579 55.78 231.973 55.9533 231.426 56.3C230.893 56.6333 230.473 57.0867 230.166 57.66C229.859 58.22 229.706 58.8733 229.706 59.62C229.706 60.34 229.859 60.9933 230.166 61.58C230.473 62.1533 230.893 62.6067 231.426 62.94C231.959 63.2733 232.566 63.44 233.246 63.44ZM245.385 65.24C244.612 65.24 243.912 65.06 243.285 64.7C242.672 64.34 242.192 63.84 241.845 63.2C241.512 62.5467 241.345 61.8 241.345 60.96V54.22H243.205V60.76C243.205 61.2933 243.312 61.76 243.525 62.16C243.752 62.56 244.058 62.8733 244.445 63.1C244.845 63.3267 245.298 63.44 245.805 63.44C246.312 63.44 246.758 63.3267 247.145 63.1C247.545 62.8733 247.852 62.5467 248.065 62.12C248.292 61.6933 248.405 61.1867 248.405 60.6V54.22H250.285V65H248.465V62.9L248.765 63.08C248.512 63.76 248.078 64.2933 247.465 64.68C246.865 65.0533 246.172 65.24 245.385 65.24ZM256.327 65.24C255.62 65.24 254.993 65.1133 254.447 64.86C253.913 64.5933 253.493 64.2333 253.187 63.78C252.88 63.3133 252.727 62.78 252.727 62.18C252.727 61.6067 252.847 61.0933 253.087 60.64C253.34 60.1733 253.727 59.78 254.247 59.46C254.78 59.14 255.447 58.9133 256.247 58.78L260.247 58.12V59.68L256.667 60.28C255.973 60.4 255.467 60.62 255.147 60.94C254.84 61.26 254.687 61.6533 254.687 62.12C254.687 62.56 254.86 62.9267 255.207 63.22C255.567 63.5133 256.013 63.66 256.547 63.66C257.227 63.66 257.813 63.52 258.307 63.24C258.813 62.9467 259.207 62.5533 259.487 62.06C259.78 61.5667 259.927 61.02 259.927 60.42V57.68C259.927 57.0933 259.707 56.62 259.267 56.26C258.84 55.8867 258.273 55.7 257.567 55.7C256.953 55.7 256.407 55.86 255.927 56.18C255.46 56.4867 255.113 56.9 254.887 57.42L253.267 56.58C253.467 56.0867 253.787 55.6467 254.227 55.26C254.667 54.86 255.18 54.5467 255.767 54.32C256.353 54.0933 256.967 53.98 257.607 53.98C258.433 53.98 259.16 54.14 259.787 54.46C260.413 54.7667 260.9 55.2 261.247 55.76C261.607 56.3067 261.787 56.9467 261.787 57.68V65H259.967V62.96L260.307 63.08C260.08 63.5067 259.773 63.88 259.387 64.2C259 64.52 258.547 64.7733 258.027 64.96C257.507 65.1467 256.94 65.24 256.327 65.24ZM264.67 65V49.86H266.53V65H264.67ZM273.277 65.24C272.197 65.24 271.257 64.9733 270.457 64.44C269.657 63.9067 269.09 63.1867 268.757 62.28L270.237 61.56C270.543 62.2 270.963 62.7067 271.497 63.08C272.03 63.4533 272.623 63.64 273.277 63.64C273.863 63.64 274.35 63.5 274.737 63.22C275.123 62.94 275.317 62.5733 275.317 62.12C275.317 61.8 275.223 61.5467 275.037 61.36C274.863 61.16 274.65 61.0067 274.397 60.9C274.143 60.78 273.91 60.6933 273.697 60.64L272.077 60.18C271.103 59.9 270.39 59.5 269.937 58.98C269.497 58.46 269.277 57.8533 269.277 57.16C269.277 56.52 269.437 55.9667 269.757 55.5C270.09 55.02 270.537 54.6467 271.097 54.38C271.67 54.1133 272.31 53.98 273.017 53.98C273.963 53.98 274.81 54.22 275.557 54.7C276.317 55.18 276.857 55.8533 277.177 56.72L275.657 57.42C275.417 56.86 275.057 56.42 274.577 56.1C274.097 55.7667 273.557 55.6 272.957 55.6C272.41 55.6 271.977 55.74 271.657 56.02C271.337 56.2867 271.177 56.6267 271.177 57.04C271.177 57.3467 271.257 57.6 271.417 57.8C271.577 57.9867 271.77 58.1333 271.997 58.24C272.223 58.3333 272.443 58.4133 272.657 58.48L274.417 59C275.297 59.2533 275.977 59.6467 276.457 60.18C276.95 60.7133 277.197 61.3533 277.197 62.1C277.197 62.7 277.03 63.24 276.697 63.72C276.363 64.2 275.903 64.5733 275.317 64.84C274.73 65.1067 274.05 65.24 273.277 65.24Z" fill="white"/>
<path d="M152.14 102.36C150.72 102.36 149.4 102.1 148.18 101.58C146.98 101.06 145.94 100.34 145.06 99.42C144.2 98.48 143.57 97.39 143.17 96.15L146.56 94.68C147.1 95.96 147.88 96.97 148.9 97.71C149.92 98.43 151.07 98.79 152.35 98.79C153.07 98.79 153.69 98.68 154.21 98.46C154.75 98.22 155.16 97.9 155.44 97.5C155.74 97.1 155.89 96.62 155.89 96.06C155.89 95.4 155.69 94.86 155.29 94.44C154.91 94 154.33 93.66 153.55 93.42L149.26 92.04C147.52 91.5 146.21 90.69 145.33 89.61C144.45 88.53 144.01 87.26 144.01 85.8C144.01 84.52 144.32 83.39 144.94 82.41C145.58 81.43 146.46 80.67 147.58 80.13C148.72 79.57 150.02 79.29 151.48 79.29C152.82 79.29 154.05 79.53 155.17 80.01C156.29 80.47 157.25 81.12 158.05 81.96C158.87 82.78 159.48 83.75 159.88 84.87L156.52 86.37C156.08 85.25 155.42 84.39 154.54 83.79C153.66 83.17 152.64 82.86 151.48 82.86C150.8 82.86 150.2 82.98 149.68 83.22C149.16 83.44 148.75 83.76 148.45 84.18C148.17 84.58 148.03 85.06 148.03 85.62C148.03 86.24 148.23 86.79 148.63 87.27C149.03 87.73 149.64 88.09 150.46 88.35L154.57 89.64C156.35 90.22 157.68 91.02 158.56 92.04C159.46 93.06 159.91 94.32 159.91 95.82C159.91 97.1 159.58 98.23 158.92 99.21C158.26 100.19 157.35 100.96 156.19 101.52C155.03 102.08 153.68 102.36 152.14 102.36ZM170.694 102.18C168.854 102.18 167.424 101.68 166.404 100.68C165.404 99.66 164.904 98.23 164.904 96.39V89.19H162.084V85.68H162.384C163.184 85.68 163.804 85.47 164.244 85.05C164.684 84.63 164.904 84.02 164.904 83.22V81.96H168.834V85.68H172.584V89.19H168.834V96.18C168.834 96.72 168.924 97.18 169.104 97.56C169.304 97.94 169.604 98.23 170.004 98.43C170.424 98.63 170.954 98.73 171.594 98.73C171.734 98.73 171.894 98.72 172.074 98.7C172.274 98.68 172.464 98.66 172.644 98.64V102C172.364 102.04 172.044 102.08 171.684 102.12C171.324 102.16 170.994 102.18 170.694 102.18ZM180.538 102.36C179.398 102.36 178.408 102.17 177.568 101.79C176.728 101.41 176.078 100.87 175.618 100.17C175.158 99.45 174.928 98.62 174.928 97.68C174.928 96.78 175.128 95.98 175.528 95.28C175.928 94.56 176.548 93.96 177.388 93.48C178.228 93 179.288 92.66 180.568 92.46L185.908 91.59V94.59L181.318 95.37C180.538 95.51 179.958 95.76 179.578 96.12C179.198 96.48 179.008 96.95 179.008 97.53C179.008 98.09 179.218 98.54 179.638 98.88C180.078 99.2 180.618 99.36 181.258 99.36C182.078 99.36 182.798 99.19 183.418 98.85C184.058 98.49 184.548 98 184.888 97.38C185.248 96.76 185.428 96.08 185.428 95.34V91.14C185.428 90.44 185.148 89.86 184.588 89.4C184.048 88.92 183.328 88.68 182.428 88.68C181.588 88.68 180.838 88.91 180.178 89.37C179.538 89.81 179.068 90.4 178.768 91.14L175.558 89.58C175.878 88.72 176.378 87.98 177.058 87.36C177.758 86.72 178.578 86.22 179.518 85.86C180.458 85.5 181.478 85.32 182.578 85.32C183.918 85.32 185.098 85.57 186.118 86.07C187.138 86.55 187.928 87.23 188.488 88.11C189.068 88.97 189.358 89.98 189.358 91.14V102H185.638V99.21L186.478 99.15C186.058 99.85 185.558 100.44 184.978 100.92C184.398 101.38 183.738 101.74 182.998 102C182.258 102.24 181.438 102.36 180.538 102.36ZM192.99 102V85.68H196.68V88.89L196.38 88.32C196.76 87.34 197.38 86.6 198.24 86.1C199.12 85.58 200.14 85.32 201.3 85.32C202.5 85.32 203.56 85.58 204.48 86.1C205.42 86.62 206.15 87.35 206.67 88.29C207.19 89.21 207.45 90.28 207.45 91.5V102H203.52V92.43C203.52 91.71 203.38 91.09 203.1 90.57C202.82 90.05 202.43 89.65 201.93 89.37C201.45 89.07 200.88 88.92 200.22 88.92C199.58 88.92 199.01 89.07 198.51 89.37C198.01 89.65 197.62 90.05 197.34 90.57C197.06 91.09 196.92 91.71 196.92 92.43V102H192.99ZM218.363 102.36C216.783 102.36 215.373 101.99 214.133 101.25C212.893 100.49 211.913 99.46 211.193 98.16C210.473 96.86 210.113 95.42 210.113 93.84C210.113 92.24 210.473 90.8 211.193 89.52C211.913 88.24 212.893 87.22 214.133 86.46C215.393 85.7 216.793 85.32 218.333 85.32C219.573 85.32 220.673 85.57 221.633 86.07C222.613 86.55 223.383 87.23 223.943 88.11L223.343 88.92V79.29H227.273V102H223.553V98.85L223.973 99.63C223.413 100.51 222.633 101.19 221.633 101.67C220.633 102.13 219.543 102.36 218.363 102.36ZM218.783 98.76C219.683 98.76 220.473 98.55 221.153 98.13C221.833 97.71 222.363 97.13 222.743 96.39C223.143 95.65 223.343 94.8 223.343 93.84C223.343 92.9 223.143 92.06 222.743 91.32C222.363 90.56 221.833 89.97 221.153 89.55C220.473 89.13 219.683 88.92 218.783 88.92C217.903 88.92 217.113 89.14 216.413 89.58C215.713 90 215.163 90.58 214.763 91.32C214.383 92.04 214.193 92.88 214.193 93.84C214.193 94.8 214.383 95.65 214.763 96.39C215.163 97.13 215.713 97.71 216.413 98.13C217.113 98.55 217.903 98.76 218.783 98.76ZM235.88 102.36C234.74 102.36 233.75 102.17 232.91 101.79C232.07 101.41 231.42 100.87 230.96 100.17C230.5 99.45 230.27 98.62 230.27 97.68C230.27 96.78 230.47 95.98 230.87 95.28C231.27 94.56 231.89 93.96 232.73 93.48C233.57 93 234.63 92.66 235.91 92.46L241.25 91.59V94.59L236.66 95.37C235.88 95.51 235.3 95.76 234.92 96.12C234.54 96.48 234.35 96.95 234.35 97.53C234.35 98.09 234.56 98.54 234.98 98.88C235.42 99.2 235.96 99.36 236.6 99.36C237.42 99.36 238.14 99.19 238.76 98.85C239.4 98.49 239.89 98 240.23 97.38C240.59 96.76 240.77 96.08 240.77 95.34V91.14C240.77 90.44 240.49 89.86 239.93 89.4C239.39 88.92 238.67 88.68 237.77 88.68C236.93 88.68 236.18 88.91 235.52 89.37C234.88 89.81 234.41 90.4 234.11 91.14L230.9 89.58C231.22 88.72 231.72 87.98 232.4 87.36C233.1 86.72 233.92 86.22 234.86 85.86C235.8 85.5 236.82 85.32 237.92 85.32C239.26 85.32 240.44 85.57 241.46 86.07C242.48 86.55 243.27 87.23 243.83 88.11C244.41 88.97 244.7 89.98 244.7 91.14V102H240.98V99.21L241.82 99.15C241.4 99.85 240.9 100.44 240.32 100.92C239.74 101.38 239.08 101.74 238.34 102C237.6 102.24 236.78 102.36 235.88 102.36ZM248.332 102V85.68H252.022V89.31L251.722 88.77C252.102 87.55 252.692 86.7 253.492 86.22C254.312 85.74 255.292 85.5 256.432 85.5H257.392V88.98H255.982C254.862 88.98 253.962 89.33 253.282 90.03C252.602 90.71 252.262 91.67 252.262 92.91V102H248.332ZM267.143 102.36C265.563 102.36 264.153 101.99 262.913 101.25C261.673 100.49 260.693 99.46 259.973 98.16C259.253 96.86 258.893 95.42 258.893 93.84C258.893 92.24 259.253 90.8 259.973 89.52C260.693 88.24 261.673 87.22 262.913 86.46C264.173 85.7 265.573 85.32 267.113 85.32C268.353 85.32 269.453 85.57 270.413 86.07C271.393 86.55 272.163 87.23 272.723 88.11L272.123 88.92V79.29H276.053V102H272.333V98.85L272.753 99.63C272.193 100.51 271.413 101.19 270.413 101.67C269.413 102.13 268.323 102.36 267.143 102.36ZM267.563 98.76C268.463 98.76 269.253 98.55 269.933 98.13C270.613 97.71 271.143 97.13 271.523 96.39C271.923 95.65 272.123 94.8 272.123 93.84C272.123 92.9 271.923 92.06 271.523 91.32C271.143 90.56 270.613 89.97 269.933 89.55C269.253 89.13 268.463 88.92 267.563 88.92C266.683 88.92 265.893 89.14 265.193 89.58C264.493 90 263.943 90.58 263.543 91.32C263.163 92.04 262.973 92.88 262.973 93.84C262.973 94.8 263.163 95.65 263.543 96.39C263.943 97.13 264.493 97.71 265.193 98.13C265.893 98.55 266.683 98.76 267.563 98.76Z" fill="white"/>
<path d="M55.184 293L50.264 275.12H53.264L57.248 290.6H56.504L60.632 275.12H63.584L67.712 290.6H66.944L70.952 275.12H73.928L69.032 293H65.84L61.688 277.76H62.528L58.352 293H55.184ZM75.7715 293V274.832H78.4835V282.56L78.0515 282.224C78.3715 281.408 78.8835 280.792 79.5875 280.376C80.2915 279.944 81.1075 279.728 82.0355 279.728C82.9955 279.728 83.8435 279.936 84.5795 280.352C85.3155 280.768 85.8915 281.344 86.3075 282.08C86.7235 282.816 86.9315 283.656 86.9315 284.6V293H84.2435V285.344C84.2435 284.688 84.1155 284.136 83.8595 283.688C83.6195 283.224 83.2835 282.872 82.8515 282.632C82.4195 282.376 81.9235 282.248 81.3635 282.248C80.8195 282.248 80.3235 282.376 79.8755 282.632C79.4435 282.872 79.0995 283.224 78.8435 283.688C78.6035 284.152 78.4835 284.704 78.4835 285.344V293H75.7715ZM93.722 293.288C92.842 293.288 92.066 293.136 91.394 292.832C90.738 292.512 90.226 292.08 89.858 291.536C89.49 290.976 89.306 290.32 89.306 289.568C89.306 288.864 89.458 288.232 89.762 287.672C90.082 287.112 90.57 286.64 91.226 286.256C91.882 285.872 92.706 285.6 93.698 285.44L98.21 284.696V286.832L94.226 287.528C93.506 287.656 92.978 287.888 92.642 288.224C92.306 288.544 92.138 288.96 92.138 289.472C92.138 289.968 92.322 290.376 92.69 290.696C93.074 291 93.562 291.152 94.154 291.152C94.89 291.152 95.53 290.992 96.074 290.672C96.634 290.352 97.066 289.928 97.37 289.4C97.674 288.856 97.826 288.256 97.826 287.6V284.264C97.826 283.624 97.586 283.104 97.106 282.704C96.642 282.288 96.018 282.08 95.234 282.08C94.514 282.08 93.882 282.272 93.338 282.656C92.81 283.024 92.418 283.504 92.162 284.096L89.906 282.968C90.146 282.328 90.538 281.768 91.082 281.288C91.626 280.792 92.258 280.408 92.978 280.136C93.714 279.864 94.49 279.728 95.306 279.728C96.33 279.728 97.234 279.92 98.018 280.304C98.818 280.688 99.434 281.224 99.866 281.912C100.314 282.584 100.538 283.368 100.538 284.264V293H97.946V290.648L98.498 290.72C98.194 291.248 97.802 291.704 97.322 292.088C96.858 292.472 96.322 292.768 95.714 292.976C95.122 293.184 94.458 293.288 93.722 293.288ZM109.091 293.144C107.731 293.144 106.675 292.76 105.923 291.992C105.171 291.224 104.795 290.144 104.795 288.752V282.464H102.515V280.016H102.875C103.483 280.016 103.955 279.84 104.291 279.488C104.627 279.136 104.795 278.656 104.795 278.048V277.04H107.507V280.016H110.459V282.464H107.507V288.632C107.507 289.08 107.579 289.464 107.723 289.784C107.867 290.088 108.099 290.328 108.419 290.504C108.739 290.664 109.155 290.744 109.667 290.744C109.795 290.744 109.939 290.736 110.099 290.72C110.259 290.704 110.411 290.688 110.555 290.672V293C110.331 293.032 110.083 293.064 109.811 293.096C109.539 293.128 109.299 293.144 109.091 293.144ZM113.897 281.528V280.208C114.425 280.08 114.833 279.848 115.121 279.512C115.409 279.16 115.585 278.736 115.649 278.24H114.377V275.12H117.137V277.16C117.137 278.328 116.865 279.296 116.321 280.064C115.777 280.816 114.969 281.304 113.897 281.528ZM125.876 293.288C124.548 293.288 123.38 292.96 122.372 292.304C121.38 291.648 120.684 290.768 120.284 289.664L122.372 288.68C122.724 289.416 123.204 290 123.812 290.432C124.436 290.864 125.124 291.08 125.876 291.08C126.516 291.08 127.036 290.936 127.436 290.648C127.836 290.36 128.036 289.968 128.036 289.472C128.036 289.152 127.948 288.896 127.772 288.704C127.596 288.496 127.372 288.328 127.1 288.2C126.844 288.072 126.58 287.976 126.308 287.912L124.268 287.336C123.148 287.016 122.308 286.536 121.748 285.896C121.204 285.24 120.932 284.48 120.932 283.616C120.932 282.832 121.132 282.152 121.532 281.576C121.932 280.984 122.484 280.528 123.188 280.208C123.892 279.888 124.684 279.728 125.564 279.728C126.748 279.728 127.804 280.024 128.732 280.616C129.66 281.192 130.316 282 130.7 283.04L128.612 284.024C128.356 283.4 127.948 282.904 127.388 282.536C126.844 282.168 126.228 281.984 125.54 281.984C124.948 281.984 124.476 282.128 124.124 282.416C123.772 282.688 123.596 283.048 123.596 283.496C123.596 283.8 123.676 284.056 123.836 284.264C123.996 284.456 124.204 284.616 124.46 284.744C124.716 284.856 124.98 284.952 125.252 285.032L127.364 285.656C128.436 285.96 129.26 286.44 129.836 287.096C130.412 287.736 130.7 288.504 130.7 289.4C130.7 290.168 130.492 290.848 130.076 291.44C129.676 292.016 129.116 292.472 128.396 292.808C127.676 293.128 126.836 293.288 125.876 293.288ZM137.553 293V280.016H140.265V293H137.553ZM137.553 278.24V275.12H140.265V278.24H137.553ZM143.436 293V280.016H146.028V282.56L145.716 282.224C146.036 281.408 146.548 280.792 147.252 280.376C147.956 279.944 148.772 279.728 149.7 279.728C150.66 279.728 151.508 279.936 152.244 280.352C152.98 280.768 153.556 281.344 153.972 282.08C154.388 282.816 154.596 283.664 154.596 284.624V293H151.908V285.344C151.908 284.688 151.788 284.136 151.548 283.688C151.308 283.224 150.964 282.872 150.516 282.632C150.084 282.376 149.588 282.248 149.028 282.248C148.468 282.248 147.964 282.376 147.516 282.632C147.084 282.872 146.748 283.224 146.508 283.688C146.268 284.152 146.148 284.704 146.148 285.344V293H143.436ZM163.666 293.288C162.37 293.288 161.218 292.992 160.21 292.4C159.218 291.792 158.426 290.976 157.834 289.952C157.258 288.928 156.97 287.768 156.97 286.472C156.97 285.192 157.258 284.04 157.834 283.016C158.41 281.992 159.202 281.192 160.21 280.616C161.218 280.024 162.37 279.728 163.666 279.728C164.546 279.728 165.37 279.888 166.138 280.208C166.906 280.512 167.57 280.936 168.13 281.48C168.706 282.024 169.13 282.656 169.402 283.376L167.026 284.48C166.754 283.808 166.314 283.272 165.706 282.872C165.114 282.456 164.434 282.248 163.666 282.248C162.93 282.248 162.266 282.432 161.674 282.8C161.098 283.152 160.642 283.656 160.306 284.312C159.97 284.952 159.802 285.68 159.802 286.496C159.802 287.312 159.97 288.048 160.306 288.704C160.642 289.344 161.098 289.848 161.674 290.216C162.266 290.584 162.93 290.768 163.666 290.768C164.45 290.768 165.13 290.568 165.706 290.168C166.298 289.752 166.738 289.2 167.026 288.512L169.402 289.64C169.146 290.328 168.73 290.952 168.154 291.512C167.594 292.056 166.93 292.488 166.162 292.808C165.394 293.128 164.562 293.288 163.666 293.288ZM172.053 293V274.832H174.765V293H172.053ZM182.568 293.288C181.592 293.288 180.736 293.072 180 292.64C179.264 292.192 178.688 291.576 178.272 290.792C177.872 289.992 177.672 289.072 177.672 288.032V280.016H180.384V287.792C180.384 288.384 180.504 288.904 180.744 289.352C180.984 289.8 181.32 290.152 181.752 290.408C182.184 290.648 182.68 290.768 183.24 290.768C183.816 290.768 184.32 290.64 184.752 290.384C185.184 290.128 185.52 289.768 185.76 289.304C186.016 288.84 186.144 288.296 186.144 287.672V280.016H188.832V293H186.264V290.456L186.552 290.792C186.248 291.592 185.744 292.208 185.04 292.64C184.336 293.072 183.512 293.288 182.568 293.288ZM197.998 293.288C196.75 293.288 195.63 292.992 194.638 292.4C193.662 291.792 192.886 290.976 192.31 289.952C191.75 288.928 191.47 287.776 191.47 286.496C191.47 285.216 191.758 284.064 192.334 283.04C192.91 282.016 193.686 281.208 194.662 280.616C195.638 280.024 196.742 279.728 197.974 279.728C199.014 279.728 199.934 279.936 200.734 280.352C201.534 280.768 202.166 281.344 202.63 282.08L202.222 282.704V274.832H204.91V293H202.342V290.36L202.654 290.864C202.206 291.648 201.566 292.248 200.734 292.664C199.902 293.08 198.99 293.288 197.998 293.288ZM198.262 290.768C199.014 290.768 199.686 290.584 200.278 290.216C200.886 289.848 201.358 289.344 201.694 288.704C202.046 288.048 202.222 287.312 202.222 286.496C202.222 285.68 202.046 284.952 201.694 284.312C201.358 283.672 200.886 283.168 200.278 282.8C199.686 282.432 199.014 282.248 198.262 282.248C197.51 282.248 196.83 282.432 196.222 282.8C195.614 283.168 195.142 283.672 194.806 284.312C194.47 284.952 194.302 285.68 194.302 286.496C194.302 287.312 194.47 288.048 194.806 288.704C195.142 289.344 195.606 289.848 196.198 290.216C196.806 290.584 197.494 290.768 198.262 290.768ZM214.172 293.288C212.876 293.288 211.724 292.992 210.716 292.4C209.724 291.792 208.948 290.976 208.388 289.952C207.828 288.912 207.548 287.752 207.548 286.472C207.548 285.16 207.828 284 208.388 282.992C208.964 281.984 209.732 281.192 210.692 280.616C211.652 280.024 212.74 279.728 213.956 279.728C214.932 279.728 215.804 279.896 216.572 280.232C217.34 280.568 217.988 281.032 218.516 281.624C219.044 282.2 219.444 282.864 219.716 283.616C220.004 284.368 220.148 285.168 220.148 286.016C220.148 286.224 220.14 286.44 220.124 286.664C220.108 286.888 220.076 287.096 220.028 287.288H209.684V285.128H218.492L217.196 286.112C217.356 285.328 217.3 284.632 217.028 284.024C216.772 283.4 216.372 282.912 215.828 282.56C215.3 282.192 214.676 282.008 213.956 282.008C213.236 282.008 212.596 282.192 212.036 282.56C211.476 282.912 211.044 283.424 210.74 284.096C210.436 284.752 210.316 285.552 210.38 286.496C210.3 287.376 210.42 288.144 210.74 288.8C211.076 289.456 211.54 289.968 212.132 290.336C212.74 290.704 213.428 290.888 214.196 290.888C214.98 290.888 215.644 290.712 216.188 290.36C216.748 290.008 217.188 289.552 217.508 288.992L219.716 290.072C219.46 290.68 219.06 291.232 218.516 291.728C217.988 292.208 217.348 292.592 216.596 292.88C215.86 293.152 215.052 293.288 214.172 293.288ZM228.795 293.288C227.547 293.288 226.427 292.992 225.435 292.4C224.459 291.792 223.683 290.976 223.107 289.952C222.547 288.928 222.267 287.776 222.267 286.496C222.267 285.216 222.555 284.064 223.131 283.04C223.707 282.016 224.483 281.208 225.459 280.616C226.435 280.024 227.539 279.728 228.771 279.728C229.811 279.728 230.731 279.936 231.531 280.352C232.331 280.768 232.963 281.344 233.427 282.08L233.019 282.704V274.832H235.707V293H233.139V290.36L233.451 290.864C233.003 291.648 232.363 292.248 231.531 292.664C230.699 293.08 229.787 293.288 228.795 293.288ZM229.059 290.768C229.811 290.768 230.483 290.584 231.075 290.216C231.683 289.848 232.155 289.344 232.491 288.704C232.843 288.048 233.019 287.312 233.019 286.496C233.019 285.68 232.843 284.952 232.491 284.312C232.155 283.672 231.683 283.168 231.075 282.8C230.483 282.432 229.811 282.248 229.059 282.248C228.307 282.248 227.627 282.432 227.019 282.8C226.411 283.168 225.939 283.672 225.603 284.312C225.267 284.952 225.099 285.68 225.099 286.496C225.099 287.312 225.267 288.048 225.603 288.704C225.939 289.344 226.403 289.848 226.995 290.216C227.603 290.584 228.291 290.768 229.059 290.768Z" fill="white"/>
<g clip-path="url(#clip0_1_614)">
<path d="M63 346C70.1799 346 76 340.18 76 333C76 325.82 70.1799 320 63 320C55.8201 320 50 325.82 50 333C50 340.18 55.8201 346 63 346Z" fill="#181818"/>
<path d="M57.1168 333.84L60.4786 337.202L68.8832 328.798" stroke="white" stroke-width="2" stroke-linecap="round" stroke-linejoin="round"/>
</g>
<path d="M96.22 341L101.66 326.1H103.38L108.82 341H107.14L105.86 337.36H99.2L97.9 341H96.22ZM99.72 335.86H105.3L102.28 327.3H102.76L99.72 335.86ZM110.587 341V325.86H112.087V341H110.587ZM115.157 341V325.86H116.657V341H115.157ZM123.346 341V326.1H128.466C129.439 326.1 130.293 326.293 131.026 326.68C131.759 327.053 132.326 327.587 132.726 328.28C133.139 328.96 133.346 329.753 133.346 330.66C133.346 331.567 133.139 332.36 132.726 333.04C132.326 333.72 131.759 334.253 131.026 334.64C130.306 335.013 129.453 335.2 128.466 335.2H124.946V341H123.346ZM124.946 333.7H128.546C129.186 333.7 129.746 333.58 130.226 333.34C130.706 333.087 131.079 332.733 131.346 332.28C131.613 331.813 131.746 331.267 131.746 330.64C131.746 330.013 131.613 329.473 131.346 329.02C131.079 328.567 130.706 328.22 130.226 327.98C129.746 327.727 129.186 327.6 128.546 327.6H124.946V333.7ZM135.978 341V330.28H137.478V332.04L137.278 331.78C137.531 331.273 137.911 330.873 138.418 330.58C138.938 330.287 139.564 330.14 140.298 330.14H140.978V331.64H140.038C139.264 331.64 138.644 331.88 138.178 332.36C137.711 332.84 137.478 333.52 137.478 334.4V341H135.978ZM147.755 341.24C146.742 341.24 145.822 341 144.995 340.52C144.169 340.027 143.509 339.36 143.015 338.52C142.535 337.667 142.295 336.7 142.295 335.62C142.295 334.553 142.535 333.6 143.015 332.76C143.495 331.92 144.142 331.26 144.955 330.78C145.782 330.287 146.715 330.04 147.755 330.04C148.795 330.04 149.722 330.28 150.535 330.76C151.362 331.24 152.009 331.9 152.475 332.74C152.955 333.58 153.195 334.54 153.195 335.62C153.195 336.713 152.949 337.687 152.455 338.54C151.962 339.38 151.302 340.04 150.475 340.52C149.662 341 148.755 341.24 147.755 341.24ZM147.755 339.74C148.475 339.74 149.122 339.56 149.695 339.2C150.282 338.84 150.742 338.347 151.075 337.72C151.422 337.093 151.595 336.393 151.595 335.62C151.595 334.847 151.422 334.153 151.075 333.54C150.742 332.927 150.282 332.44 149.695 332.08C149.122 331.72 148.475 331.54 147.755 331.54C147.035 331.54 146.382 331.72 145.795 332.08C145.222 332.44 144.762 332.927 144.415 333.54C144.069 334.153 143.895 334.847 143.895 335.62C143.895 336.393 144.069 337.093 144.415 337.72C144.762 338.347 145.222 338.84 145.795 339.2C146.382 339.56 147.035 339.74 147.755 339.74ZM156.55 341V331.78H154.41V330.28H156.55V329.32C156.55 328.573 156.717 327.947 157.05 327.44C157.383 326.92 157.823 326.527 158.37 326.26C158.917 325.993 159.503 325.86 160.13 325.86C160.263 325.86 160.417 325.873 160.59 325.9C160.763 325.913 160.903 325.933 161.01 325.96V327.32C160.917 327.293 160.79 327.28 160.63 327.28C160.47 327.267 160.357 327.26 160.29 327.26C159.65 327.26 159.117 327.413 158.69 327.72C158.263 328.027 158.05 328.56 158.05 329.32V330.28H160.67V331.78H158.05V341H156.55ZM167.576 341.24C166.576 341.24 165.67 341 164.856 340.52C164.056 340.027 163.423 339.353 162.956 338.5C162.49 337.647 162.256 336.68 162.256 335.6C162.256 334.52 162.483 333.567 162.936 332.74C163.39 331.9 164.003 331.24 164.776 330.76C165.563 330.28 166.443 330.04 167.416 330.04C168.19 330.04 168.876 330.187 169.476 330.48C170.09 330.76 170.61 331.147 171.036 331.64C171.463 332.12 171.79 332.667 172.016 333.28C172.243 333.88 172.356 334.5 172.356 335.14C172.356 335.273 172.35 335.427 172.336 335.6C172.323 335.76 172.303 335.927 172.276 336.1H163.216V334.7H171.416L170.696 335.3C170.816 334.567 170.73 333.913 170.436 333.34C170.156 332.753 169.75 332.293 169.216 331.96C168.683 331.613 168.083 331.44 167.416 331.44C166.75 331.44 166.13 331.613 165.556 331.96C164.996 332.307 164.556 332.793 164.236 333.42C163.916 334.033 163.79 334.767 163.856 335.62C163.79 336.473 163.923 337.22 164.256 337.86C164.603 338.487 165.07 338.973 165.656 339.32C166.256 339.667 166.896 339.84 167.576 339.84C168.363 339.84 169.023 339.653 169.556 339.28C170.09 338.907 170.523 338.44 170.856 337.88L172.136 338.56C171.923 339.04 171.596 339.487 171.156 339.9C170.716 340.3 170.19 340.627 169.576 340.88C168.976 341.12 168.31 341.24 167.576 341.24ZM178.721 341.24C177.694 341.24 176.794 340.98 176.021 340.46C175.248 339.94 174.688 339.233 174.341 338.34L175.601 337.74C175.908 338.393 176.334 338.913 176.881 339.3C177.441 339.687 178.054 339.88 178.721 339.88C179.361 339.88 179.901 339.727 180.341 339.42C180.781 339.1 181.001 338.687 181.001 338.18C181.001 337.807 180.894 337.513 180.681 337.3C180.468 337.073 180.221 336.9 179.941 336.78C179.661 336.66 179.414 336.573 179.201 336.52L177.661 336.08C176.674 335.8 175.961 335.407 175.521 334.9C175.081 334.393 174.861 333.807 174.861 333.14C174.861 332.513 175.021 331.967 175.341 331.5C175.661 331.033 176.094 330.673 176.641 330.42C177.188 330.167 177.794 330.04 178.461 330.04C179.368 330.04 180.188 330.28 180.921 330.76C181.668 331.227 182.194 331.88 182.501 332.72L181.221 333.32C180.954 332.72 180.568 332.253 180.061 331.92C179.568 331.573 179.014 331.4 178.401 331.4C177.801 331.4 177.321 331.553 176.961 331.86C176.601 332.167 176.421 332.553 176.421 333.02C176.421 333.38 176.514 333.667 176.701 333.88C176.888 334.093 177.101 334.253 177.341 334.36C177.594 334.467 177.814 334.547 178.001 334.6L179.781 335.12C180.648 335.373 181.321 335.767 181.801 336.3C182.294 336.833 182.541 337.46 182.541 338.18C182.541 338.767 182.374 339.293 182.041 339.76C181.721 340.227 181.274 340.593 180.701 340.86C180.128 341.113 179.468 341.24 178.721 341.24ZM188.897 341.24C187.87 341.24 186.97 340.98 186.197 340.46C185.423 339.94 184.863 339.233 184.517 338.34L185.777 337.74C186.083 338.393 186.51 338.913 187.057 339.3C187.617 339.687 188.23 339.88 188.897 339.88C189.537 339.88 190.077 339.727 190.517 339.42C190.957 339.1 191.177 338.687 191.177 338.18C191.177 337.807 191.07 337.513 190.857 337.3C190.643 337.073 190.397 336.9 190.117 336.78C189.837 336.66 189.59 336.573 189.377 336.52L187.837 336.08C186.85 335.8 186.137 335.407 185.697 334.9C185.257 334.393 185.037 333.807 185.037 333.14C185.037 332.513 185.197 331.967 185.517 331.5C185.837 331.033 186.27 330.673 186.817 330.42C187.363 330.167 187.97 330.04 188.637 330.04C189.543 330.04 190.363 330.28 191.097 330.76C191.843 331.227 192.37 331.88 192.677 332.72L191.397 333.32C191.13 332.72 190.743 332.253 190.237 331.92C189.743 331.573 189.19 331.4 188.577 331.4C187.977 331.4 187.497 331.553 187.137 331.86C186.777 332.167 186.597 332.553 186.597 333.02C186.597 333.38 186.69 333.667 186.877 333.88C187.063 334.093 187.277 334.253 187.517 334.36C187.77 334.467 187.99 334.547 188.177 334.6L189.957 335.12C190.823 335.373 191.497 335.767 191.977 336.3C192.47 336.833 192.717 337.46 192.717 338.18C192.717 338.767 192.55 339.293 192.217 339.76C191.897 340.227 191.45 340.593 190.877 340.86C190.303 341.113 189.643 341.24 188.897 341.24ZM195.353 341V330.28H196.853V341H195.353ZM195.353 328.3V326.1H196.853V328.3H195.353ZM204.943 341.24C203.929 341.24 203.009 341 202.183 340.52C201.356 340.027 200.696 339.36 200.203 338.52C199.723 337.667 199.483 336.7 199.483 335.62C199.483 334.553 199.723 333.6 200.203 332.76C200.683 331.92 201.329 331.26 202.143 330.78C202.969 330.287 203.903 330.04 204.943 330.04C205.983 330.04 206.909 330.28 207.723 330.76C208.549 331.24 209.196 331.9 209.663 332.74C210.143 333.58 210.383 334.54 210.383 335.62C210.383 336.713 210.136 337.687 209.643 338.54C209.149 339.38 208.489 340.04 207.663 340.52C206.849 341 205.943 341.24 204.943 341.24ZM204.943 339.74C205.663 339.74 206.309 339.56 206.883 339.2C207.469 338.84 207.929 338.347 208.263 337.72C208.609 337.093 208.783 336.393 208.783 335.62C208.783 334.847 208.609 334.153 208.263 333.54C207.929 332.927 207.469 332.44 206.883 332.08C206.309 331.72 205.663 331.54 204.943 331.54C204.223 331.54 203.569 331.72 202.983 332.08C202.409 332.44 201.949 332.927 201.603 333.54C201.256 334.153 201.083 334.847 201.083 335.62C201.083 336.393 201.256 337.093 201.603 337.72C201.949 338.347 202.409 338.84 202.983 339.2C203.569 339.56 204.223 339.74 204.943 339.74ZM213.028 341V330.28H214.528V332.36L214.188 332.28C214.455 331.587 214.888 331.04 215.488 330.64C216.102 330.24 216.808 330.04 217.608 330.04C218.368 330.04 219.048 330.213 219.648 330.56C220.262 330.907 220.742 331.387 221.088 332C221.448 332.6 221.628 333.28 221.628 334.04V341H220.128V334.62C220.128 333.967 220.008 333.413 219.768 332.96C219.542 332.507 219.215 332.16 218.788 331.92C218.375 331.667 217.895 331.54 217.348 331.54C216.802 331.54 216.315 331.667 215.888 331.92C215.462 332.16 215.128 332.513 214.888 332.98C214.648 333.433 214.528 333.98 214.528 334.62V341H213.028ZM227.593 341.24C226.913 341.24 226.306 341.113 225.773 340.86C225.24 340.593 224.82 340.233 224.513 339.78C224.206 339.327 224.053 338.807 224.053 338.22C224.053 337.66 224.173 337.153 224.413 336.7C224.653 336.233 225.026 335.84 225.533 335.52C226.04 335.2 226.686 334.973 227.473 334.84L231.673 334.14V335.5L227.833 336.14C227.06 336.273 226.5 336.52 226.153 336.88C225.82 337.24 225.653 337.667 225.653 338.16C225.653 338.64 225.84 339.047 226.213 339.38C226.6 339.713 227.093 339.88 227.693 339.88C228.426 339.88 229.066 339.727 229.613 339.42C230.16 339.1 230.586 338.673 230.893 338.14C231.2 337.607 231.353 337.013 231.353 336.36V333.64C231.353 333 231.12 332.48 230.653 332.08C230.186 331.68 229.58 331.48 228.833 331.48C228.18 331.48 227.606 331.647 227.113 331.98C226.62 332.3 226.253 332.72 226.013 333.24L224.653 332.5C224.853 332.047 225.166 331.633 225.593 331.26C226.033 330.887 226.533 330.593 227.093 330.38C227.653 330.153 228.233 330.04 228.833 330.04C229.62 330.04 230.313 330.193 230.913 330.5C231.526 330.807 232 331.233 232.333 331.78C232.68 332.313 232.853 332.933 232.853 333.64V341H231.353V338.86L231.573 339.08C231.386 339.48 231.093 339.847 230.693 340.18C230.306 340.5 229.846 340.76 229.313 340.96C228.793 341.147 228.22 341.24 227.593 341.24ZM235.938 341V325.86H237.438V341H235.938ZM249.147 341.24C248.201 341.24 247.341 341.06 246.567 340.7C245.794 340.34 245.141 339.86 244.607 339.26C244.074 338.647 243.694 337.973 243.467 337.24L244.907 336.7C245.254 337.713 245.794 338.487 246.527 339.02C247.261 339.54 248.134 339.8 249.147 339.8C249.787 339.8 250.347 339.7 250.827 339.5C251.321 339.287 251.701 338.993 251.967 338.62C252.234 338.247 252.367 337.813 252.367 337.32C252.367 336.587 252.167 336.02 251.767 335.62C251.367 335.22 250.794 334.913 250.047 334.7L247.367 333.9C246.314 333.593 245.501 333.08 244.927 332.36C244.367 331.64 244.087 330.82 244.087 329.9C244.087 329.113 244.281 328.42 244.667 327.82C245.054 327.207 245.581 326.727 246.247 326.38C246.927 326.033 247.694 325.86 248.547 325.86C249.441 325.86 250.241 326.027 250.947 326.36C251.667 326.68 252.274 327.107 252.767 327.64C253.261 328.173 253.614 328.767 253.827 329.42L252.427 329.98C252.107 329.1 251.607 328.433 250.927 327.98C250.261 327.527 249.474 327.3 248.567 327.3C247.994 327.3 247.487 327.4 247.047 327.6C246.621 327.8 246.287 328.087 246.047 328.46C245.807 328.833 245.687 329.273 245.687 329.78C245.687 330.393 245.881 330.947 246.267 331.44C246.654 331.92 247.247 332.28 248.047 332.52L250.407 333.22C251.581 333.567 252.467 334.067 253.067 334.72C253.667 335.373 253.967 336.193 253.967 337.18C253.967 337.98 253.761 338.687 253.347 339.3C252.947 339.9 252.381 340.373 251.647 340.72C250.927 341.067 250.094 341.24 249.147 341.24ZM261.717 341.24C260.717 341.24 259.81 341 258.997 340.52C258.197 340.027 257.564 339.353 257.097 338.5C256.63 337.647 256.397 336.68 256.397 335.6C256.397 334.52 256.624 333.567 257.077 332.74C257.53 331.9 258.144 331.24 258.917 330.76C259.704 330.28 260.584 330.04 261.557 330.04C262.33 330.04 263.017 330.187 263.617 330.48C264.23 330.76 264.75 331.147 265.177 331.64C265.604 332.12 265.93 332.667 266.157 333.28C266.384 333.88 266.497 334.5 266.497 335.14C266.497 335.273 266.49 335.427 266.477 335.6C266.464 335.76 266.444 335.927 266.417 336.1H257.357V334.7H265.557L264.837 335.3C264.957 334.567 264.87 333.913 264.577 333.34C264.297 332.753 263.89 332.293 263.357 331.96C262.824 331.613 262.224 331.44 261.557 331.44C260.89 331.44 260.27 331.613 259.697 331.96C259.137 332.307 258.697 332.793 258.377 333.42C258.057 334.033 257.93 334.767 257.997 335.62C257.93 336.473 258.064 337.22 258.397 337.86C258.744 338.487 259.21 338.973 259.797 339.32C260.397 339.667 261.037 339.84 261.717 339.84C262.504 339.84 263.164 339.653 263.697 339.28C264.23 338.907 264.664 338.44 264.997 337.88L266.277 338.56C266.064 339.04 265.737 339.487 265.297 339.9C264.857 340.3 264.33 340.627 263.717 340.88C263.117 341.12 262.45 341.24 261.717 341.24ZM269.142 341V330.28H270.642V332.04L270.442 331.78C270.695 331.273 271.075 330.873 271.582 330.58C272.102 330.287 272.728 330.14 273.462 330.14H274.142V331.64H273.202C272.428 331.64 271.808 331.88 271.342 332.36C270.875 332.84 270.642 333.52 270.642 334.4V341H269.142ZM278.759 341L274.579 330.28H276.259L279.779 339.68H279.239L282.779 330.28H284.479L280.259 341H278.759ZM286.231 341V330.28H287.731V341H286.231ZM286.231 328.3V326.1H287.731V328.3H286.231ZM295.702 341.24C294.648 341.24 293.722 340.993 292.922 340.5C292.122 340.007 291.495 339.34 291.042 338.5C290.588 337.647 290.362 336.687 290.362 335.62C290.362 334.553 290.588 333.6 291.042 332.76C291.495 331.92 292.122 331.26 292.922 330.78C293.722 330.287 294.648 330.04 295.702 330.04C296.368 330.04 296.995 330.16 297.582 330.4C298.168 330.64 298.688 330.967 299.142 331.38C299.595 331.78 299.935 332.247 300.162 332.78L298.802 333.48C298.535 332.907 298.128 332.44 297.582 332.08C297.035 331.72 296.408 331.54 295.702 331.54C294.995 331.54 294.355 331.72 293.782 332.08C293.222 332.427 292.775 332.913 292.442 333.54C292.122 334.153 291.962 334.853 291.962 335.64C291.962 336.413 292.122 337.113 292.442 337.74C292.775 338.353 293.222 338.84 293.782 339.2C294.355 339.56 294.995 339.74 295.702 339.74C296.408 339.74 297.028 339.56 297.562 339.2C298.108 338.84 298.522 338.36 298.802 337.76L300.162 338.5C299.935 339.02 299.595 339.487 299.142 339.9C298.688 340.313 298.168 340.64 297.582 340.88C296.995 341.12 296.368 341.24 295.702 341.24ZM307.674 341.24C306.674 341.24 305.767 341 304.954 340.52C304.154 340.027 303.521 339.353 303.054 338.5C302.587 337.647 302.354 336.68 302.354 335.6C302.354 334.52 302.581 333.567 303.034 332.74C303.487 331.9 304.101 331.24 304.874 330.76C305.661 330.28 306.541 330.04 307.514 330.04C308.287 330.04 308.974 330.187 309.574 330.48C310.187 330.76 310.707 331.147 311.134 331.64C311.561 332.12 311.887 332.667 312.114 333.28C312.341 333.88 312.454 334.5 312.454 335.14C312.454 335.273 312.447 335.427 312.434 335.6C312.421 335.76 312.401 335.927 312.374 336.1H303.314V334.7H311.514L310.794 335.3C310.914 334.567 310.827 333.913 310.534 333.34C310.254 332.753 309.847 332.293 309.314 331.96C308.781 331.613 308.181 331.44 307.514 331.44C306.847 331.44 306.227 331.613 305.654 331.96C305.094 332.307 304.654 332.793 304.334 333.42C304.014 334.033 303.887 334.767 303.954 335.62C303.887 336.473 304.021 337.22 304.354 337.86C304.701 338.487 305.167 338.973 305.754 339.32C306.354 339.667 306.994 339.84 307.674 339.84C308.461 339.84 309.121 339.653 309.654 339.28C310.187 338.907 310.621 338.44 310.954 337.88L312.234 338.56C312.021 339.04 311.694 339.487 311.254 339.9C310.814 340.3 310.287 340.627 309.674 340.88C309.074 341.12 308.407 341.24 307.674 341.24ZM318.819 341.24C317.792 341.24 316.892 340.98 316.119 340.46C315.345 339.94 314.785 339.233 314.439 338.34L315.699 337.74C316.005 338.393 316.432 338.913 316.979 339.3C317.539 339.687 318.152 339.88 318.819 339.88C319.459 339.88 319.999 339.727 320.439 339.42C320.879 339.1 321.099 338.687 321.099 338.18C321.099 337.807 320.992 337.513 320.779 337.3C320.565 337.073 320.319 336.9 320.039 336.78C319.759 336.66 319.512 336.573 319.299 336.52L317.759 336.08C316.772 335.8 316.059 335.407 315.619 334.9C315.179 334.393 314.959 333.807 314.959 333.14C314.959 332.513 315.119 331.967 315.439 331.5C315.759 331.033 316.192 330.673 316.739 330.42C317.285 330.167 317.892 330.04 318.559 330.04C319.465 330.04 320.285 330.28 321.019 330.76C321.765 331.227 322.292 331.88 322.599 332.72L321.319 333.32C321.052 332.72 320.665 332.253 320.159 331.92C319.665 331.573 319.112 331.4 318.499 331.4C317.899 331.4 317.419 331.553 317.059 331.86C316.699 332.167 316.519 332.553 316.519 333.02C316.519 333.38 316.612 333.667 316.799 333.88C316.985 334.093 317.199 334.253 317.439 334.36C317.692 334.467 317.912 334.547 318.099 334.6L319.879 335.12C320.745 335.373 321.419 335.767 321.899 336.3C322.392 336.833 322.639 337.46 322.639 338.18C322.639 338.767 322.472 339.293 322.139 339.76C321.819 340.227 321.372 340.593 320.799 340.86C320.225 341.113 319.565 341.24 318.819 341.24Z" fill="white"/>
<g clip-path="url(#clip1_1_614)">
<path d="M63 392C70.1799 392 76 386.18 76 379C76 371.82 70.1799 366 63 366C55.8201 366 50 371.82 50 379C50 386.18 55.8201 392 63 392Z" fill="#181818"/>
<path d="M57.1168 379.84L60.4786 383.202L68.8832 374.798" stroke="white" stroke-width="2" stroke-linecap="round" stroke-linejoin="round"/>
</g>
<path d="M103 387.24C101.947 387.24 101.02 387.02 100.22 386.58C99.42 386.14 98.8 385.54 98.36 384.78C97.92 384.007 97.7 383.127 97.7 382.14V372.1H99.3V382.14C99.3 382.86 99.4533 383.493 99.76 384.04C100.08 384.573 100.513 384.993 101.06 385.3C101.62 385.593 102.267 385.74 103 385.74C103.733 385.74 104.373 385.593 104.92 385.3C105.48 384.993 105.913 384.573 106.22 384.04C106.54 383.493 106.7 382.86 106.7 382.14V372.1H108.3V382.14C108.3 383.127 108.08 384.007 107.64 384.78C107.2 385.54 106.58 386.14 105.78 386.58C104.993 387.02 104.067 387.24 103 387.24ZM111.544 391V376.28H113.044V378.68L112.804 378.26C113.231 377.58 113.797 377.04 114.504 376.64C115.224 376.24 116.044 376.04 116.964 376.04C117.977 376.04 118.877 376.287 119.664 376.78C120.464 377.26 121.091 377.92 121.544 378.76C122.011 379.6 122.244 380.56 122.244 381.64C122.244 382.707 122.011 383.667 121.544 384.52C121.091 385.36 120.464 386.027 119.664 386.52C118.877 387 117.977 387.24 116.964 387.24C116.044 387.24 115.211 387.033 114.464 386.62C113.731 386.193 113.177 385.593 112.804 384.82L113.044 384.6V391H111.544ZM116.884 385.74C117.604 385.74 118.244 385.56 118.804 385.2C119.377 384.84 119.824 384.353 120.144 383.74C120.477 383.113 120.644 382.413 120.644 381.64C120.644 380.853 120.477 380.153 120.144 379.54C119.824 378.927 119.377 378.44 118.804 378.08C118.244 377.72 117.604 377.54 116.884 377.54C116.164 377.54 115.511 377.72 114.924 378.08C114.351 378.44 113.891 378.933 113.544 379.56C113.211 380.173 113.044 380.867 113.044 381.64C113.044 382.413 113.211 383.113 113.544 383.74C113.891 384.353 114.351 384.84 114.924 385.2C115.511 385.56 116.164 385.74 116.884 385.74ZM132.382 387.12C131.422 387.12 130.682 386.84 130.162 386.28C129.642 385.72 129.382 384.92 129.382 383.88V377.78H127.402V376.28H127.902C128.356 376.28 128.716 376.133 128.982 375.84C129.249 375.533 129.382 375.153 129.382 374.7V373.8H130.882V376.28H133.242V377.78H130.882V383.88C130.882 384.24 130.936 384.56 131.042 384.84C131.149 385.107 131.329 385.32 131.582 385.48C131.849 385.64 132.202 385.72 132.642 385.72C132.749 385.72 132.876 385.713 133.022 385.7C133.169 385.687 133.296 385.673 133.402 385.66V387C133.242 387.04 133.062 387.067 132.862 387.08C132.662 387.107 132.502 387.12 132.382 387.12ZM140.665 387.24C139.652 387.24 138.732 387 137.905 386.52C137.079 386.027 136.419 385.36 135.925 384.52C135.445 383.667 135.205 382.7 135.205 381.62C135.205 380.553 135.445 379.6 135.925 378.76C136.405 377.92 137.052 377.26 137.865 376.78C138.692 376.287 139.625 376.04 140.665 376.04C141.705 376.04 142.632 376.28 143.445 376.76C144.272 377.24 144.919 377.9 145.385 378.74C145.865 379.58 146.105 380.54 146.105 381.62C146.105 382.713 145.859 383.687 145.365 384.54C144.872 385.38 144.212 386.04 143.385 386.52C142.572 387 141.665 387.24 140.665 387.24ZM140.665 385.74C141.385 385.74 142.032 385.56 142.605 385.2C143.192 384.84 143.652 384.347 143.985 383.72C144.332 383.093 144.505 382.393 144.505 381.62C144.505 380.847 144.332 380.153 143.985 379.54C143.652 378.927 143.192 378.44 142.605 378.08C142.032 377.72 141.385 377.54 140.665 377.54C139.945 377.54 139.292 377.72 138.705 378.08C138.132 378.44 137.672 378.927 137.325 379.54C136.979 380.153 136.805 380.847 136.805 381.62C136.805 382.393 136.979 383.093 137.325 383.72C137.672 384.347 138.132 384.84 138.705 385.2C139.292 385.56 139.945 385.74 140.665 385.74ZM154.229 387V373.5H151.429V372.1H155.829V387H154.229ZM165.371 387.24C164.198 387.24 163.165 386.92 162.271 386.28C161.391 385.627 160.705 384.727 160.211 383.58C159.718 382.42 159.471 381.073 159.471 379.54C159.471 378.007 159.718 376.667 160.211 375.52C160.705 374.36 161.391 373.46 162.271 372.82C163.151 372.18 164.178 371.86 165.351 371.86C166.525 371.86 167.551 372.18 168.431 372.82C169.311 373.46 169.998 374.36 170.491 375.52C170.985 376.667 171.231 378.007 171.231 379.54C171.231 381.073 170.985 382.42 170.491 383.58C170.011 384.74 169.331 385.64 168.451 386.28C167.571 386.92 166.545 387.24 165.371 387.24ZM165.371 385.74C166.225 385.74 166.971 385.48 167.611 384.96C168.251 384.44 168.751 383.72 169.111 382.8C169.471 381.867 169.651 380.78 169.651 379.54C169.651 378.3 169.471 377.22 169.111 376.3C168.751 375.367 168.251 374.647 167.611 374.14C166.971 373.62 166.218 373.36 165.351 373.36C164.498 373.36 163.751 373.62 163.111 374.14C162.471 374.647 161.971 375.367 161.611 376.3C161.251 377.22 161.071 378.3 161.071 379.54C161.071 380.767 161.251 381.847 161.611 382.78C161.971 383.713 162.471 384.44 163.111 384.96C163.765 385.48 164.518 385.74 165.371 385.74ZM178 387V382.74H173.74V381.24H178V377H179.5V381.24H183.74V382.74H179.5V387H178ZM189.967 387V372.1H195.087C196.06 372.1 196.914 372.293 197.647 372.68C198.38 373.053 198.947 373.587 199.347 374.28C199.76 374.96 199.967 375.753 199.967 376.66C199.967 377.567 199.76 378.36 199.347 379.04C198.947 379.72 198.38 380.253 197.647 380.64C196.927 381.013 196.074 381.2 195.087 381.2H191.567V387H189.967ZM191.567 379.7H195.167C195.807 379.7 196.367 379.58 196.847 379.34C197.327 379.087 197.7 378.733 197.967 378.28C198.234 377.813 198.367 377.267 198.367 376.64C198.367 376.013 198.234 375.473 197.967 375.02C197.7 374.567 197.327 374.22 196.847 373.98C196.367 373.727 195.807 373.6 195.167 373.6H191.567V379.7ZM202.599 387V376.28H204.099V378.04L203.899 377.78C204.152 377.273 204.532 376.873 205.039 376.58C205.559 376.287 206.185 376.14 206.919 376.14H207.599V377.64H206.659C205.885 377.64 205.265 377.88 204.799 378.36C204.332 378.84 204.099 379.52 204.099 380.4V387H202.599ZM214.376 387.24C213.363 387.24 212.443 387 211.616 386.52C210.79 386.027 210.13 385.36 209.636 384.52C209.156 383.667 208.916 382.7 208.916 381.62C208.916 380.553 209.156 379.6 209.636 378.76C210.116 377.92 210.763 377.26 211.576 376.78C212.403 376.287 213.336 376.04 214.376 376.04C215.416 376.04 216.343 376.28 217.156 376.76C217.983 377.24 218.63 377.9 219.096 378.74C219.576 379.58 219.816 380.54 219.816 381.62C219.816 382.713 219.57 383.687 219.076 384.54C218.583 385.38 217.923 386.04 217.096 386.52C216.283 387 215.376 387.24 214.376 387.24ZM214.376 385.74C215.096 385.74 215.743 385.56 216.316 385.2C216.903 384.84 217.363 384.347 217.696 383.72C218.043 383.093 218.216 382.393 218.216 381.62C218.216 380.847 218.043 380.153 217.696 379.54C217.363 378.927 216.903 378.44 216.316 378.08C215.743 377.72 215.096 377.54 214.376 377.54C213.656 377.54 213.003 377.72 212.416 378.08C211.843 378.44 211.383 378.927 211.036 379.54C210.69 380.153 210.516 380.847 210.516 381.62C210.516 382.393 210.69 383.093 211.036 383.72C211.383 384.347 211.843 384.84 212.416 385.2C213.003 385.56 213.656 385.74 214.376 385.74ZM220.462 391.4C220.369 391.4 220.242 391.393 220.082 391.38C219.909 391.367 219.769 391.347 219.662 391.32V389.94C219.942 389.98 220.222 390 220.502 390C221.049 390 221.509 389.833 221.882 389.5C222.269 389.167 222.462 388.667 222.462 388V376.28H223.962V388C223.962 388.733 223.802 389.353 223.482 389.86C223.162 390.367 222.735 390.747 222.202 391C221.682 391.267 221.102 391.4 220.462 391.4ZM222.462 374.3V372.1H223.962V374.3H222.462ZM231.912 387.24C230.912 387.24 230.006 387 229.192 386.52C228.392 386.027 227.759 385.353 227.292 384.5C226.826 383.647 226.592 382.68 226.592 381.6C226.592 380.52 226.819 379.567 227.272 378.74C227.726 377.9 228.339 377.24 229.112 376.76C229.899 376.28 230.779 376.04 231.752 376.04C232.526 376.04 233.212 376.187 233.812 376.48C234.426 376.76 234.946 377.147 235.372 377.64C235.799 378.12 236.126 378.667 236.352 379.28C236.579 379.88 236.692 380.5 236.692 381.14C236.692 381.273 236.686 381.427 236.672 381.6C236.659 381.76 236.639 381.927 236.612 382.1H227.552V380.7H235.752L235.032 381.3C235.152 380.567 235.066 379.913 234.772 379.34C234.492 378.753 234.086 378.293 233.552 377.96C233.019 377.613 232.419 377.44 231.752 377.44C231.086 377.44 230.466 377.613 229.892 377.96C229.332 378.307 228.892 378.793 228.572 379.42C228.252 380.033 228.126 380.767 228.192 381.62C228.126 382.473 228.259 383.22 228.592 383.86C228.939 384.487 229.406 384.973 229.992 385.32C230.592 385.667 231.232 385.84 231.912 385.84C232.699 385.84 233.359 385.653 233.892 385.28C234.426 384.907 234.859 384.44 235.192 383.88L236.472 384.56C236.259 385.04 235.932 385.487 235.492 385.9C235.052 386.3 234.526 386.627 233.912 386.88C233.312 387.12 232.646 387.24 231.912 387.24ZM244.237 387.24C243.184 387.24 242.257 386.993 241.457 386.5C240.657 386.007 240.03 385.34 239.577 384.5C239.124 383.647 238.897 382.687 238.897 381.62C238.897 380.553 239.124 379.6 239.577 378.76C240.03 377.92 240.657 377.26 241.457 376.78C242.257 376.287 243.184 376.04 244.237 376.04C244.904 376.04 245.53 376.16 246.117 376.4C246.704 376.64 247.224 376.967 247.677 377.38C248.13 377.78 248.47 378.247 248.697 378.78L247.337 379.48C247.07 378.907 246.664 378.44 246.117 378.08C245.57 377.72 244.944 377.54 244.237 377.54C243.53 377.54 242.89 377.72 242.317 378.08C241.757 378.427 241.31 378.913 240.977 379.54C240.657 380.153 240.497 380.853 240.497 381.64C240.497 382.413 240.657 383.113 240.977 383.74C241.31 384.353 241.757 384.84 242.317 385.2C242.89 385.56 243.53 385.74 244.237 385.74C244.944 385.74 245.564 385.56 246.097 385.2C246.644 384.84 247.057 384.36 247.337 383.76L248.697 384.5C248.47 385.02 248.13 385.487 247.677 385.9C247.224 386.313 246.704 386.64 246.117 386.88C245.53 387.12 244.904 387.24 244.237 387.24ZM255.429 387.12C254.469 387.12 253.729 386.84 253.209 386.28C252.689 385.72 252.429 384.92 252.429 383.88V377.78H250.449V376.28H250.949C251.402 376.28 251.762 376.133 252.029 375.84C252.296 375.533 252.429 375.153 252.429 374.7V373.8H253.929V376.28H256.289V377.78H253.929V383.88C253.929 384.24 253.982 384.56 254.089 384.84C254.196 385.107 254.376 385.32 254.629 385.48C254.896 385.64 255.249 385.72 255.689 385.72C255.796 385.72 255.922 385.713 256.069 385.7C256.216 385.687 256.342 385.673 256.449 385.66V387C256.289 387.04 256.109 387.067 255.909 387.08C255.709 387.107 255.549 387.12 255.429 387.12ZM262.803 387.24C261.776 387.24 260.876 386.98 260.103 386.46C259.33 385.94 258.77 385.233 258.423 384.34L259.683 383.74C259.99 384.393 260.416 384.913 260.963 385.3C261.523 385.687 262.136 385.88 262.803 385.88C263.443 385.88 263.983 385.727 264.423 385.42C264.863 385.1 265.083 384.687 265.083 384.18C265.083 383.807 264.976 383.513 264.763 383.3C264.55 383.073 264.303 382.9 264.023 382.78C263.743 382.66 263.496 382.573 263.283 382.52L261.743 382.08C260.756 381.8 260.043 381.407 259.603 380.9C259.163 380.393 258.943 379.807 258.943 379.14C258.943 378.513 259.103 377.967 259.423 377.5C259.743 377.033 260.176 376.673 260.723 376.42C261.27 376.167 261.876 376.04 262.543 376.04C263.45 376.04 264.27 376.28 265.003 376.76C265.75 377.227 266.276 377.88 266.583 378.72L265.303 379.32C265.036 378.72 264.65 378.253 264.143 377.92C263.65 377.573 263.096 377.4 262.483 377.4C261.883 377.4 261.403 377.553 261.043 377.86C260.683 378.167 260.503 378.553 260.503 379.02C260.503 379.38 260.596 379.667 260.783 379.88C260.97 380.093 261.183 380.253 261.423 380.36C261.676 380.467 261.896 380.547 262.083 380.6L263.863 381.12C264.73 381.373 265.403 381.767 265.883 382.3C266.376 382.833 266.623 383.46 266.623 384.18C266.623 384.767 266.456 385.293 266.123 385.76C265.803 386.227 265.356 386.593 264.783 386.86C264.21 387.113 263.55 387.24 262.803 387.24ZM272.877 387V372.1H277.777C279.257 372.1 280.544 372.407 281.637 373.02C282.731 373.62 283.577 374.48 284.177 375.6C284.777 376.707 285.077 378.02 285.077 379.54C285.077 381.047 284.777 382.36 284.177 383.48C283.577 384.6 282.731 385.467 281.637 386.08C280.544 386.693 279.257 387 277.777 387H272.877ZM274.477 385.5H277.777C278.924 385.5 279.917 385.26 280.757 384.78C281.597 384.287 282.244 383.593 282.697 382.7C283.164 381.807 283.397 380.753 283.397 379.54C283.397 378.327 283.164 377.28 282.697 376.4C282.231 375.507 281.577 374.82 280.737 374.34C279.897 373.847 278.911 373.6 277.777 373.6H274.477V385.5ZM292.521 387.24C291.508 387.24 290.588 387 289.761 386.52C288.934 386.027 288.274 385.36 287.781 384.52C287.301 383.667 287.061 382.7 287.061 381.62C287.061 380.553 287.301 379.6 287.781 378.76C288.261 377.92 288.908 377.26 289.721 376.78C290.548 376.287 291.481 376.04 292.521 376.04C293.561 376.04 294.488 376.28 295.301 376.76C296.128 377.24 296.774 377.9 297.241 378.74C297.721 379.58 297.961 380.54 297.961 381.62C297.961 382.713 297.714 383.687 297.221 384.54C296.728 385.38 296.068 386.04 295.241 386.52C294.428 387 293.521 387.24 292.521 387.24ZM292.521 385.74C293.241 385.74 293.888 385.56 294.461 385.2C295.048 384.84 295.508 384.347 295.841 383.72C296.188 383.093 296.361 382.393 296.361 381.62C296.361 380.847 296.188 380.153 295.841 379.54C295.508 378.927 295.048 378.44 294.461 378.08C293.888 377.72 293.241 377.54 292.521 377.54C291.801 377.54 291.148 377.72 290.561 378.08C289.988 378.44 289.528 378.927 289.181 379.54C288.834 380.153 288.661 380.847 288.661 381.62C288.661 382.393 288.834 383.093 289.181 383.72C289.528 384.347 289.988 384.84 290.561 385.2C291.148 385.56 291.801 385.74 292.521 385.74ZM300.606 387V376.28H302.106V378.36L301.766 378.28C302.033 377.587 302.466 377.04 303.066 376.64C303.68 376.24 304.386 376.04 305.186 376.04C305.946 376.04 306.626 376.213 307.226 376.56C307.84 376.907 308.32 377.387 308.666 378C309.026 378.6 309.206 379.28 309.206 380.04V387H307.706V380.62C307.706 379.967 307.586 379.413 307.346 378.96C307.12 378.507 306.793 378.16 306.366 377.92C305.953 377.667 305.473 377.54 304.926 377.54C304.38 377.54 303.893 377.667 303.466 377.92C303.04 378.16 302.706 378.513 302.466 378.98C302.226 379.433 302.106 379.98 302.106 380.62V387H300.606ZM316.951 387.24C315.951 387.24 315.045 387 314.231 386.52C313.431 386.027 312.798 385.353 312.331 384.5C311.865 383.647 311.631 382.68 311.631 381.6C311.631 380.52 311.858 379.567 312.311 378.74C312.765 377.9 313.378 377.24 314.151 376.76C314.938 376.28 315.818 376.04 316.791 376.04C317.565 376.04 318.251 376.187 318.851 376.48C319.465 376.76 319.985 377.147 320.411 377.64C320.838 378.12 321.165 378.667 321.391 379.28C321.618 379.88 321.731 380.5 321.731 381.14C321.731 381.273 321.725 381.427 321.711 381.6C321.698 381.76 321.678 381.927 321.651 382.1H312.591V380.7H320.791L320.071 381.3C320.191 380.567 320.105 379.913 319.811 379.34C319.531 378.753 319.125 378.293 318.591 377.96C318.058 377.613 317.458 377.44 316.791 377.44C316.125 377.44 315.505 377.613 314.931 377.96C314.371 378.307 313.931 378.793 313.611 379.42C313.291 380.033 313.165 380.767 313.231 381.62C313.165 382.473 313.298 383.22 313.631 383.86C313.978 384.487 314.445 384.973 315.031 385.32C315.631 385.667 316.271 385.84 316.951 385.84C317.738 385.84 318.398 385.653 318.931 385.28C319.465 384.907 319.898 384.44 320.231 383.88L321.511 384.56C321.298 385.04 320.971 385.487 320.531 385.9C320.091 386.3 319.565 386.627 318.951 386.88C318.351 387.12 317.685 387.24 316.951 387.24Z" fill="white"/>
<g clip-path="url(#clip2_1_614)">
<path d="M63 438C70.1799 438 76 432.18 76 425C76 417.82 70.1799 412 63 412C55.8201 412 50 417.82 50 425C50 432.18 55.8201 438 63 438Z" fill="#181818"/>
<path d="M57.1168 425.84L60.4786 429.202L68.8832 420.798" stroke="white" stroke-width="2" stroke-linecap="round" stroke-linejoin="round"/>
</g>
<path d="M97.76 433V418.1H102.88C103.853 418.1 104.707 418.293 105.44 418.68C106.173 419.053 106.74 419.587 107.14 420.28C107.553 420.96 107.76 421.753 107.76 422.66C107.76 423.713 107.48 424.613 106.92 425.36C106.373 426.107 105.627 426.633 104.68 426.94L108.16 433H106.28L102.64 426.58L103.72 427.2H99.36V433H97.76ZM99.36 425.7H102.96C103.6 425.7 104.16 425.58 104.64 425.34C105.12 425.087 105.493 424.733 105.76 424.28C106.027 423.813 106.16 423.267 106.16 422.64C106.16 422.013 106.027 421.473 105.76 421.02C105.493 420.567 105.12 420.22 104.64 419.98C104.16 419.727 103.6 419.6 102.96 419.6H99.36V425.7ZM114.627 433.24C113.627 433.24 112.72 433 111.907 432.52C111.107 432.027 110.474 431.353 110.007 430.5C109.54 429.647 109.307 428.68 109.307 427.6C109.307 426.52 109.534 425.567 109.987 424.74C110.44 423.9 111.054 423.24 111.827 422.76C112.614 422.28 113.494 422.04 114.467 422.04C115.24 422.04 115.927 422.187 116.527 422.48C117.14 422.76 117.66 423.147 118.087 423.64C118.514 424.12 118.84 424.667 119.067 425.28C119.294 425.88 119.407 426.5 119.407 427.14C119.407 427.273 119.4 427.427 119.387 427.6C119.374 427.76 119.354 427.927 119.327 428.1H110.267V426.7H118.467L117.747 427.3C117.867 426.567 117.78 425.913 117.487 425.34C117.207 424.753 116.8 424.293 116.267 423.96C115.734 423.613 115.134 423.44 114.467 423.44C113.8 423.44 113.18 423.613 112.607 423.96C112.047 424.307 111.607 424.793 111.287 425.42C110.967 426.033 110.84 426.767 110.907 427.62C110.84 428.473 110.974 429.22 111.307 429.86C111.654 430.487 112.12 430.973 112.707 431.32C113.307 431.667 113.947 431.84 114.627 431.84C115.414 431.84 116.074 431.653 116.607 431.28C117.14 430.907 117.574 430.44 117.907 429.88L119.187 430.56C118.974 431.04 118.647 431.487 118.207 431.9C117.767 432.3 117.24 432.627 116.627 432.88C116.027 433.12 115.36 433.24 114.627 433.24ZM127.132 437.4C126.398 437.4 125.718 437.287 125.092 437.06C124.478 436.833 123.945 436.52 123.492 436.12C123.052 435.733 122.712 435.28 122.472 434.76L123.852 434.02C124.065 434.527 124.445 434.967 124.992 435.34C125.538 435.713 126.238 435.9 127.092 435.9C127.745 435.9 128.345 435.773 128.892 435.52C129.438 435.267 129.878 434.893 130.212 434.4C130.545 433.907 130.712 433.3 130.712 432.58V430.2L130.952 430.42C130.578 431.193 130.025 431.793 129.292 432.22C128.558 432.633 127.758 432.84 126.892 432.84C125.892 432.84 124.992 432.6 124.192 432.12C123.392 431.64 122.758 430.993 122.292 430.18C121.838 429.353 121.612 428.44 121.612 427.44C121.612 426.427 121.838 425.513 122.292 424.7C122.758 423.887 123.385 423.24 124.172 422.76C124.972 422.28 125.878 422.04 126.892 422.04C127.758 422.04 128.545 422.24 129.252 422.64C129.972 423.04 130.538 423.58 130.952 424.26L130.712 424.68V422.28H132.212V432.58C132.212 433.5 131.992 434.32 131.552 435.04C131.125 435.773 130.525 436.347 129.752 436.76C128.992 437.187 128.118 437.4 127.132 437.4ZM126.972 431.34C127.665 431.34 128.292 431.167 128.852 430.82C129.412 430.46 129.858 429.987 130.192 429.4C130.538 428.8 130.712 428.147 130.712 427.44C130.712 426.733 130.538 426.087 130.192 425.5C129.858 424.9 129.412 424.427 128.852 424.08C128.292 423.72 127.665 423.54 126.972 423.54C126.265 423.54 125.625 423.72 125.052 424.08C124.478 424.427 124.025 424.893 123.692 425.48C123.372 426.067 123.212 426.72 123.212 427.44C123.212 428.147 123.372 428.8 123.692 429.4C124.025 429.987 124.472 430.46 125.032 430.82C125.605 431.167 126.252 431.34 126.972 431.34ZM139.094 433.24C138.347 433.24 137.667 433.067 137.054 432.72C136.441 432.36 135.954 431.867 135.594 431.24C135.247 430.6 135.074 429.867 135.074 429.04V422.28H136.574V428.86C136.574 429.433 136.687 429.94 136.914 430.38C137.154 430.807 137.481 431.14 137.894 431.38C138.321 431.62 138.807 431.74 139.354 431.74C139.901 431.74 140.387 431.62 140.814 431.38C141.241 431.127 141.574 430.773 141.814 430.32C142.054 429.853 142.174 429.3 142.174 428.66V422.28H143.674V433H142.174V430.92L142.514 431C142.261 431.693 141.827 432.24 141.214 432.64C140.601 433.04 139.894 433.24 139.094 433.24ZM146.759 433V417.86H148.259V433H146.759ZM154.429 433.24C153.749 433.24 153.142 433.113 152.609 432.86C152.076 432.593 151.656 432.233 151.349 431.78C151.042 431.327 150.889 430.807 150.889 430.22C150.889 429.66 151.009 429.153 151.249 428.7C151.489 428.233 151.862 427.84 152.369 427.52C152.876 427.2 153.522 426.973 154.309 426.84L158.509 426.14V427.5L154.669 428.14C153.896 428.273 153.336 428.52 152.989 428.88C152.656 429.24 152.489 429.667 152.489 430.16C152.489 430.64 152.676 431.047 153.049 431.38C153.436 431.713 153.929 431.88 154.529 431.88C155.262 431.88 155.902 431.727 156.449 431.42C156.996 431.1 157.422 430.673 157.729 430.14C158.036 429.607 158.189 429.013 158.189 428.36V425.64C158.189 425 157.956 424.48 157.489 424.08C157.022 423.68 156.416 423.48 155.669 423.48C155.016 423.48 154.442 423.647 153.949 423.98C153.456 424.3 153.089 424.72 152.849 425.24L151.489 424.5C151.689 424.047 152.002 423.633 152.429 423.26C152.869 422.887 153.369 422.593 153.929 422.38C154.489 422.153 155.069 422.04 155.669 422.04C156.456 422.04 157.149 422.193 157.749 422.5C158.362 422.807 158.836 423.233 159.169 423.78C159.516 424.313 159.689 424.933 159.689 425.64V433H158.189V430.86L158.409 431.08C158.222 431.48 157.929 431.847 157.529 432.18C157.142 432.5 156.682 432.76 156.149 432.96C155.629 433.147 155.056 433.24 154.429 433.24ZM162.774 433V422.28H164.274V424.04L164.074 423.78C164.328 423.273 164.708 422.873 165.214 422.58C165.734 422.287 166.361 422.14 167.094 422.14H167.774V423.64H166.834C166.061 423.64 165.441 423.88 164.974 424.36C164.508 424.84 164.274 425.52 164.274 426.4V433H162.774ZM176.651 433.24C175.624 433.24 174.724 432.98 173.951 432.46C173.177 431.94 172.617 431.233 172.271 430.34L173.531 429.74C173.837 430.393 174.264 430.913 174.811 431.3C175.371 431.687 175.984 431.88 176.651 431.88C177.291 431.88 177.831 431.727 178.271 431.42C178.711 431.1 178.931 430.687 178.931 430.18C178.931 429.807 178.824 429.513 178.611 429.3C178.397 429.073 178.151 428.9 177.871 428.78C177.591 428.66 177.344 428.573 177.131 428.52L175.591 428.08C174.604 427.8 173.891 427.407 173.451 426.9C173.011 426.393 172.791 425.807 172.791 425.14C172.791 424.513 172.951 423.967 173.271 423.5C173.591 423.033 174.024 422.673 174.571 422.42C175.117 422.167 175.724 422.04 176.391 422.04C177.297 422.04 178.117 422.28 178.851 422.76C179.597 423.227 180.124 423.88 180.431 424.72L179.151 425.32C178.884 424.72 178.497 424.253 177.991 423.92C177.497 423.573 176.944 423.4 176.331 423.4C175.731 423.4 175.251 423.553 174.891 423.86C174.531 424.167 174.351 424.553 174.351 425.02C174.351 425.38 174.444 425.667 174.631 425.88C174.817 426.093 175.031 426.253 175.271 426.36C175.524 426.467 175.744 426.547 175.931 426.6L177.711 427.12C178.577 427.373 179.251 427.767 179.731 428.3C180.224 428.833 180.471 429.46 180.471 430.18C180.471 430.767 180.304 431.293 179.971 431.76C179.651 432.227 179.204 432.593 178.631 432.86C178.057 433.113 177.397 433.24 176.651 433.24ZM186.906 433.24C186.16 433.24 185.48 433.067 184.866 432.72C184.253 432.36 183.766 431.867 183.406 431.24C183.06 430.6 182.886 429.867 182.886 429.04V422.28H184.386V428.86C184.386 429.433 184.5 429.94 184.726 430.38C184.966 430.807 185.293 431.14 185.706 431.38C186.133 431.62 186.62 431.74 187.166 431.74C187.713 431.74 188.2 431.62 188.626 431.38C189.053 431.127 189.386 430.773 189.626 430.32C189.866 429.853 189.986 429.3 189.986 428.66V422.28H191.486V433H189.986V430.92L190.326 431C190.073 431.693 189.64 432.24 189.026 432.64C188.413 433.04 187.706 433.24 186.906 433.24ZM194.571 437V422.28H196.071V424.68L195.831 424.26C196.258 423.58 196.825 423.04 197.531 422.64C198.251 422.24 199.071 422.04 199.991 422.04C201.005 422.04 201.905 422.287 202.691 422.78C203.491 423.26 204.118 423.92 204.571 424.76C205.038 425.6 205.271 426.56 205.271 427.64C205.271 428.707 205.038 429.667 204.571 430.52C204.118 431.36 203.491 432.027 202.691 432.52C201.905 433 201.005 433.24 199.991 433.24C199.071 433.24 198.238 433.033 197.491 432.62C196.758 432.193 196.205 431.593 195.831 430.82L196.071 430.6V437H194.571ZM199.911 431.74C200.631 431.74 201.271 431.56 201.831 431.2C202.405 430.84 202.851 430.353 203.171 429.74C203.505 429.113 203.671 428.413 203.671 427.64C203.671 426.853 203.505 426.153 203.171 425.54C202.851 424.927 202.405 424.44 201.831 424.08C201.271 423.72 200.631 423.54 199.911 423.54C199.191 423.54 198.538 423.72 197.951 424.08C197.378 424.44 196.918 424.933 196.571 425.56C196.238 426.173 196.071 426.867 196.071 427.64C196.071 428.413 196.238 429.113 196.571 429.74C196.918 430.353 197.378 430.84 197.951 431.2C198.538 431.56 199.191 431.74 199.911 431.74ZM207.911 437V422.28H209.411V424.68L209.171 424.26C209.598 423.58 210.164 423.04 210.871 422.64C211.591 422.24 212.411 422.04 213.331 422.04C214.344 422.04 215.244 422.287 216.031 422.78C216.831 423.26 217.458 423.92 217.911 424.76C218.378 425.6 218.611 426.56 218.611 427.64C218.611 428.707 218.378 429.667 217.911 430.52C217.458 431.36 216.831 432.027 216.031 432.52C215.244 433 214.344 433.24 213.331 433.24C212.411 433.24 211.578 433.033 210.831 432.62C210.098 432.193 209.544 431.593 209.171 430.82L209.411 430.6V437H207.911ZM213.251 431.74C213.971 431.74 214.611 431.56 215.171 431.2C215.744 430.84 216.191 430.353 216.511 429.74C216.844 429.113 217.011 428.413 217.011 427.64C217.011 426.853 216.844 426.153 216.511 425.54C216.191 424.927 215.744 424.44 215.171 424.08C214.611 423.72 213.971 423.54 213.251 423.54C212.531 423.54 211.878 423.72 211.291 424.08C210.718 424.44 210.258 424.933 209.911 425.56C209.578 426.173 209.411 426.867 209.411 427.64C209.411 428.413 209.578 429.113 209.911 429.74C210.258 430.353 210.718 430.84 211.291 431.2C211.878 431.56 212.531 431.74 213.251 431.74ZM226.271 433.24C225.258 433.24 224.338 433 223.511 432.52C222.684 432.027 222.024 431.36 221.531 430.52C221.051 429.667 220.811 428.7 220.811 427.62C220.811 426.553 221.051 425.6 221.531 424.76C222.011 423.92 222.658 423.26 223.471 422.78C224.298 422.287 225.231 422.04 226.271 422.04C227.311 422.04 228.238 422.28 229.051 422.76C229.878 423.24 230.524 423.9 230.991 424.74C231.471 425.58 231.711 426.54 231.711 427.62C231.711 428.713 231.464 429.687 230.971 430.54C230.478 431.38 229.818 432.04 228.991 432.52C228.178 433 227.271 433.24 226.271 433.24ZM226.271 431.74C226.991 431.74 227.638 431.56 228.211 431.2C228.798 430.84 229.258 430.347 229.591 429.72C229.938 429.093 230.111 428.393 230.111 427.62C230.111 426.847 229.938 426.153 229.591 425.54C229.258 424.927 228.798 424.44 228.211 424.08C227.638 423.72 226.991 423.54 226.271 423.54C225.551 423.54 224.898 423.72 224.311 424.08C223.738 424.44 223.278 424.927 222.931 425.54C222.584 426.153 222.411 426.847 222.411 427.62C222.411 428.393 222.584 429.093 222.931 429.72C223.278 430.347 223.738 430.84 224.311 431.2C224.898 431.56 225.551 431.74 226.271 431.74ZM234.356 433V422.28H235.856V424.04L235.656 423.78C235.91 423.273 236.29 422.873 236.796 422.58C237.316 422.287 237.943 422.14 238.676 422.14H239.356V423.64H238.416C237.643 423.64 237.023 423.88 236.556 424.36C236.09 424.84 235.856 425.52 235.856 426.4V433H234.356ZM245.214 433.12C244.254 433.12 243.514 432.84 242.994 432.28C242.474 431.72 242.214 430.92 242.214 429.88V423.78H240.234V422.28H240.734C241.188 422.28 241.548 422.133 241.814 421.84C242.081 421.533 242.214 421.153 242.214 420.7V419.8H243.714V422.28H246.074V423.78H243.714V429.88C243.714 430.24 243.768 430.56 243.874 430.84C243.981 431.107 244.161 431.32 244.414 431.48C244.681 431.64 245.034 431.72 245.474 431.72C245.581 431.72 245.708 431.713 245.854 431.7C246.001 431.687 246.128 431.673 246.234 431.66V433C246.074 433.04 245.894 433.067 245.694 433.08C245.494 433.107 245.334 433.12 245.214 433.12Z" fill="white"/>
<g clip-path="url(#clip3_1_614)">
<path d="M63 484C70.1799 484 76 478.18 76 471C76 463.82 70.1799 458 63 458C55.8201 458 50 463.82 50 471C50 478.18 55.8201 484 63 484Z" fill="#181818"/>
<path d="M57.1168 471.84L60.4786 475.202L68.8832 466.798" stroke="white" stroke-width="2" stroke-linecap="round" stroke-linejoin="round"/>
</g>
<path d="M97.16 479V478L101.32 473.42C102.133 472.527 102.793 471.787 103.3 471.2C103.82 470.613 104.207 470.08 104.46 469.6C104.713 469.12 104.84 468.6 104.84 468.04C104.84 467.147 104.58 466.46 104.06 465.98C103.54 465.5 102.847 465.26 101.98 465.26C101.087 465.26 100.333 465.513 99.72 466.02C99.12 466.527 98.7133 467.233 98.5 468.14L97.04 467.82C97.2133 467.007 97.5267 466.307 97.98 465.72C98.4333 465.133 99 464.68 99.68 464.36C100.36 464.027 101.12 463.86 101.96 463.86C102.853 463.86 103.633 464.04 104.3 464.4C104.967 464.76 105.487 465.253 105.86 465.88C106.247 466.507 106.44 467.227 106.44 468.04C106.44 468.6 106.32 469.14 106.08 469.66C105.853 470.18 105.507 470.74 105.04 471.34C104.573 471.94 103.973 472.64 103.24 473.44L99.46 477.6H106.84V479H97.16ZM116.297 479V475.48H108.717V474.18L116.297 464.1H117.697V474.18H119.517V475.48H117.697V479H116.297ZM109.937 474.76L109.757 474.18H116.297V465.48L116.797 465.62L109.937 474.76ZM120.435 481.4L127.195 464.92H128.935L122.175 481.4H120.435ZM130.549 479L137.269 465.5H129.829V464.1H138.929V465.5L132.229 479H130.549ZM144.987 479V464.1H146.587V470.8H154.587V464.1H156.187V479H154.587V472.3H146.587V479H144.987ZM164.373 479.24C163.373 479.24 162.466 479 161.653 478.52C160.853 478.027 160.22 477.353 159.753 476.5C159.286 475.647 159.053 474.68 159.053 473.6C159.053 472.52 159.28 471.567 159.733 470.74C160.186 469.9 160.8 469.24 161.573 468.76C162.36 468.28 163.24 468.04 164.213 468.04C164.986 468.04 165.673 468.187 166.273 468.48C166.886 468.76 167.406 469.147 167.833 469.64C168.26 470.12 168.586 470.667 168.813 471.28C169.04 471.88 169.153 472.5 169.153 473.14C169.153 473.273 169.146 473.427 169.133 473.6C169.12 473.76 169.1 473.927 169.073 474.1H160.013V472.7H168.213L167.493 473.3C167.613 472.567 167.526 471.913 167.233 471.34C166.953 470.753 166.546 470.293 166.013 469.96C165.48 469.613 164.88 469.44 164.213 469.44C163.546 469.44 162.926 469.613 162.353 469.96C161.793 470.307 161.353 470.793 161.033 471.42C160.713 472.033 160.586 472.767 160.653 473.62C160.586 474.473 160.72 475.22 161.053 475.86C161.4 476.487 161.866 476.973 162.453 477.32C163.053 477.667 163.693 477.84 164.373 477.84C165.16 477.84 165.82 477.653 166.353 477.28C166.886 476.907 167.32 476.44 167.653 475.88L168.933 476.56C168.72 477.04 168.393 477.487 167.953 477.9C167.513 478.3 166.986 478.627 166.373 478.88C165.773 479.12 165.106 479.24 164.373 479.24ZM171.798 479V463.86H173.298V479H171.798ZM176.368 483V468.28H177.868V470.68L177.628 470.26C178.055 469.58 178.621 469.04 179.328 468.64C180.048 468.24 180.868 468.04 181.788 468.04C182.801 468.04 183.701 468.287 184.488 468.78C185.288 469.26 185.915 469.92 186.368 470.76C186.835 471.6 187.068 472.56 187.068 473.64C187.068 474.707 186.835 475.667 186.368 476.52C185.915 477.36 185.288 478.027 184.488 478.52C183.701 479 182.801 479.24 181.788 479.24C180.868 479.24 180.035 479.033 179.288 478.62C178.555 478.193 178.001 477.593 177.628 476.82L177.868 476.6V483H176.368ZM181.708 477.74C182.428 477.74 183.068 477.56 183.628 477.2C184.201 476.84 184.648 476.353 184.968 475.74C185.301 475.113 185.468 474.413 185.468 473.64C185.468 472.853 185.301 472.153 184.968 471.54C184.648 470.927 184.201 470.44 183.628 470.08C183.068 469.72 182.428 469.54 181.708 469.54C180.988 469.54 180.335 469.72 179.748 470.08C179.175 470.44 178.715 470.933 178.368 471.56C178.035 472.173 177.868 472.867 177.868 473.64C177.868 474.413 178.035 475.113 178.368 475.74C178.715 476.353 179.175 476.84 179.748 477.2C180.335 477.56 180.988 477.74 181.708 477.74ZM189.708 479V463.86H191.208V479H189.708ZM194.278 479V468.28H195.778V479H194.278ZM194.278 466.3V464.1H195.778V466.3H194.278ZM198.849 479V468.28H200.349V470.36L200.009 470.28C200.275 469.587 200.709 469.04 201.309 468.64C201.922 468.24 202.629 468.04 203.429 468.04C204.189 468.04 204.869 468.213 205.469 468.56C206.082 468.907 206.562 469.387 206.909 470C207.269 470.6 207.449 471.28 207.449 472.04V479H205.949V472.62C205.949 471.967 205.829 471.413 205.589 470.96C205.362 470.507 205.035 470.16 204.609 469.92C204.195 469.667 203.715 469.54 203.169 469.54C202.622 469.54 202.135 469.667 201.709 469.92C201.282 470.16 200.949 470.513 200.709 470.98C200.469 471.433 200.349 471.98 200.349 472.62V479H198.849ZM215.193 479.24C214.193 479.24 213.287 479 212.473 478.52C211.673 478.027 211.04 477.353 210.573 476.5C210.107 475.647 209.873 474.68 209.873 473.6C209.873 472.52 210.1 471.567 210.553 470.74C211.007 469.9 211.62 469.24 212.393 468.76C213.18 468.28 214.06 468.04 215.033 468.04C215.807 468.04 216.493 468.187 217.093 468.48C217.707 468.76 218.227 469.147 218.653 469.64C219.08 470.12 219.407 470.667 219.633 471.28C219.86 471.88 219.973 472.5 219.973 473.14C219.973 473.273 219.967 473.427 219.953 473.6C219.94 473.76 219.92 473.927 219.893 474.1H210.833V472.7H219.033L218.313 473.3C218.433 472.567 218.347 471.913 218.053 471.34C217.773 470.753 217.367 470.293 216.833 469.96C216.3 469.613 215.7 469.44 215.033 469.44C214.367 469.44 213.747 469.613 213.173 469.96C212.613 470.307 212.173 470.793 211.853 471.42C211.533 472.033 211.407 472.767 211.473 473.62C211.407 474.473 211.54 475.22 211.873 475.86C212.22 476.487 212.687 476.973 213.273 477.32C213.873 477.667 214.513 477.84 215.193 477.84C215.98 477.84 216.64 477.653 217.173 477.28C217.707 476.907 218.14 476.44 218.473 475.88L219.753 476.56C219.54 477.04 219.213 477.487 218.773 477.9C218.333 478.3 217.807 478.627 217.193 478.88C216.593 479.12 215.927 479.24 215.193 479.24Z" fill="white"/>
<path d="M68.252 235.648C65.696 235.648 63.32 235.18 61.124 234.244C58.964 233.308 57.092 232.012 55.508 230.356C53.96 228.664 52.826 226.702 52.106 224.47L58.208 221.824C59.18 224.128 60.584 225.946 62.42 227.278C64.256 228.574 66.326 229.222 68.63 229.222C69.926 229.222 71.042 229.024 71.978 228.628C72.95 228.196 73.688 227.62 74.192 226.9C74.732 226.18 75.002 225.316 75.002 224.308C75.002 223.12 74.642 222.148 73.922 221.392C73.238 220.6 72.194 219.988 70.79 219.556L63.068 217.072C59.936 216.1 57.578 214.642 55.994 212.698C54.41 210.754 53.618 208.468 53.618 205.84C53.618 203.536 54.176 201.502 55.292 199.738C56.444 197.974 58.028 196.606 60.044 195.634C62.096 194.626 64.436 194.122 67.064 194.122C69.476 194.122 71.69 194.554 73.706 195.418C75.722 196.246 77.45 197.416 78.89 198.928C80.366 200.404 81.464 202.15 82.184 204.166L76.136 206.866C75.344 204.85 74.156 203.302 72.572 202.222C70.988 201.106 69.152 200.548 67.064 200.548C65.84 200.548 64.76 200.764 63.824 201.196C62.888 201.592 62.15 202.168 61.61 202.924C61.106 203.644 60.854 204.508 60.854 205.516C60.854 206.632 61.214 207.622 61.934 208.486C62.654 209.314 63.752 209.962 65.228 210.43L72.626 212.752C75.83 213.796 78.224 215.236 79.808 217.072C81.428 218.908 82.238 221.176 82.238 223.876C82.238 226.18 81.644 228.214 80.456 229.978C79.268 231.742 77.63 233.128 75.542 234.136C73.454 235.144 71.024 235.648 68.252 235.648ZM65.66 240.4V189.37H70.25V240.4H65.66ZM90.0389 235L103.701 217.396L104.943 218.692C104.403 219.088 103.881 219.412 103.377 219.664C102.873 219.916 102.333 220.096 101.757 220.204C101.181 220.312 100.569 220.366 99.9209 220.366C97.4729 220.366 95.2949 219.808 93.3869 218.692C91.4789 217.576 89.9669 216.064 88.8509 214.156C87.7709 212.212 87.2309 210.016 87.2309 207.568C87.2309 204.976 87.8249 202.672 89.0129 200.656C90.2369 198.64 91.8929 197.056 93.9809 195.904C96.1049 194.716 98.5169 194.122 101.217 194.122C103.953 194.122 106.365 194.698 108.453 195.85C110.541 197.002 112.179 198.586 113.367 200.602C114.591 202.582 115.203 204.868 115.203 207.46C115.203 208.756 115.059 210.052 114.771 211.348C114.483 212.644 113.961 214.03 113.205 215.506C112.485 216.946 111.441 218.584 110.073 220.42L98.8409 235H90.0389ZM101.217 214.21C102.477 214.21 103.593 213.94 104.565 213.4C105.573 212.824 106.365 212.032 106.941 211.024C107.517 209.98 107.805 208.81 107.805 207.514C107.805 206.146 107.499 204.958 106.887 203.95C106.311 202.942 105.537 202.15 104.565 201.574C103.593 200.998 102.477 200.71 101.217 200.71C99.9929 200.71 98.8769 200.998 97.8689 201.574C96.8609 202.15 96.0509 202.942 95.4389 203.95C94.8629 204.958 94.5749 206.146 94.5749 207.514C94.5749 208.81 94.8629 209.98 95.4389 211.024C96.0509 212.032 96.8609 212.824 97.8689 213.4C98.8769 213.94 99.9929 214.21 101.217 214.21ZM122.523 235L136.185 217.396L137.427 218.692C136.887 219.088 136.365 219.412 135.861 219.664C135.357 219.916 134.817 220.096 134.241 220.204C133.665 220.312 133.053 220.366 132.405 220.366C129.957 220.366 127.779 219.808 125.871 218.692C123.963 217.576 122.451 216.064 121.335 214.156C120.255 212.212 119.715 210.016 119.715 207.568C119.715 204.976 120.309 202.672 121.497 200.656C122.721 198.64 124.377 197.056 126.465 195.904C128.589 194.716 131.001 194.122 133.701 194.122C136.437 194.122 138.849 194.698 140.937 195.85C143.025 197.002 144.663 198.586 145.851 200.602C147.075 202.582 147.687 204.868 147.687 207.46C147.687 208.756 147.543 210.052 147.255 211.348C146.967 212.644 146.445 214.03 145.689 215.506C144.969 216.946 143.925 218.584 142.557 220.42L131.325 235H122.523ZM133.701 214.21C134.961 214.21 136.077 213.94 137.049 213.4C138.057 212.824 138.849 212.032 139.425 211.024C140.001 209.98 140.289 208.81 140.289 207.514C140.289 206.146 139.983 204.958 139.371 203.95C138.795 202.942 138.021 202.15 137.049 201.574C136.077 200.998 134.961 200.71 133.701 200.71C132.477 200.71 131.361 200.998 130.353 201.574C129.345 202.15 128.535 202.942 127.923 203.95C127.347 204.958 127.059 206.146 127.059 207.514C127.059 208.81 127.347 209.98 127.923 211.024C128.535 212.032 129.345 212.824 130.353 213.4C131.361 213.94 132.477 214.21 133.701 214.21Z" fill="white"/>
<path d="M150.14 233.184L156.86 216.704H158.96L152.24 233.184H150.14ZM160.542 230.784V220.004H162.362V222.204L162.102 221.864C162.368 221.184 162.795 220.664 163.382 220.304C163.968 219.944 164.628 219.764 165.362 219.764C166.202 219.764 166.955 219.998 167.622 220.464C168.302 220.931 168.768 221.544 169.022 222.304L168.502 222.324C168.782 221.484 169.255 220.851 169.922 220.424C170.588 219.984 171.328 219.764 172.142 219.764C172.888 219.764 173.562 219.938 174.162 220.284C174.775 220.631 175.262 221.111 175.622 221.724C175.982 222.338 176.162 223.031 176.162 223.804V230.784H174.282V224.404C174.282 223.804 174.175 223.298 173.962 222.884C173.748 222.471 173.455 222.151 173.082 221.924C172.722 221.684 172.295 221.564 171.802 221.564C171.322 221.564 170.888 221.684 170.502 221.924C170.128 222.151 169.828 222.478 169.602 222.904C169.388 223.318 169.282 223.818 169.282 224.404V230.784H167.402V224.404C167.402 223.804 167.295 223.298 167.082 222.884C166.868 222.471 166.575 222.151 166.202 221.924C165.842 221.684 165.415 221.564 164.922 221.564C164.442 221.564 164.008 221.684 163.622 221.924C163.248 222.151 162.948 222.478 162.722 222.904C162.508 223.318 162.402 223.818 162.402 224.404V230.784H160.542ZM183.923 231.024C182.883 231.024 181.943 230.784 181.103 230.304C180.263 229.811 179.597 229.138 179.103 228.284C178.61 227.431 178.363 226.464 178.363 225.384C178.363 224.304 178.603 223.344 179.083 222.504C179.577 221.664 180.243 220.998 181.083 220.504C181.923 220.011 182.87 219.764 183.923 219.764C184.963 219.764 185.903 220.011 186.743 220.504C187.583 220.984 188.243 221.644 188.723 222.484C189.217 223.324 189.463 224.291 189.463 225.384C189.463 226.478 189.21 227.451 188.703 228.304C188.197 229.144 187.523 229.811 186.683 230.304C185.857 230.784 184.937 231.024 183.923 231.024ZM183.923 229.224C184.59 229.224 185.19 229.058 185.723 228.724C186.27 228.391 186.697 227.931 187.003 227.344C187.323 226.758 187.483 226.104 187.483 225.384C187.483 224.651 187.323 224.004 187.003 223.444C186.697 222.871 186.27 222.418 185.723 222.084C185.19 221.738 184.59 221.564 183.923 221.564C183.243 221.564 182.63 221.738 182.083 222.084C181.55 222.418 181.123 222.871 180.803 223.444C180.483 224.004 180.323 224.651 180.323 225.384C180.323 226.104 180.483 226.758 180.803 227.344C181.123 227.931 181.55 228.391 182.083 228.724C182.63 229.058 183.243 229.224 183.923 229.224ZM191.889 230.784V220.004H193.709V222.104L193.409 221.924C193.676 221.244 194.103 220.718 194.689 220.344C195.289 219.958 195.989 219.764 196.789 219.764C197.563 219.764 198.249 219.938 198.849 220.284C199.463 220.631 199.943 221.111 200.289 221.724C200.649 222.338 200.829 223.031 200.829 223.804V230.784H198.949V224.404C198.949 223.804 198.843 223.298 198.629 222.884C198.416 222.471 198.109 222.151 197.709 221.924C197.323 221.684 196.876 221.564 196.369 221.564C195.863 221.564 195.409 221.684 195.009 221.924C194.623 222.151 194.316 222.478 194.089 222.904C193.863 223.318 193.749 223.818 193.749 224.404V230.784H191.889ZM207.871 230.904C206.818 230.904 206.004 230.604 205.431 230.004C204.871 229.404 204.591 228.558 204.591 227.464V221.784H202.631V220.004H203.031C203.511 220.004 203.891 219.858 204.171 219.564C204.451 219.271 204.591 218.884 204.591 218.404V217.524H206.451V220.004H208.871V221.784H206.451V227.404C206.451 227.764 206.504 228.078 206.611 228.344C206.731 228.611 206.924 228.824 207.191 228.984C207.458 229.131 207.811 229.204 208.251 229.204C208.344 229.204 208.458 229.198 208.591 229.184C208.738 229.171 208.871 229.158 208.991 229.144V230.784C208.818 230.824 208.624 230.851 208.411 230.864C208.198 230.891 208.018 230.904 207.871 230.904ZM211.421 230.784V215.644H213.281V222.104L212.941 221.924C213.207 221.244 213.634 220.718 214.221 220.344C214.821 219.958 215.521 219.764 216.321 219.764C217.094 219.764 217.781 219.938 218.381 220.284C218.994 220.631 219.474 221.111 219.821 221.724C220.181 222.338 220.361 223.031 220.361 223.804V230.784H218.481V224.404C218.481 223.804 218.367 223.298 218.141 222.884C217.927 222.471 217.627 222.151 217.241 221.924C216.854 221.684 216.407 221.564 215.901 221.564C215.407 221.564 214.961 221.684 214.561 221.924C214.161 222.151 213.847 222.478 213.621 222.904C213.394 223.318 213.281 223.818 213.281 224.404V230.784H211.421ZM223.022 230.784V215.644H224.882V230.784H223.022ZM228.348 235.184C228.108 235.184 227.868 235.164 227.628 235.124C227.388 235.098 227.162 235.038 226.948 234.944V233.284C227.095 233.298 227.275 233.324 227.488 233.364C227.715 233.404 227.935 233.424 228.148 233.424C228.775 233.424 229.248 233.284 229.568 233.004C229.902 232.724 230.215 232.251 230.508 231.584L231.188 229.964L231.148 231.584L226.548 220.004H228.568L232.148 229.204H231.548L235.108 220.004H237.168L232.308 232.064C232.082 232.638 231.788 233.164 231.428 233.644C231.082 234.124 230.655 234.498 230.148 234.764C229.642 235.044 229.042 235.184 228.348 235.184Z" fill="white"/>
<rect x="50.5" y="524.5" width="307" height="59" rx="29.5" stroke="url(#paint1_linear_1_614)"/>
<path d="M165.323 561.216C164.363 561.216 163.475 561.042 162.659 560.694C161.843 560.346 161.129 559.86 160.517 559.236C159.905 558.612 159.425 557.88 159.077 557.04C158.741 556.2 158.573 555.282 158.573 554.286C158.573 553.29 158.735 552.372 159.059 551.532C159.395 550.68 159.863 549.948 160.463 549.336C161.075 548.712 161.789 548.232 162.605 547.896C163.421 547.548 164.309 547.374 165.269 547.374C166.229 547.374 167.087 547.536 167.843 547.86C168.611 548.184 169.259 548.616 169.787 549.156C170.315 549.684 170.693 550.266 170.921 550.902L168.743 551.946C168.491 551.25 168.065 550.686 167.465 550.254C166.865 549.822 166.133 549.606 165.269 549.606C164.429 549.606 163.685 549.804 163.037 550.2C162.401 550.596 161.903 551.142 161.543 551.838C161.195 552.534 161.021 553.35 161.021 554.286C161.021 555.222 161.201 556.044 161.561 556.752C161.933 557.448 162.443 557.994 163.091 558.39C163.739 558.786 164.483 558.984 165.323 558.984C166.007 558.984 166.637 558.852 167.213 558.588C167.789 558.312 168.251 557.928 168.599 557.436C168.947 556.932 169.121 556.338 169.121 555.654V554.628L170.237 555.6H165.269V553.53H171.569V554.88C171.569 555.912 171.395 556.824 171.047 557.616C170.699 558.408 170.225 559.074 169.625 559.614C169.037 560.142 168.371 560.544 167.627 560.82C166.883 561.084 166.115 561.216 165.323 561.216ZM177.952 561.216C176.944 561.216 176.062 560.988 175.306 560.532C174.55 560.076 173.962 559.458 173.542 558.678C173.122 557.898 172.912 557.034 172.912 556.086C172.912 555.102 173.122 554.232 173.542 553.476C173.974 552.708 174.556 552.102 175.288 551.658C176.032 551.214 176.86 550.992 177.772 550.992C178.54 550.992 179.212 551.118 179.788 551.37C180.376 551.622 180.874 551.97 181.282 552.414C181.69 552.858 182.002 553.368 182.218 553.944C182.434 554.508 182.542 555.12 182.542 555.78C182.542 555.948 182.53 556.122 182.506 556.302C182.494 556.482 182.464 556.638 182.416 556.77H174.856V554.97H181.084L179.968 555.816C180.076 555.264 180.046 554.772 179.878 554.34C179.722 553.908 179.458 553.566 179.086 553.314C178.726 553.062 178.288 552.936 177.772 552.936C177.28 552.936 176.842 553.062 176.458 553.314C176.074 553.554 175.78 553.914 175.576 554.394C175.384 554.862 175.312 555.432 175.36 556.104C175.312 556.704 175.39 557.238 175.594 557.706C175.81 558.162 176.122 558.516 176.53 558.768C176.95 559.02 177.43 559.146 177.97 559.146C178.51 559.146 178.966 559.032 179.338 558.804C179.722 558.576 180.022 558.27 180.238 557.886L182.146 558.822C181.954 559.29 181.654 559.704 181.246 560.064C180.838 560.424 180.352 560.706 179.788 560.91C179.236 561.114 178.624 561.216 177.952 561.216ZM188.793 561.108C187.689 561.108 186.831 560.808 186.219 560.208C185.619 559.596 185.319 558.738 185.319 557.634V553.314H183.627V551.208H183.807C184.287 551.208 184.659 551.082 184.923 550.83C185.187 550.578 185.319 550.212 185.319 549.732V548.976H187.677V551.208H189.927V553.314H187.677V557.508C187.677 557.832 187.731 558.108 187.839 558.336C187.959 558.564 188.139 558.738 188.379 558.858C188.631 558.978 188.949 559.038 189.333 559.038C189.417 559.038 189.513 559.032 189.621 559.02C189.741 559.008 189.855 558.996 189.963 558.984V561C189.795 561.024 189.603 561.048 189.387 561.072C189.171 561.096 188.973 561.108 188.793 561.108ZM195.162 561V547.59H197.61V561H195.162ZM204.456 561.108C203.352 561.108 202.494 560.808 201.882 560.208C201.282 559.596 200.982 558.738 200.982 557.634V553.314H199.29V551.208H199.47C199.95 551.208 200.322 551.082 200.586 550.83C200.85 550.578 200.982 550.212 200.982 549.732V548.976H203.34V551.208H205.59V553.314H203.34V557.508C203.34 557.832 203.394 558.108 203.502 558.336C203.622 558.564 203.802 558.738 204.042 558.858C204.294 558.978 204.612 559.038 204.996 559.038C205.08 559.038 205.176 559.032 205.284 559.02C205.404 559.008 205.518 558.996 205.626 558.984V561C205.458 561.024 205.266 561.048 205.05 561.072C204.834 561.096 204.636 561.108 204.456 561.108ZM210.824 561V547.59H212.732L220.112 557.526L219.122 557.724V547.59H221.57V561H219.644L212.372 550.992L213.272 550.794V561H210.824ZM228.756 561.216C227.796 561.216 226.92 560.994 226.128 560.55C225.348 560.106 224.724 559.5 224.256 558.732C223.8 557.964 223.572 557.088 223.572 556.104C223.572 555.12 223.8 554.244 224.256 553.476C224.724 552.708 225.348 552.102 226.128 551.658C226.908 551.214 227.784 550.992 228.756 550.992C229.716 550.992 230.586 551.214 231.366 551.658C232.146 552.102 232.764 552.708 233.22 553.476C233.688 554.232 233.922 555.108 233.922 556.104C233.922 557.088 233.688 557.964 233.22 558.732C232.752 559.5 232.128 560.106 231.348 560.55C230.568 560.994 229.704 561.216 228.756 561.216ZM228.756 559.056C229.284 559.056 229.746 558.93 230.142 558.678C230.55 558.426 230.868 558.078 231.096 557.634C231.336 557.178 231.456 556.668 231.456 556.104C231.456 555.528 231.336 555.024 231.096 554.592C230.868 554.148 230.55 553.8 230.142 553.548C229.746 553.284 229.284 553.152 228.756 553.152C228.216 553.152 227.742 553.284 227.334 553.548C226.926 553.8 226.602 554.148 226.362 554.592C226.134 555.024 226.02 555.528 226.02 556.104C226.02 556.668 226.134 557.178 226.362 557.634C226.602 558.078 226.926 558.426 227.334 558.678C227.742 558.93 228.216 559.056 228.756 559.056ZM238.001 561L234.635 551.208H237.119L239.585 558.642L238.721 558.624L241.349 551.208H243.437L246.047 558.624L245.183 558.642L247.649 551.208H250.133L246.767 561H244.661L241.997 553.242H242.789L240.089 561H238.001Z" fill="white"/>
<path fill-rule="evenodd" clip-rule="evenodd" d="M93.4379 60C98.9574 60 103.447 64.4896 103.447 70.0107V81.9893C103.447 87.5087 98.9574 92 93.4379 92H79.011C73.4916 92 69.0002 87.5087 69.0002 81.9893V70.0107C69.0002 64.4896 73.4916 60 79.011 60H93.4379ZM93.4379 62.5035H79.011C74.8718 62.5035 71.5038 65.8716 71.5038 70.0107V81.9893C71.5038 86.1284 74.8718 89.4965 79.011 89.4965H93.4379C97.5771 89.4965 100.943 86.1284 100.943 81.9893V81.5219L95.4393 81.5229C92.2731 81.5229 89.6962 78.9476 89.6945 75.7832C89.6945 72.6154 92.2715 70.0385 95.4393 70.0368L100.943 70.0358V70.0107C100.943 65.8716 97.5771 62.5035 93.4379 62.5035ZM100.943 72.5393L95.4393 72.5403C93.6517 72.542 92.198 73.9957 92.198 75.7815C92.198 77.5657 93.6534 79.0194 95.4393 79.0194L100.943 79.0184V72.5393ZM96.203 74.4263C96.894 74.4263 97.4548 74.9871 97.4548 75.678C97.4548 76.369 96.894 76.9298 96.203 76.9298H95.6823C94.9913 76.9298 94.4305 76.369 94.4305 75.678C94.4305 74.9871 94.9913 74.4263 95.6823 74.4263H96.203ZM86.8337 67.5742C87.5246 67.5742 88.0854 68.1349 88.0854 68.8259C88.0854 69.5169 87.5246 70.0777 86.8337 70.0777H77.8227C77.1317 70.0777 76.5709 69.5169 76.5709 68.8259C76.5709 68.1349 77.1317 67.5742 77.8227 67.5742H86.8337Z" fill="url(#paint2_linear_1_614)"/>
<defs>
<filter id="filter0_d_1_614" x="25" y="25" width="132" height="132" filterUnits="userSpaceOnUse" color-interpolation-filters="sRGB">
<feFlood flood-opacity="0" result="BackgroundImageFix"/>
<feColorMatrix in="SourceAlpha" type="matrix" values="0 0 0 0 0 0 0 0 0 0 0 0 0 0 0 0 0 0 127 0" result="hardAlpha"/>
<feOffset dx="5" dy="15"/>
<feGaussianBlur stdDeviation="15"/>
<feComposite in2="hardAlpha" operator="out"/>
<feColorMatrix type="matrix" values="0 0 0 0 0.0196078 0 0 0 0 0.0509804 0 0 0 0 0.211765 0 0 0 0.05 0"/>
<feBlend mode="normal" in2="BackgroundImageFix" result="effect1_dropShadow_1_614"/>
<feBlend mode="normal" in="SourceGraphic" in2="effect1_dropShadow_1_614" result="shape"/>
</filter>
<linearGradient id="paint0_linear_1_614" x1="0" y1="0" x2="290.159" y2="394.81" gradientUnits="userSpaceOnUse">
<stop stop-color="#FF8A00"/>
<stop offset="1" stop-color="#E8112B"/>
</linearGradient>
<linearGradient id="paint1_linear_1_614" x1="50" y1="524" x2="130.37" y2="733.137" gradientUnits="userSpaceOnUse">
<stop stop-color="#FF8A00"/>
<stop offset="1" stop-color="#E8112B"/>
</linearGradient>
<linearGradient id="paint2_linear_1_614" x1="69.0002" y1="60" x2="122.826" y2="89.3713" gradientUnits="userSpaceOnUse">
<stop stop-color="#FF8A00"/>
<stop offset="1" stop-color="#E8112B"/>
</linearGradient>
<clipPath id="clip0_1_614">
<rect width="26" height="26" fill="white" transform="translate(50 320)"/>
</clipPath>
<clipPath id="clip1_1_614">
<rect width="26" height="26" fill="white" transform="translate(50 366)"/>
</clipPath>
<clipPath id="clip2_1_614">
<rect width="26" height="26" fill="white" transform="translate(50 412)"/>
</clipPath>
<clipPath id="clip3_1_614">
<rect width="26" height="26" fill="white" transform="translate(50 458)"/>
</clipPath>
</defs>
</svg>
