<svg width="222" height="222" viewBox="0 0 222 222" fill="none" xmlns="http://www.w3.org/2000/svg">
<g filter="url(#filter0_b_1_382)">
<circle cx="111" cy="111" r="111" fill="url(#paint0_linear_1_382)" fill-opacity="0.4"/>
</g>
<circle cx="111" cy="111" r="61" fill="white"/>
<path d="M122 109.434C123.333 110.204 123.333 112.128 122 112.898L100 125.6C98.6667 126.369 97 125.407 97 123.868L97 98.4641C97 96.9245 98.6667 95.9622 100 96.7321L122 109.434Z" fill="url(#paint1_linear_1_382)"/>
<path d="M101.934 190.064L103.08 205.449L100.212 204.903L99.4992 191.84L100.246 191.982L94.6515 203.846L91.8811 203.319L91.0506 190.234L91.7972 190.376L86.3403 202.266L83.4717 201.721L90.1844 187.83L93.2494 188.413L94.1828 201.171L93.3183 201.007L98.8688 189.481L101.934 190.064Z" fill="white"/>
<path d="M80.7541 184.829L69.374 195.734L66.2429 194.125L68.4789 178.523L71.1119 179.876L70.5926 183.206L75.7162 185.838L78.139 183.485L80.7541 184.829ZM73.9257 187.617L70.1898 185.698L69.0054 193.431L68.3294 193.084L73.9257 187.617Z" fill="white"/>
<path d="M60.5343 172.569L52.433 182.089L55.3726 184.59L53.8172 186.418L45.897 179.678L47.4525 177.85L50.3464 180.313L58.4477 170.793L60.5343 172.569Z" fill="white"/>
<path d="M46.2293 157.042C46.8621 157.901 47.2919 158.81 47.5185 159.769C47.7373 160.718 47.7693 161.671 47.6146 162.63C47.452 163.578 47.1058 164.479 46.576 165.334C46.0461 166.188 45.3358 166.943 44.4449 167.6C43.5541 168.256 42.6262 168.717 41.6613 168.981C40.6777 169.242 39.7145 169.306 38.7716 169.172C37.81 169.036 36.91 168.714 36.0716 168.206C35.2224 167.705 34.4814 167.026 33.8486 166.167C33.2157 165.309 32.795 164.434 32.5864 163.545C32.37 162.644 32.3292 161.78 32.4641 160.951C32.5883 160.131 32.8597 159.409 33.2783 158.786L35.6436 160.074C35.2086 160.742 34.9957 161.487 35.0049 162.309C35.0033 163.138 35.2833 163.934 35.8449 164.696C36.3987 165.447 37.0662 165.982 37.8476 166.301C38.621 166.608 39.4377 166.694 40.2975 166.557C41.1494 166.41 41.994 166.027 42.8312 165.41C43.6684 164.793 44.2889 164.096 44.6928 163.318C45.078 162.537 45.238 161.732 45.173 160.902C45.1 160.061 44.7867 159.265 44.2329 158.514C43.6713 157.752 42.9995 157.245 42.2176 156.993C41.4249 156.749 40.645 156.736 39.8778 156.953L39.3479 154.313C40.067 154.097 40.8421 154.048 41.6732 154.164C42.4935 154.288 43.3017 154.587 44.0978 155.061C44.886 155.523 45.5965 156.184 46.2293 157.042Z" fill="white"/>
<path d="M39.2127 146.303L25.4083 151.911L24.3846 149.391L30.4066 146.945L28.0204 141.071L21.9983 143.517L20.9671 140.979L34.7714 135.371L35.8027 137.909L30.2439 140.167L32.6301 146.041L38.1889 143.783L39.2127 146.303Z" fill="white"/>
<path d="M31.3443 113.043C31.3553 113.963 31.1983 114.772 30.8734 115.469C30.5484 116.166 30.0883 116.719 29.4931 117.126C28.8845 117.52 28.1735 117.722 27.3602 117.731C26.6803 117.74 26.0922 117.627 25.596 117.392C25.0864 117.145 24.6561 116.844 24.3051 116.488C23.9408 116.132 23.6433 115.782 23.4124 115.439C23.1815 115.081 22.9979 114.783 22.8617 114.545L22.1462 113.254C21.9144 112.83 21.6831 112.446 21.4523 112.102C21.208 111.745 20.9446 111.461 20.662 111.251C20.3662 111.041 20.0249 110.939 19.6383 110.943C19.1983 110.949 18.8334 111.1 18.5436 111.397C18.2403 111.68 18.0913 112.042 18.0966 112.482C18.1017 112.909 18.2594 113.274 18.5698 113.576C18.8666 113.866 19.2417 114.008 19.695 114.003C20.0283 113.999 20.354 113.922 20.6723 113.771C20.9903 113.607 21.2881 113.417 21.5655 113.201C21.8296 112.984 22.0671 112.774 22.278 112.572L31.0026 104.567L31.0403 107.706L23.8207 114.454C23.491 114.764 23.1347 115.075 22.7518 115.386C22.3555 115.698 21.9186 115.956 21.441 116.162C20.9634 116.368 20.4313 116.474 19.8447 116.481C19.0714 116.491 18.396 116.319 17.8184 115.966C17.2273 115.599 16.7748 115.118 16.461 114.522C16.1336 113.912 15.9656 113.248 15.957 112.528C15.9482 111.794 16.1003 111.133 16.4132 110.542C16.726 109.938 17.1603 109.46 17.7161 109.106C18.2717 108.74 18.9095 108.552 19.6295 108.543C20.3628 108.535 20.9915 108.7 21.5156 109.041C22.0262 109.368 22.4644 109.769 22.8301 110.245C23.1824 110.708 23.481 111.151 23.7261 111.574L24.5421 112.905C24.7056 113.196 24.9161 113.507 25.1734 113.837C25.4172 114.154 25.7138 114.424 26.0631 114.647C26.3992 114.869 26.8072 114.978 27.2871 114.972C27.8604 114.965 28.3116 114.786 28.6408 114.436C28.9565 114.072 29.1106 113.583 29.1033 112.97C29.0988 112.597 29.0348 112.264 28.9113 111.972C28.7744 111.681 28.6113 111.423 28.422 111.198C28.2193 110.974 28.0103 110.783 27.795 110.626C27.5665 110.468 27.3581 110.324 27.1698 110.193L23.742 107.894L23.7091 105.154L27.9412 107.804C28.2769 108 28.6399 108.242 29.03 108.531C29.4202 108.819 29.791 109.168 30.1426 109.577C30.4809 109.987 30.7668 110.477 31.0003 111.047C31.2204 111.605 31.335 112.27 31.3443 113.043Z" fill="white"/>
<path d="M34.214 88.2868L20.152 83.3604L23.4252 74.0172L25.6902 74.8107L23.3163 81.5869L26.9215 82.8499L29.1632 76.4512L31.4282 77.2447L29.1865 83.6434L32.8483 84.9263L35.2222 78.1501L37.4873 78.9436L34.214 88.2868Z" fill="white"/>
<path d="M39.4514 74.5978L35.6492 66.498L26.8095 66.7115L28.4537 64.0599L35.6908 63.8881L34.9319 65.1119L31.8582 58.5698L33.5024 55.9183L37.2512 63.9144L46.1865 63.7366L44.5422 66.3882L37.2266 66.5348L37.9855 65.311L41.0956 71.9463L39.4514 74.5978Z" fill="white"/>
<path d="M50.8134 58.0745L40.28 47.5361L44.2125 43.6055C44.9292 42.8892 45.693 42.3896 46.5038 42.107C47.3147 41.8055 48.1256 41.7491 48.9363 41.9379C49.7377 42.1172 50.4918 42.5605 51.1988 43.2678C51.8963 43.9656 52.3345 44.7247 52.5134 45.5449C52.6924 46.3464 52.6403 47.1525 52.3573 47.9632C52.0743 48.774 51.5744 49.5375 50.8577 50.2539L48.8491 52.2616L52.7372 56.1516L50.8134 58.0745ZM47.1524 50.5641L49.1893 48.5282C49.5383 48.1794 49.7741 47.8118 49.8967 47.4252C50.0099 47.0293 50.0147 46.638 49.9111 46.2514C49.8075 45.8649 49.5955 45.5113 49.275 45.1906C48.9451 44.8606 48.5916 44.6484 48.2145 44.554C47.8279 44.4502 47.4414 44.4595 47.0548 44.582C46.6588 44.695 46.2863 44.9259 45.9374 45.2747L43.9005 47.3107L47.1524 50.5641Z" fill="white"/>
<path d="M64.068 46.1329L55.9862 33.6152L58.2713 32.1398L65.0514 42.6413L70.4113 39.1808L71.7131 41.1971L64.068 46.1329Z" fill="white"/>
<path d="M84.7071 35.8041C83.6773 36.1715 82.6517 36.3322 81.6301 36.2862C80.6086 36.2401 79.6485 36.0093 78.7499 35.5938C77.8514 35.1783 77.0569 34.5982 76.3665 33.8536C75.6842 33.0919 75.1593 32.1962 74.7919 31.1665C74.42 30.1242 74.2593 29.0985 74.3098 28.0895C74.3603 27.0805 74.6019 26.1308 75.0345 25.2403C75.467 24.3498 76.0664 23.5697 76.8325 22.8999C77.5942 22.2176 78.4962 21.6905 79.5385 21.3186C80.5808 20.9467 81.6127 20.7837 82.6343 20.8298C83.6558 20.8758 84.6159 21.1066 85.5144 21.5221C86.4085 21.9251 87.1945 22.5012 87.8723 23.2503C88.5627 23.9949 89.0939 24.8884 89.4658 25.9307C89.8332 26.9604 89.9876 27.9883 89.929 29.0143C89.8659 30.0278 89.6181 30.9798 89.1855 31.8703C88.753 32.7608 88.1559 33.5472 87.3942 34.2295C86.6451 34.9073 85.7494 35.4322 84.7071 35.8041ZM83.8736 33.4683C84.5643 33.2219 85.1559 32.8763 85.6485 32.4316C86.1365 31.9743 86.5156 31.4497 86.7857 30.8579C87.0684 30.2615 87.2153 29.6216 87.2262 28.9382C87.2498 28.2503 87.1361 27.5547 86.8851 26.8515C86.6342 26.1482 86.2841 25.5441 85.8349 25.039C85.3938 24.5168 84.8751 24.1144 84.2787 23.8317C83.6905 23.532 83.0649 23.3659 82.4021 23.3334C81.7393 23.3009 81.0626 23.4079 80.3719 23.6543C79.6938 23.8963 79.1085 24.2397 78.6159 24.6844C78.1234 25.1291 77.738 25.6559 77.4598 26.2648C77.1897 26.8567 77.0428 27.4966 77.0193 28.1845C76.9913 28.8598 77.1028 29.5491 77.3537 30.2524C77.6046 30.9556 77.9569 31.5661 78.4106 32.0837C78.8643 32.6014 79.383 33.0038 79.9668 33.2909C80.5632 33.5736 81.195 33.7375 81.8623 33.7825C82.5251 33.815 83.1955 33.7103 83.8736 33.4683Z" fill="white"/>
<path d="M97.6614 32.0806L96.2706 17.2456L101.786 16.7285C102.795 16.6339 103.702 16.7364 104.507 17.0359C105.324 17.3209 105.984 17.7947 106.488 18.4572C106.991 19.1065 107.289 19.9289 107.383 20.9245C107.478 21.9467 107.314 22.8393 106.89 23.6022C106.48 24.3638 105.879 24.9558 105.088 25.3781L109.051 31.0128L105.985 31.3003L101.73 25.1304L103.58 26.0016L99.8561 26.3507L100.369 31.8267L97.6614 32.0806ZM99.6321 23.9612L102.48 23.6942C102.971 23.6482 103.387 23.5154 103.728 23.296C104.068 23.0633 104.321 22.765 104.488 22.4012C104.654 22.0373 104.717 21.6298 104.674 21.1784C104.631 20.7138 104.494 20.3249 104.264 20.0116C104.032 19.6852 103.729 19.4458 103.353 19.2935C102.976 19.128 102.541 19.0683 102.05 19.1143L99.2028 19.3813L99.6321 23.9612Z" fill="white"/>
<path d="M116.48 31.3267L118.332 16.5422L128.155 17.7729L127.857 20.1543L120.732 19.2617L120.257 23.0521L126.985 23.8949L126.686 26.2763L119.959 25.4335L119.477 29.2834L126.601 30.1759L126.303 32.5573L116.48 31.3267Z" fill="white"/>
<path d="M147.918 40.7691C146.948 40.2644 146.133 39.622 145.472 38.842C144.81 38.062 144.326 37.2014 144.019 36.2601C143.713 35.3189 143.597 34.3419 143.673 33.3294C143.767 32.3111 144.067 31.317 144.571 30.3472C145.082 29.3655 145.725 28.5499 146.498 27.9004C147.272 27.251 148.133 26.7819 149.08 26.493C150.026 26.2042 151.006 26.1127 152.018 26.2185C153.036 26.3125 154.036 26.615 155.018 27.1258C156 27.6367 156.821 28.2821 157.482 29.0621C158.144 29.8421 158.628 30.7027 158.935 31.644C159.248 32.5734 159.36 33.5414 159.272 34.5478C159.196 35.5604 158.903 36.5575 158.392 37.5392C157.887 38.5091 157.239 39.3216 156.447 39.9767C155.661 40.62 154.795 41.086 153.848 41.3749C152.901 41.6637 151.919 41.7611 150.9 41.6671C149.894 41.5793 148.9 41.2799 147.918 40.7691ZM149.063 38.5691C149.714 38.9076 150.369 39.1061 151.03 39.1645C151.698 39.2111 152.34 39.132 152.958 38.9273C153.587 38.7288 154.156 38.401 154.664 37.9441C155.184 37.4933 155.617 36.9367 155.961 36.2744C156.306 35.612 156.511 34.9444 156.575 34.2716C156.658 33.5931 156.6 32.9391 156.401 32.3097C156.221 31.6746 155.917 31.1032 155.49 30.5953C155.063 30.0875 154.524 29.6643 153.873 29.3258C153.234 28.9934 152.585 28.798 151.924 28.7396C151.263 28.6812 150.614 28.7572 149.979 28.9676C149.361 29.1723 148.792 29.5 148.272 29.9508C147.758 30.3898 147.329 30.9404 146.984 31.6028C146.639 32.2651 146.432 32.9386 146.361 33.6233C146.29 34.308 146.348 34.9619 146.535 35.5852C146.734 36.2146 147.043 36.7891 147.464 37.3088C147.891 37.8166 148.424 38.2367 149.063 38.5691Z" fill="white"/>
<path d="M163.582 51.7326C162.727 50.9687 162.126 50.1102 161.78 49.1571C161.443 48.2129 161.366 47.2588 161.547 46.2948C161.729 45.3308 162.175 44.4511 162.886 43.6556L169.268 36.5109L171.296 38.3229L165.008 45.3632C164.599 45.8206 164.33 46.3221 164.2 46.8676C164.08 47.4221 164.106 47.9636 164.277 48.4922C164.458 49.0108 164.777 49.4745 165.234 49.8831C165.701 50.3005 166.198 50.5653 166.724 50.6773C167.268 50.7882 167.804 50.7486 168.332 50.5583C168.869 50.3769 169.342 50.0575 169.751 49.6001L176.04 42.5599L178.068 44.3719L171.686 51.5165C170.975 52.312 170.151 52.8542 169.214 53.1432C168.277 53.4321 167.315 53.458 166.329 53.2208C165.353 52.9926 164.437 52.4965 163.582 51.7326Z" fill="white"/>
<path d="M172.882 60.946L185.138 52.4724L188.289 57.0293C188.865 57.8628 189.22 58.7038 189.352 59.5522C189.504 60.404 189.414 61.2118 189.083 61.9756C188.763 62.7318 188.191 63.3943 187.369 63.9629C186.524 64.5468 185.666 64.8406 184.793 64.8443C183.928 64.8589 183.117 64.6248 182.362 64.142L179.388 70.3559L177.637 67.8224L180.935 61.0926L181.08 63.1318L178.953 60.0554L174.429 63.1833L172.882 60.946ZM180.927 58.6906L182.554 61.0431C182.834 61.4488 183.154 61.7467 183.512 61.9367C183.881 62.1191 184.265 62.1939 184.664 62.1613C185.063 62.1287 185.449 61.9834 185.822 61.7256C186.206 61.4602 186.478 61.1505 186.638 60.7964C186.81 60.4348 186.87 60.0528 186.819 59.6505C186.778 59.2407 186.618 58.8328 186.338 58.4271L184.711 56.0746L180.927 58.6906Z" fill="white"/>
<path d="M187.918 93.0275C187.667 91.9907 187.623 90.9862 187.786 90.0141C187.952 89.0549 188.292 88.1633 188.806 87.3394C189.323 86.5284 189.991 85.8318 190.811 85.2496C191.63 84.6673 192.578 84.2462 193.653 83.986C194.729 83.7259 195.763 83.6611 196.755 83.7917C197.763 83.932 198.675 84.2463 199.493 84.7345C200.327 85.2324 201.032 85.8782 201.608 86.6717C202.197 87.4621 202.616 88.3757 202.867 89.4125C203.118 90.4492 203.167 91.4182 203.014 92.3193C202.865 93.2333 202.568 94.046 202.122 94.7572C201.69 95.4653 201.16 96.0256 200.533 96.4379L198.851 94.3342C199.511 93.8866 199.996 93.2823 200.306 92.5215C200.629 91.7576 200.679 90.9155 200.457 89.9954C200.237 89.0882 199.829 88.3364 199.232 87.74C198.638 87.1565 197.919 86.7613 197.073 86.5543C196.23 86.3602 195.304 86.3854 194.293 86.6298C193.282 86.8743 192.44 87.2769 191.766 87.8376C191.108 88.4082 190.649 89.0886 190.387 89.8789C190.129 90.6821 190.109 91.5374 190.328 92.4445C190.551 93.3647 190.974 94.0923 191.597 94.6275C192.233 95.1595 192.947 95.4739 193.739 95.5705L193.204 98.2101C192.458 98.13 191.724 97.8753 191.003 97.4461C190.295 97.0138 189.666 96.4252 189.115 95.6804C188.568 94.9486 188.169 94.0642 187.918 93.0275Z" fill="white"/>
<path d="M189.892 112.977C189.912 111.884 190.123 110.868 190.527 109.928C190.931 108.989 191.486 108.172 192.192 107.478C192.898 106.785 193.722 106.246 194.662 105.863C195.616 105.494 196.639 105.319 197.732 105.339C198.839 105.359 199.855 105.571 200.781 105.975C201.707 106.378 202.51 106.94 203.191 107.659C203.871 108.378 204.389 109.214 204.745 110.168C205.115 111.121 205.289 112.151 205.269 113.258C205.249 114.364 205.037 115.387 204.633 116.327C204.229 117.266 203.674 118.083 202.968 118.777C202.275 119.471 201.459 120.003 200.519 120.372C199.578 120.755 198.555 120.937 197.448 120.916C196.355 120.897 195.339 120.678 194.4 120.261C193.474 119.844 192.671 119.276 191.99 118.557C191.31 117.837 190.785 117.001 190.416 116.047C190.046 115.107 189.871 114.084 189.892 112.977ZM192.371 113.023C192.358 113.756 192.472 114.431 192.714 115.049C192.97 115.667 193.327 116.207 193.785 116.669C194.243 117.144 194.79 117.507 195.425 117.759C196.061 118.024 196.752 118.163 197.498 118.177C198.245 118.191 198.934 118.076 199.565 117.834C200.209 117.606 200.769 117.263 201.244 116.805C201.732 116.36 202.108 115.834 202.373 115.225C202.637 114.617 202.776 113.946 202.789 113.212C202.803 112.493 202.688 111.824 202.446 111.206C202.204 110.588 201.847 110.041 201.376 109.566C200.917 109.104 200.371 108.741 199.735 108.476C199.113 108.211 198.429 108.072 197.683 108.059C196.936 108.045 196.24 108.159 195.596 108.401C194.951 108.642 194.392 108.985 193.917 109.43C193.442 109.888 193.065 110.421 192.788 111.03C192.523 111.638 192.384 112.303 192.371 113.023Z" fill="white"/>
<path d="M188.962 126.441L203.229 130.736L202.48 133.226L193.613 136.384L193.97 135.197L199.655 142.61L198.905 145.1L184.638 140.804L185.428 138.181L196.727 141.582L196.172 142.522L190.584 134.929L190.676 134.623L199.487 131.51L199.477 132.447L188.178 129.046L188.962 126.441Z" fill="white"/>
<path d="M181.152 147.864L193.871 155.625L190.975 160.372C190.447 161.237 189.822 161.902 189.101 162.368C188.384 162.852 187.609 163.097 186.777 163.105C185.955 163.119 185.118 162.866 184.265 162.345C183.422 161.831 182.818 161.197 182.451 160.442C182.088 159.705 181.949 158.909 182.033 158.055C182.117 157.2 182.423 156.34 182.951 155.475L184.43 153.051L179.735 150.186L181.152 147.864ZM186.479 154.301L184.979 156.76C184.722 157.181 184.579 157.593 184.551 157.998C184.534 158.409 184.622 158.791 184.813 159.142C185.005 159.493 185.294 159.787 185.681 160.023C186.08 160.266 186.473 160.389 186.862 160.392C187.262 160.402 187.636 160.302 187.982 160.092C188.341 159.889 188.648 159.577 188.905 159.156L190.405 156.697L186.479 154.301Z" fill="white"/>
<path d="M172.046 161.803L178.958 175.969L176.47 178.46L162.295 171.568L164.387 169.474L167.4 170.985L171.47 166.909L169.969 163.884L172.046 161.803ZM172.617 169.157L169.649 172.129L176.652 175.617L176.115 176.155L172.617 169.157Z" fill="white"/>
<path d="M156.506 176.003L164.126 188.807L162.304 189.891L149.612 184.598L150.445 183.846L156.203 193.522L153.866 194.913L146.246 182.109L148.085 181.015L160.715 186.438L159.968 187.138L154.169 177.394L156.506 176.003Z" fill="white"/>
<path d="M135.348 186.383L137.22 192.712L144.388 199.247L141.415 200.126L135.895 195.002L136.95 194.69L135.125 201.987L132.152 202.866L134.598 193.508L132.72 187.16L135.348 186.383Z" fill="white"/>
<path d="M118.656 189.885L118.92 192.673L116.292 192.922L116.028 190.134L118.656 189.885Z" fill="white"/>
<defs>
<filter id="filter0_b_1_382" x="-15" y="-15" width="252" height="252" filterUnits="userSpaceOnUse" color-interpolation-filters="sRGB">
<feFlood flood-opacity="0" result="BackgroundImageFix"/>
<feGaussianBlur in="BackgroundImageFix" stdDeviation="7.5"/>
<feComposite in2="SourceAlpha" operator="in" result="effect1_backgroundBlur_1_382"/>
<feBlend mode="normal" in="SourceGraphic" in2="effect1_backgroundBlur_1_382" result="shape"/>
</filter>
<linearGradient id="paint0_linear_1_382" x1="0" y1="0" x2="358.151" y2="181.552" gradientUnits="userSpaceOnUse">
<stop stop-color="#FF8A00" stop-opacity="0.7"/>
<stop offset="1" stop-color="#E8112B" stop-opacity="0.3"/>
</linearGradient>
<linearGradient id="paint1_linear_1_382" x1="125" y1="95" x2="96.4165" y2="143.833" gradientUnits="userSpaceOnUse">
<stop stop-color="#FF8A00"/>
<stop offset="1" stop-color="#E8112B"/>
</linearGradient>
</defs>
</svg>
