<svg width="1920" height="130" viewBox="0 0 1920 130" fill="none" xmlns="http://www.w3.org/2000/svg">
<path d="M-5 6.10352e-05H1925V130H-5V6.10352e-05Z" fill="url(#paint0_linear_1_415)"/>
<path d="M386.93 45.0001L391.172 60.7574L406.93 65.0001L391.172 69.2427L386.93 85.0001L382.687 69.2427L366.93 65.0001L382.687 60.7574L386.93 45.0001Z" fill="white"/>
<path d="M775.473 45.0001L779.715 60.7574L795.473 65.0001L779.715 69.2427L775.473 85.0001L771.23 69.2427L755.473 65.0001L771.23 60.7574L775.473 45.0001Z" fill="white"/>
<path d="M1107.76 45.0001L1112.01 60.7574L1127.76 65.0001L1112.01 69.2427L1107.76 85.0001L1103.52 69.2427L1087.76 65.0001L1103.52 60.7574L1107.76 45.0001Z" fill="white"/>
<path d="M1521.3 45.0001L1525.55 60.7574L1541.3 65.0001L1525.55 69.2427L1521.3 85.0001L1517.06 69.2427L1501.3 65.0001L1517.06 60.7574L1521.3 45.0001Z" fill="white"/>
<path d="M122 75.3678V40.7328H128.084V75.3678H122Z" fill="white"/>
<path d="M143.658 50.2414C135.857 50.2414 130.459 56.239 130.459 63.1039C130.459 70.7654 136.332 76.0435 143.718 76.0435C150.729 76.0435 156.812 70.8626 156.812 63.0873C156.812 56.5491 151.771 50.2414 143.658 50.2414ZM143.586 56.1105C147.668 56.1105 150.673 59.2882 150.673 63.1259C150.673 67.195 147.36 70.1633 143.696 70.1633C139.367 70.1633 136.642 66.7319 136.642 63.1369C136.642 59.1964 139.719 56.1105 143.586 56.1105Z" fill="white"/>
<path d="M172.098 50.2414C164.298 50.2414 158.9 56.239 158.9 63.1039C158.9 70.7654 164.772 76.0435 172.159 76.0435C179.169 76.0435 185.253 70.8626 185.253 63.0873C185.253 58.5087 183.27 56.4771 183.27 56.4771L184.956 55.8989V50.9611H176.315C176.315 50.9611 174.442 50.2414 172.098 50.2414ZM172.027 56.1105C176.109 56.1105 179.114 59.2882 179.114 63.1259C179.114 67.195 175.801 70.1633 172.137 70.1633C167.808 70.1633 165.083 66.7319 165.083 63.1369C165.083 59.1964 168.159 56.1105 172.027 56.1105Z" fill="white"/>
<path d="M179.071 77.0605C179.071 81.1296 175.758 84.1202 172.094 84.1202C167.765 84.1202 165.029 80.6556 165.029 77.0605H158.857C158.857 84.7223 164.73 90.0001 172.116 90.0001C179.127 90.0001 185.21 84.8358 185.21 77.0605H179.071Z" fill="white"/>
<path d="M187.69 75.3678V50.961H193.774V75.3678H187.69Z" fill="white"/>
<path d="M199.682 75.3674V56.4275H196.419V50.9607H199.682V43.4659H205.766V50.9607H209.116V56.4275H205.766V75.3674H199.682Z" fill="white"/>
<path d="M194.748 44.0289C194.748 46.254 192.944 48.0577 190.719 48.0577C188.494 48.0577 186.69 46.254 186.69 44.0289C186.69 41.8038 188.494 40.0001 190.719 40.0001C192.944 40.0001 194.748 41.8038 194.748 44.0289Z" fill="white"/>
<path d="M222.794 50.2248C214.957 50.2248 209.905 56.2256 209.905 63.3242C209.905 70.6599 214.974 76.0598 222.921 76.0598C230.335 76.0598 233.982 71.4308 233.982 71.4308L229.915 67.3582C229.915 67.3582 226.844 70.6702 222.998 70.6702C219.793 70.6702 217.23 68.8811 216.335 65.6002H235.293V63.9249C235.293 57.2402 231.424 50.2248 222.794 50.2248ZM222.601 55.5814C225.404 55.5814 228.271 57.0808 228.911 60.6625H216.17C216.675 58.1448 218.877 55.5814 222.601 55.5814Z" fill="white"/>
<path d="M250.511 76.0629C242.651 76.0629 237.296 70.0767 237.296 63.0186C237.296 55.7346 243.349 50.2201 250.486 50.2201C257.385 50.2201 260.917 55.0908 260.917 55.0908L256.673 59.3157C256.673 59.3157 254.215 56.1392 250.457 56.1392C246.292 56.1392 243.444 59.3251 243.444 63.112C243.444 67.1106 246.474 70.1784 250.41 70.1784C254.228 70.1784 256.667 67.0071 256.667 67.0071L260.954 71.2297C260.954 71.2297 257.456 76.0629 250.511 76.0629Z" fill="white"/>
<path d="M263.167 75.3851V40.6443H269.251V53.4082C269.251 53.4082 271.581 50.2199 276.648 50.2199C283.019 50.2199 286.71 54.9557 286.71 61.0126V75.3851H280.626V61.9321C280.626 57.863 278.092 56.1748 275.286 56.1748C272.088 56.1748 269.251 57.9945 269.251 62.247V75.3851H263.167Z" fill="white"/>
<path d="M662.662 48.9959V78.4938H669.984V57.5733H675.214V51.2971H669.984V43.975L662.662 48.9959ZM659.524 64.8954C659.524 73.4729 653.666 79.5396 645.298 79.5396C636.93 79.5396 631.281 73.4729 631.281 64.8954C631.281 56.318 637.139 50.2511 645.507 50.2511C653.875 50.2511 659.524 56.318 659.524 64.8954ZM638.603 64.8954C638.603 69.9164 641.323 72.8452 645.298 72.8452C649.273 72.8452 652.202 69.9164 652.202 64.8954C652.202 59.8745 649.482 56.9457 645.507 56.9457C641.532 56.9457 638.603 59.8745 638.603 64.8954ZM629.189 41.8829L621.867 46.9038V78.4938H629.189V41.8829ZM614.126 49.2051C611.616 49.2051 609.524 47.113 609.524 44.6026C609.524 42.0921 611.616 40.0001 614.126 40.0001C616.637 40.0001 618.729 41.8829 618.729 44.3934C618.729 46.9038 616.637 49.2051 614.126 49.2051ZM610.361 78.4938V51.2971H617.683V78.4938H610.361ZM582.118 52.7616V90.0001L589.44 84.9792V78.9122C589.44 78.9122 590.905 79.3306 592.787 79.3306C602.411 79.3306 608.269 73.6821 608.269 64.2678C608.269 55.6904 601.783 50.2511 592.787 50.2511C588.185 50.2511 585.047 51.7155 582.118 52.7616ZM589.44 72.2176V58.2009C589.44 58.2009 591.323 57.3641 592.787 57.3641C597.39 57.3641 600.946 59.6653 600.946 64.477C600.946 70.1256 596.972 72.8452 592.369 72.8452C590.905 72.8452 589.44 72.2176 589.44 72.2176ZM581.072 64.8954C581.072 73.4729 575.214 79.5396 566.846 79.5396C558.478 79.5396 552.62 73.4729 552.62 64.8954C552.62 56.318 558.478 50.2511 566.846 50.2511C575.214 50.2511 581.072 56.318 581.072 64.8954ZM560.152 64.8954C560.152 69.9164 562.871 72.8452 566.846 72.8452C570.821 72.8452 573.54 69.9164 573.54 64.8954C573.54 59.8745 570.821 56.9457 566.846 56.9457C562.871 56.9457 560.152 59.8745 560.152 64.8954ZM540.277 48.9959V78.4938H547.599V57.5733H552.829V51.2971H547.599V43.975L540.277 48.9959ZM537.139 77.866C534.001 78.7028 529.398 79.5396 525.842 79.5396C517.892 79.5396 513.08 77.0292 513.08 68.8703V51.2971H520.403V68.0335C520.403 71.59 522.076 73.2637 525.842 73.2637C526.888 73.2637 528.352 73.0544 529.817 72.8452V51.2971H537.139V77.866ZM502.411 60.7113C502.411 57.9917 500.319 56.7365 497.599 56.7365C494.252 56.7365 491.741 57.7825 489.649 59.0377V52.7616C492.16 51.5063 495.298 50.2511 499.064 50.2511C505.34 50.2511 509.942 52.7616 509.942 60.2929V78.0754C507.223 78.4938 503.248 79.5396 499.482 79.5396C492.369 79.5396 486.93 77.0292 486.93 70.7532C486.93 65.1047 491.532 62.385 499.482 62.385L502.411 62.5942V60.7113ZM502.411 67.1967L500.11 66.9875C496.553 66.9875 494.461 68.0335 494.461 70.3348C494.461 72.636 496.553 73.6821 499.482 73.6821C500.319 73.6821 501.365 73.4729 502.411 73.2637V67.1967Z" fill="white"/>
<mask id="mask0_1_415" style="mask-type:luminance" maskUnits="userSpaceOnUse" x="1621" y="40" width="177" height="50">
<path d="M1797.17 40.0001H1621.3V90.0001H1797.17V40.0001Z" fill="white"/>
</mask>
<g mask="url(#mask0_1_415)">
<path d="M1642.14 74.505C1643.93 74.505 1645.56 74.2261 1647.05 73.6686L1639.13 64.8619H1647.71L1652.45 70.157C1653.64 68.8937 1654.55 67.4444 1655.18 65.8095C1655.85 64.1373 1656.18 62.3536 1656.18 60.4585C1656.18 57.8573 1655.57 55.479 1654.34 53.3238C1653.12 51.1686 1651.43 49.4777 1649.27 48.2516C1647.12 47.0253 1644.74 46.412 1642.14 46.412C1639.54 46.412 1637.17 47.0253 1635.01 48.2516C1632.89 49.4777 1631.2 51.1686 1629.94 53.3238C1628.71 55.479 1628.1 57.8573 1628.1 60.4585C1628.1 63.0595 1628.71 65.4378 1629.94 67.593C1631.2 69.7482 1632.89 71.4392 1635.01 72.6654C1637.17 73.8917 1639.54 74.505 1642.14 74.505ZM1654.46 81.974L1651.56 78.741C1648.59 80.19 1645.45 80.9146 1642.14 80.9146C1638.35 80.9146 1634.86 80.0046 1631.67 78.1834C1628.47 76.3626 1625.95 73.8917 1624.09 70.7702C1622.23 67.6489 1621.3 64.2116 1621.3 60.4585C1621.3 56.7053 1622.23 53.2682 1624.09 50.1467C1625.95 47.0253 1628.47 44.5542 1631.67 42.7334C1634.86 40.9126 1638.35 40.0021 1642.14 40.0021C1645.93 40.0021 1649.42 40.9126 1652.62 42.7334C1655.81 44.5542 1658.34 47.0253 1660.19 50.1467C1662.05 53.2682 1662.98 56.7053 1662.98 60.4585C1662.98 63.2827 1662.44 65.9582 1661.36 68.4849C1660.29 70.9745 1658.76 73.1485 1656.8 75.0063L1663.04 81.974H1654.46Z" fill="white"/>
<path d="M1680.08 74.7279C1681.6 74.7279 1683 74.3561 1684.26 73.6129C1685.52 72.8697 1686.53 71.8663 1687.27 70.603C1688.01 69.3025 1688.38 67.8717 1688.38 66.3111C1688.38 64.7504 1688.01 63.3382 1687.27 62.0749C1686.53 60.7742 1685.52 59.7525 1684.26 59.0091C1683 58.2661 1681.6 57.8943 1680.08 57.8943C1678.56 57.8943 1677.17 58.2661 1675.9 59.0091C1674.64 59.7525 1673.64 60.7742 1672.89 62.0749C1672.15 63.3382 1671.78 64.7504 1671.78 66.3111C1671.78 67.8717 1672.15 69.3025 1672.89 70.603C1673.64 71.8663 1674.64 72.8697 1675.9 73.6129C1677.17 74.3561 1678.56 74.7279 1680.08 74.7279ZM1694.46 52.7115V79.9681H1688.38V77.2369C1687.16 78.389 1685.78 79.2806 1684.26 79.9126C1682.77 80.5067 1681.2 80.8042 1679.52 80.8042C1676.96 80.8042 1674.58 80.1539 1672.39 78.8532C1670.2 77.5525 1668.46 75.806 1667.16 73.6138C1665.89 71.3841 1665.26 68.9502 1665.26 66.312C1665.26 63.7107 1665.89 61.3138 1667.16 59.1216C1668.46 56.892 1670.2 55.1268 1672.39 53.8263C1674.58 52.5256 1676.96 51.8754 1679.52 51.8754C1681.2 51.8754 1682.77 52.1912 1684.26 52.8229C1685.78 53.4175 1687.16 54.2907 1688.38 55.4428V52.7115L1694.46 52.7115Z" fill="white"/>
<path d="M1713.21 74.7275C1714.73 74.7275 1716.13 74.356 1717.39 73.6128C1718.65 72.8696 1719.66 71.8662 1720.4 70.6029C1721.14 69.3024 1721.51 67.8716 1721.51 66.311C1721.51 64.7503 1721.14 63.3381 1720.4 62.0748C1719.66 60.7741 1718.65 59.7523 1717.39 59.009C1716.13 58.266 1714.73 57.8942 1713.21 57.8942C1711.69 57.8942 1710.3 58.266 1709.03 59.009C1707.77 59.7523 1706.77 60.7741 1706.02 62.0748C1705.28 63.3381 1704.91 64.7503 1704.91 66.311C1704.91 67.8716 1705.28 69.3024 1706.02 70.6029C1706.77 71.8662 1707.77 72.8696 1709.03 73.6128C1710.3 74.356 1711.69 74.7275 1713.21 74.7275ZM1713.77 51.875C1716.33 51.875 1718.71 52.5252 1720.9 53.8259C1723.09 55.1264 1724.82 56.8915 1726.08 59.1212C1727.38 61.3134 1728.03 63.7103 1728.03 66.3115C1728.03 68.9498 1727.38 71.3837 1726.08 73.6133C1724.82 75.8056 1723.09 77.5521 1720.9 78.8528C1718.71 80.1535 1716.33 80.8035 1713.77 80.8035C1712.21 80.8035 1710.7 80.5251 1709.26 79.9678C1707.81 79.4101 1706.51 78.6299 1705.36 77.6264V90.0007H1698.84V52.7107H1704.91V55.442C1706.14 54.2899 1707.49 53.4167 1708.98 52.8221C1710.5 52.1904 1712.1 51.8746 1713.77 51.8746" fill="white"/>
<path d="M1735.1 48.0278C1733.99 48.0278 1733.02 47.6562 1732.2 46.913C1731.42 46.1328 1731.03 45.1852 1731.03 44.0704C1731.03 42.9556 1731.42 42.0265 1732.2 41.2833C1733.02 40.5031 1733.99 40.1129 1735.1 40.1129C1736.21 40.1129 1737.16 40.5031 1737.94 41.2833C1738.76 42.0265 1739.17 42.9556 1739.17 44.0704C1739.17 45.1852 1738.76 46.1328 1737.94 46.913C1737.16 47.6562 1736.21 48.0278 1735.1 48.0278ZM1731.81 52.71H1738.33V79.9667H1731.81V52.71Z" fill="white"/>
<path d="M1749.23 58.5635V70.4917C1749.23 71.6437 1749.52 72.5168 1750.12 73.1113C1750.75 73.706 1751.64 74.0031 1752.79 74.0031H1755.8V79.9671H1752.62C1750.66 79.9671 1748.93 79.5771 1747.44 78.7969C1745.96 77.9792 1744.8 76.883 1743.99 75.508C1743.17 74.0962 1742.76 72.5167 1742.76 70.7702V41.0062H1749.23V52.7114H1755.8V58.5642H1749.23" fill="white"/>
<path d="M1771.89 74.7279C1773.41 74.7279 1774.8 74.3561 1776.07 73.6129C1777.33 72.8697 1778.33 71.8663 1779.08 70.603C1779.82 69.3025 1780.19 67.8717 1780.19 66.3111C1780.19 64.7504 1779.82 63.3382 1779.08 62.0749C1778.33 60.7742 1777.33 59.7525 1776.07 59.0091C1774.8 58.2661 1773.41 57.8943 1771.89 57.8943C1770.37 57.8943 1768.97 58.2661 1767.71 59.0091C1766.45 59.7525 1765.44 60.7742 1764.7 62.0749C1763.96 63.3382 1763.59 64.7504 1763.59 66.3111C1763.59 67.8717 1763.96 69.3025 1764.7 70.603C1765.44 71.8663 1766.45 72.8697 1767.71 73.6129C1768.97 74.3561 1770.37 74.7279 1771.89 74.7279ZM1786.26 52.7115V79.9681H1780.19V77.2369C1778.96 78.389 1777.59 79.2806 1776.07 79.9126C1774.58 80.5067 1773 80.8042 1771.33 80.8042C1768.77 80.8042 1766.39 80.1539 1764.2 78.8532C1762.01 77.5525 1760.26 75.806 1758.96 73.6138C1757.7 71.3841 1757.07 68.9502 1757.07 66.312C1757.07 63.7107 1757.7 61.3138 1758.96 59.1216C1760.26 56.892 1762.01 55.1268 1764.2 53.8263C1766.39 52.5256 1768.77 51.8754 1771.33 51.8754C1773 51.8754 1774.58 52.1912 1776.07 52.8229C1777.59 53.4175 1778.96 54.2907 1780.19 55.4428V52.7115L1786.26 52.7115Z" fill="white"/>
<path d="M1790.64 41.0017H1797.16V79.9667H1790.64V41.0017Z" fill="white"/>
</g>
<mask id="mask1_1_415" style="mask-type:luminance" maskUnits="userSpaceOnUse" x="1207" y="40" width="215" height="50">
<path d="M1421.17 40.0001H1207.76V90.0001H1421.17V40.0001Z" fill="white"/>
</mask>
<g mask="url(#mask1_1_415)">
<path d="M1393.16 65.0001C1393.16 57.0934 1399.18 51.5211 1407.16 51.5211C1415.14 51.5211 1421.17 57.0934 1421.17 65.0001C1421.17 72.9067 1415.14 78.4789 1407.16 78.4789C1399.18 78.4789 1393.16 72.8314 1393.16 65.0001ZM1413.26 65.0001C1413.26 61.3103 1410.93 58.5995 1407.24 58.5995C1403.55 58.5995 1401.21 61.3103 1401.21 65.0001C1401.21 68.6898 1403.55 71.4007 1407.24 71.4007C1410.93 71.4007 1413.26 68.7651 1413.26 65.0001ZM1387.88 58.7501C1388.41 59.8043 1388.64 60.9338 1388.64 62.1386C1388.64 65.0001 1387.13 67.6356 1384.72 69.6687C1388.03 71.2501 1389.99 75.0903 1389.99 78.7049C1389.99 85.482 1384.5 90.0001 1376.14 90.0001C1367.78 90.0001 1362.28 85.5574 1362.28 78.7049C1362.21 74.94 1364.24 71.476 1367.55 69.6687C1365.07 67.6356 1363.64 65.0001 1363.64 62.1386C1363.64 56.1898 1368.31 51.8224 1375.69 51.8224C1380.05 51.8224 1381.33 52.5754 1383.82 52.5754C1385.47 52.6507 1387.21 52.1988 1388.64 51.2952C1389.16 50.9941 1389.69 50.7681 1390.29 50.7681C1391.27 50.7681 1391.8 51.747 1391.8 52.9519C1392.03 55.5874 1390.37 57.9218 1387.88 58.7501ZM1382.24 78.4789C1382.24 75.4671 1379.9 73.3585 1376.21 73.3585C1372.52 73.3585 1370.19 75.3917 1370.19 78.4789C1370.19 81.3403 1372.75 83.5994 1376.21 83.5994C1379.68 83.5994 1382.24 81.3403 1382.24 78.4789ZM1371.32 62.5904C1371.39 65.226 1373.65 67.3344 1376.36 67.2591C1378.92 67.1838 1380.88 65.1507 1381.03 62.5904C1381.03 59.8796 1379.07 57.997 1376.21 57.997C1373.35 57.997 1371.32 59.8043 1371.32 62.5904ZM1358.67 65.5272V74.94C1358.67 76.7469 1357.99 77.5001 1356.03 77.5001H1353.4C1351.44 77.5001 1350.76 76.7469 1350.76 74.94V65.7531C1350.76 63.4187 1350.38 61.7621 1349.56 60.7079C1348.58 59.5031 1347.07 58.9007 1345.56 58.976C1343.98 58.9007 1342.48 59.5784 1341.42 60.7079C1340.52 61.7621 1339.92 63.4187 1339.92 65.6778V74.8646C1339.92 76.7469 1339.09 77.4247 1337.28 77.4247H1334.65C1332.84 77.4247 1332.01 76.7469 1332.01 74.8646V53.7802C1332.01 52.5754 1332.61 52.0483 1333.52 52.0483C1334.87 52.0483 1336.75 53.1778 1338.19 55.3615C1340.37 52.9519 1343.46 51.5964 1346.69 51.5964C1350.53 51.5964 1353.62 52.9519 1355.66 55.2109C1357.69 57.47 1358.67 60.5573 1358.67 65.5272ZM1317.55 44.2922C1317.55 41.8826 1319.59 40.0001 1321.92 40.0001C1322 40.0001 1322 40.0001 1322.07 40.0001C1324.41 40.1507 1326.21 42.1838 1326.06 44.5181C1325.91 46.8525 1323.88 48.6597 1321.54 48.5091C1319.28 48.4338 1317.55 46.5513 1317.55 44.2922ZM1318.08 74.94V55.1356C1318.08 53.3284 1318.76 52.5001 1320.72 52.5001H1323.35C1325.31 52.5001 1325.99 53.2531 1325.99 55.1356V74.94C1325.99 76.7469 1325.31 77.5001 1323.35 77.5001H1320.72C1318.76 77.5001 1318.08 76.7469 1318.08 74.94ZM1304.15 74.94V50.0904C1304.15 43.8404 1307.61 40.3013 1310.55 40.3013C1311.45 40.3013 1312.06 40.9037 1312.06 42.0332V74.94C1312.06 76.8223 1311.3 77.5001 1309.42 77.5001H1306.78C1304.98 77.5001 1304.15 76.8223 1304.15 74.94ZM1271.62 65.0001C1271.62 57.0934 1277.64 51.5211 1285.63 51.5211C1293.61 51.5211 1299.63 57.0934 1299.63 65.0001C1299.63 72.9067 1293.61 78.4789 1285.63 78.4789C1277.64 78.4789 1271.62 72.8314 1271.62 65.0001ZM1291.65 65.0001C1291.65 61.3103 1289.31 58.5995 1285.63 58.5995C1281.94 58.5995 1279.6 61.3103 1279.6 65.0001C1279.6 68.6898 1281.94 71.4007 1285.63 71.4007C1289.31 71.4007 1291.65 68.7651 1291.65 65.0001ZM1267.55 55.1356V76.2199C1267.55 77.4247 1266.95 77.9518 1266.05 77.9518C1264.69 77.9518 1262.81 76.8223 1261.45 74.7139C1259.34 77.1237 1256.33 78.4789 1253.09 78.4035C1250.08 78.4789 1247.22 77.4247 1244.96 75.3917C1242.63 73.1326 1241.35 69.6687 1241.35 64.6988V55.1356C1241.35 53.3284 1242.03 52.5001 1243.98 52.5001H1246.62C1248.58 52.5001 1249.25 53.2531 1249.25 55.1356V64.0211C1249.25 67.0332 1249.78 68.6145 1250.76 69.6687C1251.66 70.5724 1253.02 71.0995 1254.3 71.0242C1255.73 71.0242 1257.09 70.497 1258.06 69.4428C1259.04 68.3886 1259.57 66.732 1259.57 64.1718V55.1356C1259.57 53.2531 1260.4 52.5001 1262.21 52.5001H1264.84C1266.72 52.5001 1267.55 53.2531 1267.55 55.1356ZM1235.93 42.0332V76.2199C1235.93 77.4247 1235.32 77.9518 1234.42 77.9518C1233.06 77.9518 1231.18 76.8223 1229.83 74.7893C1228.17 76.7469 1224.78 78.4789 1220.87 78.4789C1213.03 78.4789 1207.76 72.7561 1207.76 65.0001C1207.76 57.2441 1213.19 51.5211 1220.87 51.5211C1223.43 51.5211 1225.91 52.2742 1228.09 53.7049V50.0904C1228.09 43.8404 1231.63 40.3013 1234.5 40.3013C1235.4 40.3013 1235.93 40.9037 1235.93 42.0332ZM1228.09 65.0001C1228.09 61.1597 1225.38 58.5995 1222 58.5995C1218.61 58.5995 1215.82 61.1597 1215.82 65.0001C1215.82 68.8404 1218.53 71.4007 1222 71.4007C1225.46 71.4007 1228.09 68.9157 1228.09 65.0001Z" fill="white"/>
</g>
<path fill-rule="evenodd" clip-rule="evenodd" d="M875.473 79.1709H883.31V66.5806C883.31 61.9187 885.595 59.7934 888.552 59.7934C891.357 59.7934 892.757 61.9704 892.757 65.5449V79.1709H900.596V64.1969C900.596 57.4096 896.909 52.6961 890.526 52.6961C887.152 52.6961 884.557 54.1452 883.31 55.9066V40.3124H875.473V79.1709ZM910.613 49.7417C913.365 49.7417 915.544 47.5646 915.544 44.8709C915.544 42.1771 913.365 40.0001 910.613 40.0001C907.965 40.0001 905.735 42.1771 905.735 44.8709C905.735 47.5646 907.965 49.7417 910.613 49.7417ZM906.721 79.1709H914.558V53.2645H906.721V79.1709ZM920.996 90.0001H928.833V76.5806C929.871 77.9803 932.414 79.7417 935.891 79.7417C942.691 79.7417 947.936 73.5745 947.936 66.2189C947.936 58.861 942.691 52.6961 935.891 52.6961C932.414 52.6961 929.871 54.4575 928.833 55.8549V53.2645H920.996V90.0001ZM934.127 72.6422C930.597 72.6422 928.209 69.9484 928.209 66.2189C928.209 62.4871 930.597 59.7934 934.127 59.7934C937.656 59.7934 940.044 62.4871 940.044 66.2189C940.044 69.9484 937.656 72.6422 934.127 72.6422ZM951.516 90.0001H959.354V76.5806C960.391 77.9803 962.935 79.7417 966.413 79.7417C973.212 79.7417 978.454 73.5745 978.454 66.2189C978.454 58.861 973.212 52.6961 966.413 52.6961C962.935 52.6961 960.391 54.4575 959.354 55.8549V53.2645H951.516V90.0001ZM964.648 72.6422C961.118 72.6422 958.73 69.9484 958.73 66.2189C958.73 62.4871 961.118 59.7934 964.648 59.7934C968.177 59.7934 970.565 62.4871 970.565 66.2189C970.565 69.9484 968.177 72.6422 964.648 72.6422ZM994.08 79.7417C1001.55 79.7417 1007.73 73.8352 1007.73 66.2189C1007.73 58.6026 1001.55 52.6961 994.08 52.6961C986.605 52.6961 980.428 58.6026 980.428 66.2189C980.428 73.8352 986.605 79.7417 994.08 79.7417ZM994.08 72.4355C990.809 72.4355 988.317 69.8967 988.317 66.2189C988.317 62.5388 990.809 60.0001 994.08 60.0001C997.35 60.0001 999.842 62.5388 999.842 66.2189C999.842 69.8967 997.35 72.4355 994.08 72.4355Z" fill="white"/>
<defs>
<linearGradient id="paint0_linear_1_415" x1="-5" y1="6.10352e-05" x2="62.9038" y2="511.026" gradientUnits="userSpaceOnUse">
<stop stop-color="#FF8A00"/>
<stop offset="1" stop-color="#E8112B"/>
</linearGradient>
</defs>
</svg>
